<svg xmlns="http://www.w3.org/2000/svg" viewBox="0 0 400 400" width="400" height="400">
<rect width="400" height="400" fill="#faf6f0"/>
<rect x="20" y="20" width="360" height="360" rx="4" fill="none" stroke="#2a2118" stroke-width="0.5" opacity="0.12"/>
<circle cx="200" cy="148.39999999999998" r="13.200000000000001" fill="#2a2118" opacity="0.6"/>
<line x1="200" y1="161.6" x2="200" y2="210" stroke="#2a2118" stroke-width="4.4" opacity="0.6" stroke-linecap="round"/>
<line x1="200" y1="210" x2="186.8" y2="245.2" stroke="#2a2118" stroke-width="4.4" opacity="0.6" stroke-linecap="round"/>
<line x1="200" y1="210" x2="213.2" y2="245.2" stroke="#2a2118" stroke-width="4.4" opacity="0.6" stroke-linecap="round"/>
<line x1="200" y1="174.8" x2="182.4" y2="196.8" stroke="#2a2118" stroke-width="3.3000000000000003" opacity="0.6" stroke-linecap="round"/>
<line x1="200" y1="174.8" x2="226.4" y2="161.6" stroke="#2a2118" stroke-width="3.3000000000000003" opacity="0.6" stroke-linecap="round"/>
<circle cx="90" cy="244.2" r="6.6000000000000005" fill="#2a2118" opacity="0.6"/>
<line x1="90" y1="250.8" x2="90" y2="275" stroke="#2a2118" stroke-width="2.2" opacity="0.6" stroke-linecap="round"/>
<line x1="90" y1="275" x2="83.4" y2="292.6" stroke="#2a2118" stroke-width="2.2" opacity="0.6" stroke-linecap="round"/>
<line x1="90" y1="275" x2="96.6" y2="292.6" stroke="#2a2118" stroke-width="2.2" opacity="0.6" stroke-linecap="round"/>
<line x1="90" y1="257.4" x2="94.4" y2="250.8" stroke="#2a2118" stroke-width="1.6500000000000001" opacity="0.6" stroke-linecap="round"/>
<line x1="90" y1="257.4" x2="85.6" y2="250.8" stroke="#2a2118" stroke-width="1.6500000000000001" opacity="0.6" stroke-linecap="round"/>
<circle cx="130" cy="254.2" r="6.6000000000000005" fill="#2a2118" opacity="0.6"/>
<line x1="130" y1="260.8" x2="130" y2="285" stroke="#2a2118" stroke-width="2.2" opacity="0.6" stroke-linecap="round"/>
<line x1="130" y1="285" x2="123.4" y2="302.6" stroke="#2a2118" stroke-width="2.2" opacity="0.6" stroke-linecap="round"/>
<line x1="130" y1="285" x2="136.6" y2="302.6" stroke="#2a2118" stroke-width="2.2" opacity="0.6" stroke-linecap="round"/>
<line x1="130" y1="267.4" x2="134.4" y2="260.8" stroke="#2a2118" stroke-width="1.6500000000000001" opacity="0.6" stroke-linecap="round"/>
<line x1="130" y1="267.4" x2="125.6" y2="260.8" stroke="#2a2118" stroke-width="1.6500000000000001" opacity="0.6" stroke-linecap="round"/>
<circle cx="270" cy="244.2" r="6.6000000000000005" fill="#2a2118" opacity="0.6"/>
<line x1="270" y1="250.8" x2="270" y2="275" stroke="#2a2118" stroke-width="2.2" opacity="0.6" stroke-linecap="round"/>
<line x1="270" y1="275" x2="263.4" y2="292.6" stroke="#2a2118" stroke-width="2.2" opacity="0.6" stroke-linecap="round"/>
<line x1="270" y1="275" x2="276.6" y2="292.6" stroke="#2a2118" stroke-width="2.2" opacity="0.6" stroke-linecap="round"/>
<line x1="270" y1="257.4" x2="274.4" y2="250.8" stroke="#2a2118" stroke-width="1.6500000000000001" opacity="0.6" stroke-linecap="round"/>
<line x1="270" y1="257.4" x2="265.6" y2="250.8" stroke="#2a2118" stroke-width="1.6500000000000001" opacity="0.6" stroke-linecap="round"/>
<circle cx="310" cy="254.2" r="6.6000000000000005" fill="#2a2118" opacity="0.6"/>
<line x1="310" y1="260.8" x2="310" y2="285" stroke="#2a2118" stroke-width="2.2" opacity="0.6" stroke-linecap="round"/>
<line x1="310" y1="285" x2="303.4" y2="302.6" stroke="#2a2118" stroke-width="2.2" opacity="0.6" stroke-linecap="round"/>
<line x1="310" y1="285" x2="316.6" y2="302.6" stroke="#2a2118" stroke-width="2.2" opacity="0.6" stroke-linecap="round"/>
<line x1="310" y1="267.4" x2="314.4" y2="260.8" stroke="#2a2118" stroke-width="1.6500000000000001" opacity="0.6" stroke-linecap="round"/>
<line x1="310" y1="267.4" x2="305.6" y2="260.8" stroke="#2a2118" stroke-width="1.6500000000000001" opacity="0.6" stroke-linecap="round"/>
<circle cx="140" cy="300" r="2.5" fill="#8b4513" opacity="0.2"/>
<circle cx="170" cy="300" r="2.5" fill="#8b4513" opacity="0.2"/>
<circle cx="200" cy="300" r="2.5" fill="#8b4513" opacity="0.2"/>
<circle cx="230" cy="300" r="2.5" fill="#8b4513" opacity="0.2"/>
<circle cx="260" cy="300" r="2.5" fill="#8b4513" opacity="0.2"/>
</svg>