<svg xmlns="http://www.w3.org/2000/svg" viewBox="0 0 400 400" width="400" height="400">
<rect width="400" height="400" fill="#faf6f0"/>
<rect x="20" y="20" width="360" height="360" rx="4" fill="none" stroke="#2a2118" stroke-width="0.5" opacity="0.12"/>
<circle cx="200.0" cy="125.72" r="4.5600000000000005" fill="#2a2118" opacity="0.6"/>
<line x1="200.0" y1="130.28" x2="200.0" y2="147.0" stroke="#2a2118" stroke-width="1.52" opacity="0.6" stroke-linecap="round"/>
<line x1="200.0" y1="147.0" x2="195.44" y2="159.16" stroke="#2a2118" stroke-width="1.52" opacity="0.6" stroke-linecap="round"/>
<line x1="200.0" y1="147.0" x2="204.56" y2="159.16" stroke="#2a2118" stroke-width="1.52" opacity="0.6" stroke-linecap="round"/>
<line x1="200.0" y1="134.84" x2="193.92" y2="143.96" stroke="#2a2118" stroke-width="1.1400000000000001" opacity="0.6" stroke-linecap="round"/>
<line x1="200.0" y1="134.84" x2="206.08" y2="143.96" stroke="#2a2118" stroke-width="1.1400000000000001" opacity="0.6" stroke-linecap="round"/>
<circle cx="267.5499814951862" cy="164.72" r="4.5600000000000005" fill="#2a2118" opacity="0.6"/>
<line x1="267.5499814951862" y1="169.28" x2="267.5499814951862" y2="186.0" stroke="#2a2118" stroke-width="1.52" opacity="0.6" stroke-linecap="round"/>
<line x1="267.5499814951862" y1="186.0" x2="262.9899814951862" y2="198.16" stroke="#2a2118" stroke-width="1.52" opacity="0.6" stroke-linecap="round"/>
<line x1="267.5499814951862" y1="186.0" x2="272.1099814951862" y2="198.16" stroke="#2a2118" stroke-width="1.52" opacity="0.6" stroke-linecap="round"/>
<line x1="267.5499814951862" y1="173.84" x2="261.46998149518623" y2="182.96" stroke="#2a2118" stroke-width="1.1400000000000001" opacity="0.6" stroke-linecap="round"/>
<line x1="267.5499814951862" y1="173.84" x2="273.6299814951862" y2="182.96" stroke="#2a2118" stroke-width="1.1400000000000001" opacity="0.6" stroke-linecap="round"/>
<circle cx="267.5499814951862" cy="242.72" r="4.5600000000000005" fill="#2a2118" opacity="0.6"/>
<line x1="267.5499814951862" y1="247.28" x2="267.5499814951862" y2="264.0" stroke="#2a2118" stroke-width="1.52" opacity="0.6" stroke-linecap="round"/>
<line x1="267.5499814951862" y1="264.0" x2="262.9899814951862" y2="276.16" stroke="#2a2118" stroke-width="1.52" opacity="0.6" stroke-linecap="round"/>
<line x1="267.5499814951862" y1="264.0" x2="272.1099814951862" y2="276.16" stroke="#2a2118" stroke-width="1.52" opacity="0.6" stroke-linecap="round"/>
<line x1="267.5499814951862" y1="251.84" x2="261.46998149518623" y2="260.96" stroke="#2a2118" stroke-width="1.1400000000000001" opacity="0.6" stroke-linecap="round"/>
<line x1="267.5499814951862" y1="251.84" x2="273.6299814951862" y2="260.96" stroke="#2a2118" stroke-width="1.1400000000000001" opacity="0.6" stroke-linecap="round"/>
<circle cx="200.0" cy="281.72" r="4.5600000000000005" fill="#2a2118" opacity="0.6"/>
<line x1="200.0" y1="286.28" x2="200.0" y2="303.0" stroke="#2a2118" stroke-width="1.52" opacity="0.6" stroke-linecap="round"/>
<line x1="200.0" y1="303.0" x2="195.44" y2="315.16" stroke="#2a2118" stroke-width="1.52" opacity="0.6" stroke-linecap="round"/>
<line x1="200.0" y1="303.0" x2="204.56" y2="315.16" stroke="#2a2118" stroke-width="1.52" opacity="0.6" stroke-linecap="round"/>
<line x1="200.0" y1="290.84" x2="193.92" y2="299.96" stroke="#2a2118" stroke-width="1.1400000000000001" opacity="0.6" stroke-linecap="round"/>
<line x1="200.0" y1="290.84" x2="206.08" y2="299.96" stroke="#2a2118" stroke-width="1.1400000000000001" opacity="0.6" stroke-linecap="round"/>
<circle cx="132.45001850481378" cy="242.72" r="4.5600000000000005" fill="#2a2118" opacity="0.6"/>
<line x1="132.45001850481378" y1="247.28" x2="132.45001850481378" y2="264.0" stroke="#2a2118" stroke-width="1.52" opacity="0.6" stroke-linecap="round"/>
<line x1="132.45001850481378" y1="264.0" x2="127.89001850481378" y2="276.16" stroke="#2a2118" stroke-width="1.52" opacity="0.6" stroke-linecap="round"/>
<line x1="132.45001850481378" y1="264.0" x2="137.0100185048138" y2="276.16" stroke="#2a2118" stroke-width="1.52" opacity="0.6" stroke-linecap="round"/>
<line x1="132.45001850481378" y1="251.84" x2="126.37001850481379" y2="260.96" stroke="#2a2118" stroke-width="1.1400000000000001" opacity="0.6" stroke-linecap="round"/>
<line x1="132.45001850481378" y1="251.84" x2="138.5300185048138" y2="260.96" stroke="#2a2118" stroke-width="1.1400000000000001" opacity="0.6" stroke-linecap="round"/>
<circle cx="132.45001850481378" cy="164.72" r="4.5600000000000005" fill="#2a2118" opacity="0.6"/>
<line x1="132.45001850481378" y1="169.28" x2="132.45001850481378" y2="186.0" stroke="#2a2118" stroke-width="1.52" opacity="0.6" stroke-linecap="round"/>
<line x1="132.45001850481378" y1="186.0" x2="127.89001850481378" y2="198.16" stroke="#2a2118" stroke-width="1.52" opacity="0.6" stroke-linecap="round"/>
<line x1="132.45001850481378" y1="186.0" x2="137.0100185048138" y2="198.16" stroke="#2a2118" stroke-width="1.52" opacity="0.6" stroke-linecap="round"/>
<line x1="132.45001850481378" y1="173.84" x2="126.37001850481379" y2="182.96" stroke="#2a2118" stroke-width="1.1400000000000001" opacity="0.6" stroke-linecap="round"/>
<line x1="132.45001850481378" y1="173.84" x2="138.5300185048138" y2="182.96" stroke="#2a2118" stroke-width="1.1400000000000001" opacity="0.6" stroke-linecap="round"/>
<path d="M200.0,147.0 Q231.98000000000002,169.6090151739473 267.5499814951862,186.0" fill="none" stroke="#2a2118" stroke-width="0.7" opacity="0.15"/>
<path d="M267.5499814951862,186.0 Q263.96,225.0 267.5499814951862,264.0" fill="none" stroke="#2a2118" stroke-width="0.7" opacity="0.15"/>
<path d="M267.5499814951862,264.0 Q231.98000000000002,280.39098482605266 200.0,303.0" fill="none" stroke="#2a2118" stroke-width="0.7" opacity="0.15"/>
<path d="M200.0,303.0 Q168.01999999999998,280.39098482605266 132.45001850481378,264.0" fill="none" stroke="#2a2118" stroke-width="0.7" opacity="0.15"/>
<path d="M132.45001850481378,264.0 Q136.04000000000002,225.0 132.45001850481378,186.0" fill="none" stroke="#2a2118" stroke-width="0.7" opacity="0.15"/>
<path d="M132.45001850481378,186.0 Q231.98,280.3909848260527 200.0,147.0" fill="none" stroke="#2a2118" stroke-width="0.7" opacity="0.15"/>
<circle cx="155.0" cy="140.0" rx="5.2" ry="3.9000000000000004" fill="#2a2118" opacity="0.35" transform="rotate(-20,155.0,140.0)"/>
<line x1="159.55" y1="140.0" x2="159.55" y2="119.2" stroke="#2a2118" stroke-width="1.3" opacity="0.35"/>
<circle cx="178.4" cy="129.6" rx="5.2" ry="3.9000000000000004" fill="#2a2118" opacity="0.35" transform="rotate(-20,178.4,129.6)"/>
<line x1="182.95000000000002" y1="129.6" x2="182.95000000000002" y2="108.8" stroke="#2a2118" stroke-width="1.3" opacity="0.35"/>
<circle cx="201.8" cy="140.0" rx="5.2" ry="3.9000000000000004" fill="#2a2118" opacity="0.35" transform="rotate(-20,201.8,140.0)"/>
<line x1="206.35000000000002" y1="140.0" x2="206.35000000000002" y2="119.2" stroke="#2a2118" stroke-width="1.3" opacity="0.35"/>
<circle cx="225.2" cy="129.6" rx="5.2" ry="3.9000000000000004" fill="#2a2118" opacity="0.35" transform="rotate(-20,225.2,129.6)"/>
<line x1="229.75" y1="129.6" x2="229.75" y2="108.8" stroke="#2a2118" stroke-width="1.3" opacity="0.35"/>
</svg>