<svg xmlns="http://www.w3.org/2000/svg" viewBox="0 0 400 400" width="400" height="400">
<rect width="400" height="400" fill="#faf6f0"/>
<rect x="20" y="20" width="360" height="360" rx="4" fill="none" stroke="#2a2118" stroke-width="0.5" opacity="0.12"/>
<circle cx="200.0" cy="139.84" r="4.32" fill="#2a2118" opacity="0.6"/>
<line x1="200.0" y1="144.16" x2="200.0" y2="160.0" stroke="#2a2118" stroke-width="1.4400000000000002" opacity="0.6" stroke-linecap="round"/>
<line x1="200.0" y1="160.0" x2="195.68" y2="171.52" stroke="#2a2118" stroke-width="1.4400000000000002" opacity="0.6" stroke-linecap="round"/>
<line x1="200.0" y1="160.0" x2="204.32" y2="171.52" stroke="#2a2118" stroke-width="1.4400000000000002" opacity="0.6" stroke-linecap="round"/>
<line x1="200.0" y1="148.48" x2="194.24" y2="157.12" stroke="#2a2118" stroke-width="1.08" opacity="0.6" stroke-linecap="round"/>
<line x1="200.0" y1="148.48" x2="205.76" y2="157.12" stroke="#2a2118" stroke-width="1.08" opacity="0.6" stroke-linecap="round"/>
<circle cx="260.6217782649107" cy="174.84" r="4.32" fill="#2a2118" opacity="0.6"/>
<line x1="260.6217782649107" y1="179.16" x2="260.6217782649107" y2="195.0" stroke="#2a2118" stroke-width="1.4400000000000002" opacity="0.6" stroke-linecap="round"/>
<line x1="260.6217782649107" y1="195.0" x2="256.3017782649107" y2="206.52" stroke="#2a2118" stroke-width="1.4400000000000002" opacity="0.6" stroke-linecap="round"/>
<line x1="260.6217782649107" y1="195.0" x2="264.9417782649107" y2="206.52" stroke="#2a2118" stroke-width="1.4400000000000002" opacity="0.6" stroke-linecap="round"/>
<line x1="260.6217782649107" y1="183.48" x2="254.8617782649107" y2="192.12" stroke="#2a2118" stroke-width="1.08" opacity="0.6" stroke-linecap="round"/>
<line x1="260.6217782649107" y1="183.48" x2="266.3817782649107" y2="192.12" stroke="#2a2118" stroke-width="1.08" opacity="0.6" stroke-linecap="round"/>
<circle cx="260.6217782649107" cy="244.84" r="4.32" fill="#2a2118" opacity="0.6"/>
<line x1="260.6217782649107" y1="249.16" x2="260.6217782649107" y2="265.0" stroke="#2a2118" stroke-width="1.4400000000000002" opacity="0.6" stroke-linecap="round"/>
<line x1="260.6217782649107" y1="265.0" x2="256.3017782649107" y2="276.52" stroke="#2a2118" stroke-width="1.4400000000000002" opacity="0.6" stroke-linecap="round"/>
<line x1="260.6217782649107" y1="265.0" x2="264.9417782649107" y2="276.52" stroke="#2a2118" stroke-width="1.4400000000000002" opacity="0.6" stroke-linecap="round"/>
<line x1="260.6217782649107" y1="253.48" x2="254.8617782649107" y2="262.12" stroke="#2a2118" stroke-width="1.08" opacity="0.6" stroke-linecap="round"/>
<line x1="260.6217782649107" y1="253.48" x2="266.3817782649107" y2="262.12" stroke="#2a2118" stroke-width="1.08" opacity="0.6" stroke-linecap="round"/>
<circle cx="200.0" cy="279.84" r="4.32" fill="#2a2118" opacity="0.6"/>
<line x1="200.0" y1="284.16" x2="200.0" y2="300.0" stroke="#2a2118" stroke-width="1.4400000000000002" opacity="0.6" stroke-linecap="round"/>
<line x1="200.0" y1="300.0" x2="195.68" y2="311.52" stroke="#2a2118" stroke-width="1.4400000000000002" opacity="0.6" stroke-linecap="round"/>
<line x1="200.0" y1="300.0" x2="204.32" y2="311.52" stroke="#2a2118" stroke-width="1.4400000000000002" opacity="0.6" stroke-linecap="round"/>
<line x1="200.0" y1="288.48" x2="194.24" y2="297.12" stroke="#2a2118" stroke-width="1.08" opacity="0.6" stroke-linecap="round"/>
<line x1="200.0" y1="288.48" x2="205.76" y2="297.12" stroke="#2a2118" stroke-width="1.08" opacity="0.6" stroke-linecap="round"/>
<circle cx="139.37822173508928" cy="244.84" r="4.32" fill="#2a2118" opacity="0.6"/>
<line x1="139.37822173508928" y1="249.16" x2="139.37822173508928" y2="265.0" stroke="#2a2118" stroke-width="1.4400000000000002" opacity="0.6" stroke-linecap="round"/>
<line x1="139.37822173508928" y1="265.0" x2="135.0582217350893" y2="276.52" stroke="#2a2118" stroke-width="1.4400000000000002" opacity="0.6" stroke-linecap="round"/>
<line x1="139.37822173508928" y1="265.0" x2="143.69822173508928" y2="276.52" stroke="#2a2118" stroke-width="1.4400000000000002" opacity="0.6" stroke-linecap="round"/>
<line x1="139.37822173508928" y1="253.48" x2="133.6182217350893" y2="262.12" stroke="#2a2118" stroke-width="1.08" opacity="0.6" stroke-linecap="round"/>
<line x1="139.37822173508928" y1="253.48" x2="145.13822173508927" y2="262.12" stroke="#2a2118" stroke-width="1.08" opacity="0.6" stroke-linecap="round"/>
<circle cx="139.3782217350893" cy="174.84" r="4.32" fill="#2a2118" opacity="0.6"/>
<line x1="139.3782217350893" y1="179.16" x2="139.3782217350893" y2="195.0" stroke="#2a2118" stroke-width="1.4400000000000002" opacity="0.6" stroke-linecap="round"/>
<line x1="139.3782217350893" y1="195.0" x2="135.05822173508932" y2="206.52" stroke="#2a2118" stroke-width="1.4400000000000002" opacity="0.6" stroke-linecap="round"/>
<line x1="139.3782217350893" y1="195.0" x2="143.6982217350893" y2="206.52" stroke="#2a2118" stroke-width="1.4400000000000002" opacity="0.6" stroke-linecap="round"/>
<line x1="139.3782217350893" y1="183.48" x2="133.61822173508932" y2="192.12" stroke="#2a2118" stroke-width="1.08" opacity="0.6" stroke-linecap="round"/>
<line x1="139.3782217350893" y1="183.48" x2="145.1382217350893" y2="192.12" stroke="#2a2118" stroke-width="1.08" opacity="0.6" stroke-linecap="round"/>
<circle cx="320" cy="190.8" r="8.399999999999999" fill="#2a2118" opacity="0.6"/>
<line x1="320" y1="199.2" x2="320" y2="230" stroke="#2a2118" stroke-width="2.8" opacity="0.6" stroke-linecap="round"/>
<line x1="320" y1="230" x2="311.6" y2="252.4" stroke="#2a2118" stroke-width="2.8" opacity="0.6" stroke-linecap="round"/>
<line x1="320" y1="230" x2="328.4" y2="252.4" stroke="#2a2118" stroke-width="2.8" opacity="0.6" stroke-linecap="round"/>
<line x1="320" y1="207.6" x2="303.2" y2="213.2" stroke="#2a2118" stroke-width="2.0999999999999996" opacity="0.6" stroke-linecap="round"/>
<line x1="320" y1="207.6" x2="336.8" y2="202.0" stroke="#2a2118" stroke-width="2.0999999999999996" opacity="0.6" stroke-linecap="round"/>
<path d="M280,290 L294.0,284.0 L300.0,298.0 L286.0,304.0Z" fill="#f5f0e6" stroke="#2a2118" stroke-width="0.6" opacity="0.5"/>
<path d="M294.0,284.0 Q298.0,288.0 300.0,298.0" fill="none" stroke="#2a2118" stroke-width="0.4" opacity="0.3"/>
</svg>