<svg xmlns="http://www.w3.org/2000/svg" viewBox="0 0 400 400" width="400" height="400">
<rect width="400" height="400" fill="#faf6f0"/>
<rect x="20" y="20" width="360" height="360" rx="4" fill="none" stroke="#2a2118" stroke-width="0.5" opacity="0.12"/>
<circle cx="200.0" cy="139.84" r="4.32" fill="#2a2118" opacity="0.6"/>
<line x1="200.0" y1="144.16" x2="200.0" y2="160.0" stroke="#2a2118" stroke-width="1.4400000000000002" opacity="0.6" stroke-linecap="round"/>
<line x1="200.0" y1="160.0" x2="195.68" y2="171.52" stroke="#2a2118" stroke-width="1.4400000000000002" opacity="0.6" stroke-linecap="round"/>
<line x1="200.0" y1="160.0" x2="204.32" y2="171.52" stroke="#2a2118" stroke-width="1.4400000000000002" opacity="0.6" stroke-linecap="round"/>
<line x1="200.0" y1="148.48" x2="194.24" y2="157.12" stroke="#2a2118" stroke-width="1.08" opacity="0.6" stroke-linecap="round"/>
<line x1="200.0" y1="148.48" x2="205.76" y2="157.12" stroke="#2a2118" stroke-width="1.08" opacity="0.6" stroke-linecap="round"/>
<circle cx="254.72820377276207" cy="166.19571386988866" r="4.32" fill="#2a2118" opacity="0.6"/>
<line x1="254.72820377276207" y1="170.51571386988866" x2="254.72820377276207" y2="186.35571386988866" stroke="#2a2118" stroke-width="1.4400000000000002" opacity="0.6" stroke-linecap="round"/>
<line x1="254.72820377276207" y1="186.35571386988866" x2="250.40820377276208" y2="197.87571386988867" stroke="#2a2118" stroke-width="1.4400000000000002" opacity="0.6" stroke-linecap="round"/>
<line x1="254.72820377276207" y1="186.35571386988866" x2="259.04820377276207" y2="197.87571386988867" stroke="#2a2118" stroke-width="1.4400000000000002" opacity="0.6" stroke-linecap="round"/>
<line x1="254.72820377276207" y1="174.83571386988865" x2="248.96820377276208" y2="183.47571386988866" stroke="#2a2118" stroke-width="1.08" opacity="0.6" stroke-linecap="round"/>
<line x1="254.72820377276207" y1="174.83571386988865" x2="260.48820377276206" y2="183.47571386988866" stroke="#2a2118" stroke-width="1.08" opacity="0.6" stroke-linecap="round"/>
<circle cx="268.24495385272763" cy="225.41646537694203" r="4.32" fill="#2a2118" opacity="0.6"/>
<line x1="268.24495385272763" y1="229.73646537694202" x2="268.24495385272763" y2="245.57646537694202" stroke="#2a2118" stroke-width="1.4400000000000002" opacity="0.6" stroke-linecap="round"/>
<line x1="268.24495385272763" y1="245.57646537694202" x2="263.92495385272764" y2="257.09646537694204" stroke="#2a2118" stroke-width="1.4400000000000002" opacity="0.6" stroke-linecap="round"/>
<line x1="268.24495385272763" y1="245.57646537694202" x2="272.5649538527276" y2="257.09646537694204" stroke="#2a2118" stroke-width="1.4400000000000002" opacity="0.6" stroke-linecap="round"/>
<line x1="268.24495385272763" y1="234.05646537694201" x2="262.48495385272764" y2="242.69646537694203" stroke="#2a2118" stroke-width="1.08" opacity="0.6" stroke-linecap="round"/>
<line x1="268.24495385272763" y1="234.05646537694201" x2="274.0049538527276" y2="242.69646537694203" stroke="#2a2118" stroke-width="1.08" opacity="0.6" stroke-linecap="round"/>
<circle cx="230.3718617382291" cy="272.9078207531693" r="4.32" fill="#2a2118" opacity="0.6"/>
<line x1="230.3718617382291" y1="277.22782075316934" x2="230.3718617382291" y2="293.0678207531693" stroke="#2a2118" stroke-width="1.4400000000000002" opacity="0.6" stroke-linecap="round"/>
<line x1="230.3718617382291" y1="293.0678207531693" x2="226.0518617382291" y2="304.5878207531693" stroke="#2a2118" stroke-width="1.4400000000000002" opacity="0.6" stroke-linecap="round"/>
<line x1="230.3718617382291" y1="293.0678207531693" x2="234.69186173822908" y2="304.5878207531693" stroke="#2a2118" stroke-width="1.4400000000000002" opacity="0.6" stroke-linecap="round"/>
<line x1="230.3718617382291" y1="281.54782075316933" x2="224.6118617382291" y2="290.1878207531693" stroke="#2a2118" stroke-width="1.08" opacity="0.6" stroke-linecap="round"/>
<line x1="230.3718617382291" y1="281.54782075316933" x2="236.13186173822908" y2="290.1878207531693" stroke="#2a2118" stroke-width="1.08" opacity="0.6" stroke-linecap="round"/>
<circle cx="169.62813826177094" cy="272.90782075316935" r="4.32" fill="#2a2118" opacity="0.6"/>
<line x1="169.62813826177094" y1="277.2278207531694" x2="169.62813826177094" y2="293.06782075316937" stroke="#2a2118" stroke-width="1.4400000000000002" opacity="0.6" stroke-linecap="round"/>
<line x1="169.62813826177094" y1="293.06782075316937" x2="165.30813826177095" y2="304.58782075316935" stroke="#2a2118" stroke-width="1.4400000000000002" opacity="0.6" stroke-linecap="round"/>
<line x1="169.62813826177094" y1="293.06782075316937" x2="173.94813826177094" y2="304.58782075316935" stroke="#2a2118" stroke-width="1.4400000000000002" opacity="0.6" stroke-linecap="round"/>
<line x1="169.62813826177094" y1="281.5478207531694" x2="163.86813826177095" y2="290.1878207531694" stroke="#2a2118" stroke-width="1.08" opacity="0.6" stroke-linecap="round"/>
<line x1="169.62813826177094" y1="281.5478207531694" x2="175.38813826177093" y2="290.1878207531694" stroke="#2a2118" stroke-width="1.08" opacity="0.6" stroke-linecap="round"/>
<circle cx="131.75504614727234" cy="225.416465376942" r="4.32" fill="#2a2118" opacity="0.6"/>
<line x1="131.75504614727234" y1="229.736465376942" x2="131.75504614727234" y2="245.576465376942" stroke="#2a2118" stroke-width="1.4400000000000002" opacity="0.6" stroke-linecap="round"/>
<line x1="131.75504614727234" y1="245.576465376942" x2="127.43504614727235" y2="257.096465376942" stroke="#2a2118" stroke-width="1.4400000000000002" opacity="0.6" stroke-linecap="round"/>
<line x1="131.75504614727234" y1="245.576465376942" x2="136.07504614727233" y2="257.096465376942" stroke="#2a2118" stroke-width="1.4400000000000002" opacity="0.6" stroke-linecap="round"/>
<line x1="131.75504614727234" y1="234.056465376942" x2="125.99504614727233" y2="242.696465376942" stroke="#2a2118" stroke-width="1.08" opacity="0.6" stroke-linecap="round"/>
<line x1="131.75504614727234" y1="234.056465376942" x2="137.51504614727233" y2="242.696465376942" stroke="#2a2118" stroke-width="1.08" opacity="0.6" stroke-linecap="round"/>
<circle cx="145.2717962272379" cy="166.19571386988866" r="4.32" fill="#2a2118" opacity="0.6"/>
<line x1="145.2717962272379" y1="170.51571386988866" x2="145.2717962272379" y2="186.35571386988866" stroke="#2a2118" stroke-width="1.4400000000000002" opacity="0.6" stroke-linecap="round"/>
<line x1="145.2717962272379" y1="186.35571386988866" x2="140.9517962272379" y2="197.87571386988867" stroke="#2a2118" stroke-width="1.4400000000000002" opacity="0.6" stroke-linecap="round"/>
<line x1="145.2717962272379" y1="186.35571386988866" x2="149.5917962272379" y2="197.87571386988867" stroke="#2a2118" stroke-width="1.4400000000000002" opacity="0.6" stroke-linecap="round"/>
<line x1="145.2717962272379" y1="174.83571386988865" x2="139.5117962272379" y2="183.47571386988866" stroke="#2a2118" stroke-width="1.08" opacity="0.6" stroke-linecap="round"/>
<line x1="145.2717962272379" y1="174.83571386988865" x2="151.0317962272379" y2="183.47571386988866" stroke="#2a2118" stroke-width="1.08" opacity="0.6" stroke-linecap="round"/>
<circle cx="320" cy="190.8" r="8.399999999999999" fill="#2a2118" opacity="0.6"/>
<line x1="320" y1="199.2" x2="320" y2="230" stroke="#2a2118" stroke-width="2.8" opacity="0.6" stroke-linecap="round"/>
<line x1="320" y1="230" x2="311.6" y2="252.4" stroke="#2a2118" stroke-width="2.8" opacity="0.6" stroke-linecap="round"/>
<line x1="320" y1="230" x2="328.4" y2="252.4" stroke="#2a2118" stroke-width="2.8" opacity="0.6" stroke-linecap="round"/>
<line x1="320" y1="207.6" x2="303.2" y2="213.2" stroke="#2a2118" stroke-width="2.0999999999999996" opacity="0.6" stroke-linecap="round"/>
<line x1="320" y1="207.6" x2="336.8" y2="202.0" stroke="#2a2118" stroke-width="2.0999999999999996" opacity="0.6" stroke-linecap="round"/>
<path d="M280,290 L294.0,284.0 L300.0,298.0 L286.0,304.0Z" fill="#f5f0e6" stroke="#2a2118" stroke-width="0.6" opacity="0.5"/>
<path d="M294.0,284.0 Q298.0,288.0 300.0,298.0" fill="none" stroke="#2a2118" stroke-width="0.4" opacity="0.3"/>
</svg>