<svg xmlns="http://www.w3.org/2000/svg" viewBox="0 0 400 400" width="400" height="400">
<rect width="400" height="400" fill="#faf6f0"/>
<rect x="20" y="20" width="360" height="360" rx="4" fill="none" stroke="#2a2118" stroke-width="0.5" opacity="0.12"/>
<circle cx="200.0" cy="125.72" r="4.5600000000000005" fill="#2a2118" opacity="0.6"/>
<line x1="200.0" y1="130.28" x2="200.0" y2="147.0" stroke="#2a2118" stroke-width="1.52" opacity="0.6" stroke-linecap="round"/>
<line x1="200.0" y1="147.0" x2="195.44" y2="159.16" stroke="#2a2118" stroke-width="1.52" opacity="0.6" stroke-linecap="round"/>
<line x1="200.0" y1="147.0" x2="204.56" y2="159.16" stroke="#2a2118" stroke-width="1.52" opacity="0.6" stroke-linecap="round"/>
<line x1="200.0" y1="134.84" x2="193.92" y2="143.96" stroke="#2a2118" stroke-width="1.1400000000000001" opacity="0.6" stroke-linecap="round"/>
<line x1="200.0" y1="134.84" x2="206.08" y2="143.96" stroke="#2a2118" stroke-width="1.1400000000000001" opacity="0.6" stroke-linecap="round"/>
<circle cx="260.9828556325063" cy="155.08779545501878" r="4.5600000000000005" fill="#2a2118" opacity="0.6"/>
<line x1="260.9828556325063" y1="159.64779545501878" x2="260.9828556325063" y2="176.36779545501878" stroke="#2a2118" stroke-width="1.52" opacity="0.6" stroke-linecap="round"/>
<line x1="260.9828556325063" y1="176.36779545501878" x2="256.4228556325063" y2="188.52779545501878" stroke="#2a2118" stroke-width="1.52" opacity="0.6" stroke-linecap="round"/>
<line x1="260.9828556325063" y1="176.36779545501878" x2="265.5428556325063" y2="188.52779545501878" stroke="#2a2118" stroke-width="1.52" opacity="0.6" stroke-linecap="round"/>
<line x1="260.9828556325063" y1="164.20779545501878" x2="254.9028556325063" y2="173.3277954550188" stroke="#2a2118" stroke-width="1.1400000000000001" opacity="0.6" stroke-linecap="round"/>
<line x1="260.9828556325063" y1="164.20779545501878" x2="267.0628556325063" y2="173.3277954550188" stroke="#2a2118" stroke-width="1.1400000000000001" opacity="0.6" stroke-linecap="round"/>
<circle cx="276.04437715018224" cy="221.07663284859254" r="4.5600000000000005" fill="#2a2118" opacity="0.6"/>
<line x1="276.04437715018224" y1="225.63663284859254" x2="276.04437715018224" y2="242.35663284859254" stroke="#2a2118" stroke-width="1.52" opacity="0.6" stroke-linecap="round"/>
<line x1="276.04437715018224" y1="242.35663284859254" x2="271.48437715018224" y2="254.51663284859254" stroke="#2a2118" stroke-width="1.52" opacity="0.6" stroke-linecap="round"/>
<line x1="276.04437715018224" y1="242.35663284859254" x2="280.60437715018224" y2="254.51663284859254" stroke="#2a2118" stroke-width="1.52" opacity="0.6" stroke-linecap="round"/>
<line x1="276.04437715018224" y1="230.19663284859254" x2="269.96437715018226" y2="239.31663284859255" stroke="#2a2118" stroke-width="1.1400000000000001" opacity="0.6" stroke-linecap="round"/>
<line x1="276.04437715018224" y1="230.19663284859254" x2="282.1243771501822" y2="239.31663284859255" stroke="#2a2118" stroke-width="1.1400000000000001" opacity="0.6" stroke-linecap="round"/>
<circle cx="233.84293165116955" cy="273.99557169638865" r="4.5600000000000005" fill="#2a2118" opacity="0.6"/>
<line x1="233.84293165116955" y1="278.5555716963887" x2="233.84293165116955" y2="295.2755716963887" stroke="#2a2118" stroke-width="1.52" opacity="0.6" stroke-linecap="round"/>
<line x1="233.84293165116955" y1="295.2755716963887" x2="229.28293165116955" y2="307.4355716963887" stroke="#2a2118" stroke-width="1.52" opacity="0.6" stroke-linecap="round"/>
<line x1="233.84293165116955" y1="295.2755716963887" x2="238.40293165116955" y2="307.4355716963887" stroke="#2a2118" stroke-width="1.52" opacity="0.6" stroke-linecap="round"/>
<line x1="233.84293165116955" y1="283.11557169638866" x2="227.76293165116954" y2="292.23557169638866" stroke="#2a2118" stroke-width="1.1400000000000001" opacity="0.6" stroke-linecap="round"/>
<line x1="233.84293165116955" y1="283.11557169638866" x2="239.92293165116956" y2="292.23557169638866" stroke="#2a2118" stroke-width="1.1400000000000001" opacity="0.6" stroke-linecap="round"/>
<circle cx="166.15706834883048" cy="273.99557169638865" r="4.5600000000000005" fill="#2a2118" opacity="0.6"/>
<line x1="166.15706834883048" y1="278.5555716963887" x2="166.15706834883048" y2="295.2755716963887" stroke="#2a2118" stroke-width="1.52" opacity="0.6" stroke-linecap="round"/>
<line x1="166.15706834883048" y1="295.2755716963887" x2="161.59706834883048" y2="307.4355716963887" stroke="#2a2118" stroke-width="1.52" opacity="0.6" stroke-linecap="round"/>
<line x1="166.15706834883048" y1="295.2755716963887" x2="170.71706834883048" y2="307.4355716963887" stroke="#2a2118" stroke-width="1.52" opacity="0.6" stroke-linecap="round"/>
<line x1="166.15706834883048" y1="283.11557169638866" x2="160.07706834883047" y2="292.23557169638866" stroke="#2a2118" stroke-width="1.1400000000000001" opacity="0.6" stroke-linecap="round"/>
<line x1="166.15706834883048" y1="283.11557169638866" x2="172.2370683488305" y2="292.23557169638866" stroke="#2a2118" stroke-width="1.1400000000000001" opacity="0.6" stroke-linecap="round"/>
<circle cx="123.95562284981774" cy="221.0766328485925" r="4.5600000000000005" fill="#2a2118" opacity="0.6"/>
<line x1="123.95562284981774" y1="225.6366328485925" x2="123.95562284981774" y2="242.3566328485925" stroke="#2a2118" stroke-width="1.52" opacity="0.6" stroke-linecap="round"/>
<line x1="123.95562284981774" y1="242.3566328485925" x2="119.39562284981774" y2="254.5166328485925" stroke="#2a2118" stroke-width="1.52" opacity="0.6" stroke-linecap="round"/>
<line x1="123.95562284981774" y1="242.3566328485925" x2="128.51562284981773" y2="254.5166328485925" stroke="#2a2118" stroke-width="1.52" opacity="0.6" stroke-linecap="round"/>
<line x1="123.95562284981774" y1="230.19663284859251" x2="117.87562284981774" y2="239.31663284859252" stroke="#2a2118" stroke-width="1.1400000000000001" opacity="0.6" stroke-linecap="round"/>
<line x1="123.95562284981774" y1="230.19663284859251" x2="130.03562284981774" y2="239.31663284859252" stroke="#2a2118" stroke-width="1.1400000000000001" opacity="0.6" stroke-linecap="round"/>
<circle cx="139.01714436749367" cy="155.08779545501878" r="4.5600000000000005" fill="#2a2118" opacity="0.6"/>
<line x1="139.01714436749367" y1="159.64779545501878" x2="139.01714436749367" y2="176.36779545501878" stroke="#2a2118" stroke-width="1.52" opacity="0.6" stroke-linecap="round"/>
<line x1="139.01714436749367" y1="176.36779545501878" x2="134.45714436749367" y2="188.52779545501878" stroke="#2a2118" stroke-width="1.52" opacity="0.6" stroke-linecap="round"/>
<line x1="139.01714436749367" y1="176.36779545501878" x2="143.57714436749367" y2="188.52779545501878" stroke="#2a2118" stroke-width="1.52" opacity="0.6" stroke-linecap="round"/>
<line x1="139.01714436749367" y1="164.20779545501878" x2="132.93714436749366" y2="173.3277954550188" stroke="#2a2118" stroke-width="1.1400000000000001" opacity="0.6" stroke-linecap="round"/>
<line x1="139.01714436749367" y1="164.20779545501878" x2="145.09714436749368" y2="173.3277954550188" stroke="#2a2118" stroke-width="1.1400000000000001" opacity="0.6" stroke-linecap="round"/>
<path d="M200.0,147.0 Q227.75120395395902,167.37403120896127 260.9828556325063,176.36779545501878" fill="none" stroke="#2a2118" stroke-width="0.7" opacity="0.15"/>
<path d="M260.9828556325063,176.36779545501878 Q262.3563892631494,210.76756106415414 276.04437715018224,242.35663284859254" fill="none" stroke="#2a2118" stroke-width="0.7" opacity="0.15"/>
<path d="M276.04437715018224,242.35663284859254 Q250.00594161865519,264.8784077268846 233.84293165116955,295.2755716963887" fill="none" stroke="#2a2118" stroke-width="0.7" opacity="0.15"/>
<path d="M233.84293165116955,295.2755716963887 Q200.0,288.96 166.15706834883048,295.2755716963887" fill="none" stroke="#2a2118" stroke-width="0.7" opacity="0.15"/>
<path d="M166.15706834883048,295.2755716963887 Q149.99405838134481,264.8784077268846 123.95562284981774,242.3566328485925" fill="none" stroke="#2a2118" stroke-width="0.7" opacity="0.15"/>
<path d="M123.95562284981774,242.3566328485925 Q137.64361073685058,210.76756106415414 139.01714436749367,176.36779545501878" fill="none" stroke="#2a2118" stroke-width="0.7" opacity="0.15"/>
<path d="M139.01714436749367,176.36779545501878 Q227.75120395395902,282.6259687910387 200.0,147.0" fill="none" stroke="#2a2118" stroke-width="0.7" opacity="0.15"/>
<circle cx="155.0" cy="140.0" rx="5.2" ry="3.9000000000000004" fill="#2a2118" opacity="0.35" transform="rotate(-20,155.0,140.0)"/>
<line x1="159.55" y1="140.0" x2="159.55" y2="119.2" stroke="#2a2118" stroke-width="1.3" opacity="0.35"/>
<circle cx="178.4" cy="129.6" rx="5.2" ry="3.9000000000000004" fill="#2a2118" opacity="0.35" transform="rotate(-20,178.4,129.6)"/>
<line x1="182.95000000000002" y1="129.6" x2="182.95000000000002" y2="108.8" stroke="#2a2118" stroke-width="1.3" opacity="0.35"/>
<circle cx="201.8" cy="140.0" rx="5.2" ry="3.9000000000000004" fill="#2a2118" opacity="0.35" transform="rotate(-20,201.8,140.0)"/>
<line x1="206.35000000000002" y1="140.0" x2="206.35000000000002" y2="119.2" stroke="#2a2118" stroke-width="1.3" opacity="0.35"/>
<circle cx="225.2" cy="129.6" rx="5.2" ry="3.9000000000000004" fill="#2a2118" opacity="0.35" transform="rotate(-20,225.2,129.6)"/>
<line x1="229.75" y1="129.6" x2="229.75" y2="108.8" stroke="#2a2118" stroke-width="1.3" opacity="0.35"/>
</svg>