<svg xmlns="http://www.w3.org/2000/svg" viewBox="0 0 400 400" width="400" height="400">
<rect width="400" height="400" fill="#faf6f0"/>
<rect x="20" y="20" width="360" height="360" rx="4" fill="none" stroke="#2a2118" stroke-width="0.5" opacity="0.12"/>
<circle cx="200" cy="174.6" r="10.8" fill="#2a2118" opacity="0.6"/>
<line x1="200" y1="185.4" x2="200" y2="225" stroke="#2a2118" stroke-width="3.6" opacity="0.6" stroke-linecap="round"/>
<line x1="200" y1="225" x2="189.2" y2="253.8" stroke="#2a2118" stroke-width="3.6" opacity="0.6" stroke-linecap="round"/>
<line x1="200" y1="225" x2="210.8" y2="253.8" stroke="#2a2118" stroke-width="3.6" opacity="0.6" stroke-linecap="round"/>
<line x1="200" y1="196.2" x2="185.6" y2="214.2" stroke="#2a2118" stroke-width="2.7" opacity="0.6" stroke-linecap="round"/>
<line x1="200" y1="196.2" x2="221.6" y2="185.4" stroke="#2a2118" stroke-width="2.7" opacity="0.6" stroke-linecap="round"/>
<circle cx="200.0" cy="125.96" r="4.08" fill="#2a2118" opacity="0.6"/>
<line x1="200.0" y1="130.04" x2="200.0" y2="145.0" stroke="#2a2118" stroke-width="1.36" opacity="0.6" stroke-linecap="round"/>
<line x1="200.0" y1="145.0" x2="195.92" y2="155.88" stroke="#2a2118" stroke-width="1.36" opacity="0.6" stroke-linecap="round"/>
<line x1="200.0" y1="145.0" x2="204.08" y2="155.88" stroke="#2a2118" stroke-width="1.36" opacity="0.6" stroke-linecap="round"/>
<line x1="200.0" y1="134.12" x2="194.56" y2="142.28" stroke="#2a2118" stroke-width="1.02" opacity="0.6" stroke-linecap="round"/>
<line x1="200.0" y1="134.12" x2="205.44" y2="142.28" stroke="#2a2118" stroke-width="1.02" opacity="0.6" stroke-linecap="round"/>
<circle cx="269.2820323027551" cy="165.96" r="4.08" fill="#2a2118" opacity="0.6"/>
<line x1="269.2820323027551" y1="170.04" x2="269.2820323027551" y2="185.0" stroke="#2a2118" stroke-width="1.36" opacity="0.6" stroke-linecap="round"/>
<line x1="269.2820323027551" y1="185.0" x2="265.20203230275513" y2="195.88" stroke="#2a2118" stroke-width="1.36" opacity="0.6" stroke-linecap="round"/>
<line x1="269.2820323027551" y1="185.0" x2="273.3620323027551" y2="195.88" stroke="#2a2118" stroke-width="1.36" opacity="0.6" stroke-linecap="round"/>
<line x1="269.2820323027551" y1="174.12" x2="263.8420323027551" y2="182.28" stroke="#2a2118" stroke-width="1.02" opacity="0.6" stroke-linecap="round"/>
<line x1="269.2820323027551" y1="174.12" x2="274.7220323027551" y2="182.28" stroke="#2a2118" stroke-width="1.02" opacity="0.6" stroke-linecap="round"/>
<circle cx="269.2820323027551" cy="245.96" r="4.08" fill="#2a2118" opacity="0.6"/>
<line x1="269.2820323027551" y1="250.04" x2="269.2820323027551" y2="265.0" stroke="#2a2118" stroke-width="1.36" opacity="0.6" stroke-linecap="round"/>
<line x1="269.2820323027551" y1="265.0" x2="265.20203230275513" y2="275.88" stroke="#2a2118" stroke-width="1.36" opacity="0.6" stroke-linecap="round"/>
<line x1="269.2820323027551" y1="265.0" x2="273.3620323027551" y2="275.88" stroke="#2a2118" stroke-width="1.36" opacity="0.6" stroke-linecap="round"/>
<line x1="269.2820323027551" y1="254.12" x2="263.8420323027551" y2="262.28" stroke="#2a2118" stroke-width="1.02" opacity="0.6" stroke-linecap="round"/>
<line x1="269.2820323027551" y1="254.12" x2="274.7220323027551" y2="262.28" stroke="#2a2118" stroke-width="1.02" opacity="0.6" stroke-linecap="round"/>
<circle cx="200.0" cy="285.96" r="4.08" fill="#2a2118" opacity="0.6"/>
<line x1="200.0" y1="290.04" x2="200.0" y2="305.0" stroke="#2a2118" stroke-width="1.36" opacity="0.6" stroke-linecap="round"/>
<line x1="200.0" y1="305.0" x2="195.92" y2="315.88" stroke="#2a2118" stroke-width="1.36" opacity="0.6" stroke-linecap="round"/>
<line x1="200.0" y1="305.0" x2="204.08" y2="315.88" stroke="#2a2118" stroke-width="1.36" opacity="0.6" stroke-linecap="round"/>
<line x1="200.0" y1="294.12" x2="194.56" y2="302.28" stroke="#2a2118" stroke-width="1.02" opacity="0.6" stroke-linecap="round"/>
<line x1="200.0" y1="294.12" x2="205.44" y2="302.28" stroke="#2a2118" stroke-width="1.02" opacity="0.6" stroke-linecap="round"/>
<circle cx="130.7179676972449" cy="245.96" r="4.08" fill="#2a2118" opacity="0.6"/>
<line x1="130.7179676972449" y1="250.04" x2="130.7179676972449" y2="265.0" stroke="#2a2118" stroke-width="1.36" opacity="0.6" stroke-linecap="round"/>
<line x1="130.7179676972449" y1="265.0" x2="126.63796769724489" y2="275.88" stroke="#2a2118" stroke-width="1.36" opacity="0.6" stroke-linecap="round"/>
<line x1="130.7179676972449" y1="265.0" x2="134.7979676972449" y2="275.88" stroke="#2a2118" stroke-width="1.36" opacity="0.6" stroke-linecap="round"/>
<line x1="130.7179676972449" y1="254.12" x2="125.27796769724489" y2="262.28" stroke="#2a2118" stroke-width="1.02" opacity="0.6" stroke-linecap="round"/>
<line x1="130.7179676972449" y1="254.12" x2="136.15796769724489" y2="262.28" stroke="#2a2118" stroke-width="1.02" opacity="0.6" stroke-linecap="round"/>
<circle cx="130.71796769724492" cy="165.96" r="4.08" fill="#2a2118" opacity="0.6"/>
<line x1="130.71796769724492" y1="170.04" x2="130.71796769724492" y2="185.0" stroke="#2a2118" stroke-width="1.36" opacity="0.6" stroke-linecap="round"/>
<line x1="130.71796769724492" y1="185.0" x2="126.63796769724492" y2="195.88" stroke="#2a2118" stroke-width="1.36" opacity="0.6" stroke-linecap="round"/>
<line x1="130.71796769724492" y1="185.0" x2="134.79796769724493" y2="195.88" stroke="#2a2118" stroke-width="1.36" opacity="0.6" stroke-linecap="round"/>
<line x1="130.71796769724492" y1="174.12" x2="125.27796769724492" y2="182.28" stroke="#2a2118" stroke-width="1.02" opacity="0.6" stroke-linecap="round"/>
<line x1="130.71796769724492" y1="174.12" x2="136.1579676972449" y2="182.28" stroke="#2a2118" stroke-width="1.02" opacity="0.6" stroke-linecap="round"/>
<ellipse cx="200" cy="160" rx="16.0" ry="10.0" fill="#f5f0e6" stroke="#2a2118" stroke-width="0.8" opacity="0.5"/>
<text x="200" y="164.0" text-anchor="middle" font-family="Georgia, serif" font-size="11.0" fill="#2a2118" opacity="0.6">?</text>
</svg>