<svg xmlns="http://www.w3.org/2000/svg" viewBox="0 0 400 400" width="400" height="400">
<rect width="400" height="400" fill="#faf6f0"/>
<rect x="20" y="20" width="360" height="360" rx="4" fill="none" stroke="#2a2118" stroke-width="0.5" opacity="0.12"/>
<path d="M200,220 L155.0,225.0 L155.0,170.0 L200,175.0" fill="#f5f0e6" stroke="#2a2118" stroke-width="1.5" opacity="0.5"/>
<path d="M200,220 L245.0,225.0 L245.0,170.0 L200,175.0" fill="#f5f0e6" stroke="#2a2118" stroke-width="1.5" opacity="0.5"/>
<line x1="200" y1="220" x2="200" y2="175.0" stroke="#2a2118" stroke-width="2.0" opacity="0.4"/>
<line x1="250" y1="200" x2="280.0" y2="155.0" stroke="#2a2118" stroke-width="2.25" opacity="0.5" stroke-linecap="round"/>
<path d="M280.0,155.0 Q292.0,143.0 274.0,137.0 Q277.0,149.0 280.0,155.0" fill="#2a2118" opacity="0.4"/>
<circle cx="120" cy="238.0" r="5.5" fill="#2a2118" opacity="0.55"/>
<line x1="120" y1="243.5" x2="120" y2="260" stroke="#2a2118" stroke-width="2.2" opacity="0.55" stroke-linecap="round"/>
<line x1="120" y1="249.0" x2="131.0" y2="253.4" stroke="#2a2118" stroke-width="1.6500000000000001" opacity="0.55" stroke-linecap="round"/>
<line x1="120" y1="249.0" x2="109.0" y2="253.4" stroke="#2a2118" stroke-width="1.6500000000000001" opacity="0.55" stroke-linecap="round"/>
<line x1="120" y1="260" x2="126.6" y2="271.0" stroke="#2a2118" stroke-width="2.2" opacity="0.55" stroke-linecap="round"/>
<line x1="126.6" y1="271.0" x2="126.6" y2="279.8" stroke="#2a2118" stroke-width="2.2" opacity="0.55" stroke-linecap="round"/>
<circle cx="280" cy="238.0" r="5.5" fill="#2a2118" opacity="0.55"/>
<line x1="280" y1="243.5" x2="280" y2="260" stroke="#2a2118" stroke-width="2.2" opacity="0.55" stroke-linecap="round"/>
<line x1="280" y1="249.0" x2="291.0" y2="253.4" stroke="#2a2118" stroke-width="1.6500000000000001" opacity="0.55" stroke-linecap="round"/>
<line x1="280" y1="249.0" x2="269.0" y2="253.4" stroke="#2a2118" stroke-width="1.6500000000000001" opacity="0.55" stroke-linecap="round"/>
<line x1="280" y1="260" x2="286.6" y2="271.0" stroke="#2a2118" stroke-width="2.2" opacity="0.55" stroke-linecap="round"/>
<line x1="286.6" y1="271.0" x2="286.6" y2="279.8" stroke="#2a2118" stroke-width="2.2" opacity="0.55" stroke-linecap="round"/>
</svg>