<svg xmlns="http://www.w3.org/2000/svg" viewBox="0 0 400 400" width="400" height="400">
<rect width="400" height="400" fill="#faf6f0"/>
<rect x="20" y="20" width="360" height="360" rx="4" fill="none" stroke="#2a2118" stroke-width="0.5" opacity="0.12"/>
<circle cx="140" cy="176.8" r="11.399999999999999" fill="#2a2118" opacity="0.6"/>
<line x1="140" y1="188.2" x2="140" y2="230" stroke="#2a2118" stroke-width="3.8" opacity="0.6" stroke-linecap="round"/>
<line x1="140" y1="230" x2="128.6" y2="260.4" stroke="#2a2118" stroke-width="3.8" opacity="0.6" stroke-linecap="round"/>
<line x1="140" y1="230" x2="151.4" y2="260.4" stroke="#2a2118" stroke-width="3.8" opacity="0.6" stroke-linecap="round"/>
<line x1="140" y1="199.6" x2="113.4" y2="211.0" stroke="#2a2118" stroke-width="2.8499999999999996" opacity="0.6" stroke-linecap="round"/>
<line x1="140" y1="199.6" x2="166.6" y2="211.0" stroke="#2a2118" stroke-width="2.8499999999999996" opacity="0.6" stroke-linecap="round"/>
<circle cx="270" cy="187.4" r="10.2" fill="#2a2118" opacity="0.6"/>
<line x1="270" y1="197.6" x2="270" y2="235" stroke="#2a2118" stroke-width="3.4" opacity="0.6" stroke-linecap="round"/>
<line x1="270" y1="235" x2="259.8" y2="262.2" stroke="#2a2118" stroke-width="3.4" opacity="0.6" stroke-linecap="round"/>
<line x1="270" y1="235" x2="280.2" y2="262.2" stroke="#2a2118" stroke-width="3.4" opacity="0.6" stroke-linecap="round"/>
<line x1="270" y1="207.8" x2="249.6" y2="214.6" stroke="#2a2118" stroke-width="2.55" opacity="0.6" stroke-linecap="round"/>
<line x1="270" y1="207.8" x2="290.4" y2="201.0" stroke="#2a2118" stroke-width="2.55" opacity="0.6" stroke-linecap="round"/>
<circle cx="320" cy="226.4" r="7.199999999999999" fill="#2a2118" opacity="0.6"/>
<line x1="320" y1="233.6" x2="320" y2="260" stroke="#2a2118" stroke-width="2.4" opacity="0.6" stroke-linecap="round"/>
<line x1="320" y1="260" x2="312.8" y2="279.2" stroke="#2a2118" stroke-width="2.4" opacity="0.6" stroke-linecap="round"/>
<line x1="320" y1="260" x2="327.2" y2="279.2" stroke="#2a2118" stroke-width="2.4" opacity="0.6" stroke-linecap="round"/>
<line x1="320" y1="240.8" x2="305.6" y2="245.6" stroke="#2a2118" stroke-width="1.7999999999999998" opacity="0.6" stroke-linecap="round"/>
<line x1="320" y1="240.8" x2="334.4" y2="236.0" stroke="#2a2118" stroke-width="1.7999999999999998" opacity="0.6" stroke-linecap="round"/>
<line x1="60" y1="305" x2="340" y2="305" stroke="#2a2118" stroke-width="0.5" opacity="0.15"/>
</svg>