<svg xmlns="http://www.w3.org/2000/svg" viewBox="0 0 400 400" width="400" height="400">
<rect width="400" height="400" fill="#faf6f0"/>
<rect x="20" y="20" width="360" height="360" rx="4" fill="none" stroke="#2a2118" stroke-width="0.5" opacity="0.12"/>
<circle cx="165" cy="194.6" r="10.8" fill="#2a2118" opacity="0.6"/>
<line x1="165" y1="205.4" x2="165" y2="245" stroke="#2a2118" stroke-width="3.6" opacity="0.6" stroke-linecap="round"/>
<line x1="165" y1="245" x2="154.2" y2="273.8" stroke="#2a2118" stroke-width="3.6" opacity="0.6" stroke-linecap="round"/>
<line x1="165" y1="245" x2="175.8" y2="273.8" stroke="#2a2118" stroke-width="3.6" opacity="0.6" stroke-linecap="round"/>
<line x1="165" y1="216.2" x2="139.8" y2="227.0" stroke="#2a2118" stroke-width="2.7" opacity="0.6" stroke-linecap="round"/>
<line x1="165" y1="216.2" x2="190.2" y2="227.0" stroke="#2a2118" stroke-width="2.7" opacity="0.6" stroke-linecap="round"/>
<circle cx="235" cy="194.6" r="10.8" fill="#2a2118" opacity="0.6"/>
<line x1="235" y1="205.4" x2="235" y2="245" stroke="#2a2118" stroke-width="3.6" opacity="0.6" stroke-linecap="round"/>
<line x1="235" y1="245" x2="224.2" y2="273.8" stroke="#2a2118" stroke-width="3.6" opacity="0.6" stroke-linecap="round"/>
<line x1="235" y1="245" x2="245.8" y2="273.8" stroke="#2a2118" stroke-width="3.6" opacity="0.6" stroke-linecap="round"/>
<line x1="235" y1="216.2" x2="209.8" y2="227.0" stroke="#2a2118" stroke-width="2.7" opacity="0.6" stroke-linecap="round"/>
<line x1="235" y1="216.2" x2="260.2" y2="227.0" stroke="#2a2118" stroke-width="2.7" opacity="0.6" stroke-linecap="round"/>
<path d="M140,215 L180,210 L220,215 L260,210" fill="none" stroke="#2a2118" stroke-width="1" opacity="0.35"/>
<path d="M145,220 L190,225 L210,218 L255,222" fill="none" stroke="#2a2118" stroke-width="1" opacity="0.3"/>
</svg>