<svg xmlns="http://www.w3.org/2000/svg" viewBox="0 0 400 400" width="400" height="400">
  <rect width="400" height="400" fill="#faf6f0"/>
  <rect x="40" y="40" width="320" height="320" fill="#f5f0e6" stroke="#1a1a1a" stroke-width="1.5"/>
  <rect x="80" y="40" width="40" height="40" fill="#d4c5a9"/>
  <rect x="160" y="40" width="40" height="40" fill="#d4c5a9"/>
  <rect x="240" y="40" width="40" height="40" fill="#d4c5a9"/>
  <rect x="320" y="40" width="40" height="40" fill="#d4c5a9"/>
  <rect x="40" y="80" width="40" height="40" fill="#d4c5a9"/>
  <rect x="120" y="80" width="40" height="40" fill="#d4c5a9"/>
  <rect x="200" y="80" width="40" height="40" fill="#d4c5a9"/>
  <rect x="280" y="80" width="40" height="40" fill="#d4c5a9"/>
  <rect x="80" y="120" width="40" height="40" fill="#d4c5a9"/>
  <rect x="160" y="120" width="40" height="40" fill="#d4c5a9"/>
  <rect x="240" y="120" width="40" height="40" fill="#d4c5a9"/>
  <rect x="320" y="120" width="40" height="40" fill="#d4c5a9"/>
  <rect x="40" y="160" width="40" height="40" fill="#d4c5a9"/>
  <rect x="120" y="160" width="40" height="40" fill="#d4c5a9"/>
  <rect x="200" y="160" width="40" height="40" fill="#d4c5a9"/>
  <rect x="280" y="160" width="40" height="40" fill="#d4c5a9"/>
  <rect x="80" y="200" width="40" height="40" fill="#d4c5a9"/>
  <rect x="160" y="200" width="40" height="40" fill="#d4c5a9"/>
  <rect x="240" y="200" width="40" height="40" fill="#d4c5a9"/>
  <rect x="320" y="200" width="40" height="40" fill="#d4c5a9"/>
  <rect x="40" y="240" width="40" height="40" fill="#d4c5a9"/>
  <rect x="120" y="240" width="40" height="40" fill="#d4c5a9"/>
  <rect x="200" y="240" width="40" height="40" fill="#d4c5a9"/>
  <rect x="280" y="240" width="40" height="40" fill="#d4c5a9"/>
  <rect x="80" y="280" width="40" height="40" fill="#d4c5a9"/>
  <rect x="160" y="280" width="40" height="40" fill="#d4c5a9"/>
  <rect x="240" y="280" width="40" height="40" fill="#d4c5a9"/>
  <rect x="320" y="280" width="40" height="40" fill="#d4c5a9"/>
  <rect x="40" y="320" width="40" height="40" fill="#d4c5a9"/>
  <rect x="120" y="320" width="40" height="40" fill="#d4c5a9"/>
  <rect x="200" y="320" width="40" height="40" fill="#d4c5a9"/>
  <rect x="280" y="320" width="40" height="40" fill="#d4c5a9"/>
  <line x1="40" y1="80" x2="360" y2="80" stroke="#1a1a1a" stroke-width="0.5" opacity="0.3"/>
  <line x1="80" y1="40" x2="80" y2="360" stroke="#1a1a1a" stroke-width="0.5" opacity="0.3"/>
  <line x1="40" y1="120" x2="360" y2="120" stroke="#1a1a1a" stroke-width="0.5" opacity="0.3"/>
  <line x1="120" y1="40" x2="120" y2="360" stroke="#1a1a1a" stroke-width="0.5" opacity="0.3"/>
  <line x1="40" y1="160" x2="360" y2="160" stroke="#1a1a1a" stroke-width="0.5" opacity="0.3"/>
  <line x1="160" y1="40" x2="160" y2="360" stroke="#1a1a1a" stroke-width="0.5" opacity="0.3"/>
  <line x1="40" y1="200" x2="360" y2="200" stroke="#1a1a1a" stroke-width="0.5" opacity="0.3"/>
  <line x1="200" y1="40" x2="200" y2="360" stroke="#1a1a1a" stroke-width="0.5" opacity="0.3"/>
  <line x1="40" y1="240" x2="360" y2="240" stroke="#1a1a1a" stroke-width="0.5" opacity="0.3"/>
  <line x1="240" y1="40" x2="240" y2="360" stroke="#1a1a1a" stroke-width="0.5" opacity="0.3"/>
  <line x1="40" y1="280" x2="360" y2="280" stroke="#1a1a1a" stroke-width="0.5" opacity="0.3"/>
  <line x1="280" y1="40" x2="280" y2="360" stroke="#1a1a1a" stroke-width="0.5" opacity="0.3"/>
  <line x1="40" y1="320" x2="360" y2="320" stroke="#1a1a1a" stroke-width="0.5" opacity="0.3"/>
  <line x1="320" y1="40" x2="320" y2="360" stroke="#1a1a1a" stroke-width="0.5" opacity="0.3"/>
  <rect x="40" y="40" width="320" height="320" fill="none" stroke="#1a1a1a" stroke-width="1.5"/>
  <circle cx="60" cy="60" r="11" fill="#1a1a1a" opacity="0.75"/>
  <circle cx="60" cy="59" r="7" fill="#faf6f0" opacity="0.2"/>
  <circle cx="220" cy="140" r="11" fill="#1a1a1a" opacity="0.75"/>
  <circle cx="220" cy="139" r="7" fill="#faf6f0" opacity="0.2"/>
  <circle cx="100" cy="220" r="11" fill="#1a1a1a" opacity="0.75"/>
  <circle cx="100" cy="219" r="7" fill="#faf6f0" opacity="0.2"/>
  <circle cx="260" cy="300" r="11" fill="#1a1a1a" opacity="0.75"/>
  <circle cx="260" cy="299" r="7" fill="#faf6f0" opacity="0.2"/>
</svg>