<svg xmlns="http://www.w3.org/2000/svg" viewBox="0 0 400 400" width="400" height="400">
<rect width="400" height="400" fill="#faf6f0"/>
<rect x="20" y="20" width="360" height="360" rx="4" fill="none" stroke="#2a2118" stroke-width="0.5" opacity="0.12"/>
<circle cx="200.0" cy="117.84" r="4.32" fill="#2a2118" opacity="0.6"/>
<line x1="200.0" y1="122.16" x2="200.0" y2="138.0" stroke="#2a2118" stroke-width="1.4400000000000002" opacity="0.6" stroke-linecap="round"/>
<line x1="200.0" y1="138.0" x2="195.68" y2="149.52" stroke="#2a2118" stroke-width="1.4400000000000002" opacity="0.6" stroke-linecap="round"/>
<line x1="200.0" y1="138.0" x2="204.32" y2="149.52" stroke="#2a2118" stroke-width="1.4400000000000002" opacity="0.6" stroke-linecap="round"/>
<line x1="200.0" y1="126.48" x2="194.24" y2="135.12" stroke="#2a2118" stroke-width="1.08" opacity="0.6" stroke-linecap="round"/>
<line x1="200.0" y1="126.48" x2="205.76" y2="135.12" stroke="#2a2118" stroke-width="1.08" opacity="0.6" stroke-linecap="round"/>
<circle cx="252.70858399429622" cy="137.0243556642438" r="4.32" fill="#2a2118" opacity="0.6"/>
<line x1="252.70858399429622" y1="141.3443556642438" x2="252.70858399429622" y2="157.1843556642438" stroke="#2a2118" stroke-width="1.4400000000000002" opacity="0.6" stroke-linecap="round"/>
<line x1="252.70858399429622" y1="157.1843556642438" x2="248.38858399429623" y2="168.70435566424382" stroke="#2a2118" stroke-width="1.4400000000000002" opacity="0.6" stroke-linecap="round"/>
<line x1="252.70858399429622" y1="157.1843556642438" x2="257.02858399429624" y2="168.70435566424382" stroke="#2a2118" stroke-width="1.4400000000000002" opacity="0.6" stroke-linecap="round"/>
<line x1="252.70858399429622" y1="145.6643556642438" x2="246.94858399429623" y2="154.30435566424381" stroke="#2a2118" stroke-width="1.08" opacity="0.6" stroke-linecap="round"/>
<line x1="252.70858399429622" y1="145.6643556642438" x2="258.46858399429624" y2="154.30435566424381" stroke="#2a2118" stroke-width="1.08" opacity="0.6" stroke-linecap="round"/>
<circle cx="280.7542357470011" cy="185.60084943131173" r="4.32" fill="#2a2118" opacity="0.6"/>
<line x1="280.7542357470011" y1="189.92084943131172" x2="280.7542357470011" y2="205.76084943131173" stroke="#2a2118" stroke-width="1.4400000000000002" opacity="0.6" stroke-linecap="round"/>
<line x1="280.7542357470011" y1="205.76084943131173" x2="276.4342357470011" y2="217.28084943131174" stroke="#2a2118" stroke-width="1.4400000000000002" opacity="0.6" stroke-linecap="round"/>
<line x1="280.7542357470011" y1="205.76084943131173" x2="285.07423574700107" y2="217.28084943131174" stroke="#2a2118" stroke-width="1.4400000000000002" opacity="0.6" stroke-linecap="round"/>
<line x1="280.7542357470011" y1="194.24084943131172" x2="274.9942357470011" y2="202.88084943131173" stroke="#2a2118" stroke-width="1.08" opacity="0.6" stroke-linecap="round"/>
<line x1="280.7542357470011" y1="194.24084943131172" x2="286.51423574700107" y2="202.88084943131173" stroke="#2a2118" stroke-width="1.08" opacity="0.6" stroke-linecap="round"/>
<circle cx="271.014083110324" cy="240.84" r="4.32" fill="#2a2118" opacity="0.6"/>
<line x1="271.014083110324" y1="245.16" x2="271.014083110324" y2="261.0" stroke="#2a2118" stroke-width="1.4400000000000002" opacity="0.6" stroke-linecap="round"/>
<line x1="271.014083110324" y1="261.0" x2="266.694083110324" y2="272.52" stroke="#2a2118" stroke-width="1.4400000000000002" opacity="0.6" stroke-linecap="round"/>
<line x1="271.014083110324" y1="261.0" x2="275.334083110324" y2="272.52" stroke="#2a2118" stroke-width="1.4400000000000002" opacity="0.6" stroke-linecap="round"/>
<line x1="271.014083110324" y1="249.48" x2="265.254083110324" y2="258.12" stroke="#2a2118" stroke-width="1.08" opacity="0.6" stroke-linecap="round"/>
<line x1="271.014083110324" y1="249.48" x2="276.774083110324" y2="258.12" stroke="#2a2118" stroke-width="1.08" opacity="0.6" stroke-linecap="round"/>
<circle cx="228.04565175270483" cy="276.89479490444444" r="4.32" fill="#2a2118" opacity="0.6"/>
<line x1="228.04565175270483" y1="281.2147949044445" x2="228.04565175270483" y2="297.05479490444446" stroke="#2a2118" stroke-width="1.4400000000000002" opacity="0.6" stroke-linecap="round"/>
<line x1="228.04565175270483" y1="297.05479490444446" x2="223.72565175270483" y2="308.57479490444445" stroke="#2a2118" stroke-width="1.4400000000000002" opacity="0.6" stroke-linecap="round"/>
<line x1="228.04565175270483" y1="297.05479490444446" x2="232.36565175270482" y2="308.57479490444445" stroke="#2a2118" stroke-width="1.4400000000000002" opacity="0.6" stroke-linecap="round"/>
<line x1="228.04565175270483" y1="285.5347949044445" x2="222.28565175270484" y2="294.17479490444447" stroke="#2a2118" stroke-width="1.08" opacity="0.6" stroke-linecap="round"/>
<line x1="228.04565175270483" y1="285.5347949044445" x2="233.80565175270482" y2="294.17479490444447" stroke="#2a2118" stroke-width="1.08" opacity="0.6" stroke-linecap="round"/>
<circle cx="171.95434824729517" cy="276.8947949044445" r="4.32" fill="#2a2118" opacity="0.6"/>
<line x1="171.95434824729517" y1="281.21479490444455" x2="171.95434824729517" y2="297.0547949044445" stroke="#2a2118" stroke-width="1.4400000000000002" opacity="0.6" stroke-linecap="round"/>
<line x1="171.95434824729517" y1="297.0547949044445" x2="167.63434824729518" y2="308.5747949044445" stroke="#2a2118" stroke-width="1.4400000000000002" opacity="0.6" stroke-linecap="round"/>
<line x1="171.95434824729517" y1="297.0547949044445" x2="176.27434824729517" y2="308.5747949044445" stroke="#2a2118" stroke-width="1.4400000000000002" opacity="0.6" stroke-linecap="round"/>
<line x1="171.95434824729517" y1="285.53479490444454" x2="166.19434824729518" y2="294.1747949044445" stroke="#2a2118" stroke-width="1.08" opacity="0.6" stroke-linecap="round"/>
<line x1="171.95434824729517" y1="285.53479490444454" x2="177.71434824729516" y2="294.1747949044445" stroke="#2a2118" stroke-width="1.08" opacity="0.6" stroke-linecap="round"/>
<circle cx="128.98591688967602" cy="240.84" r="4.32" fill="#2a2118" opacity="0.6"/>
<line x1="128.98591688967602" y1="245.16" x2="128.98591688967602" y2="261.0" stroke="#2a2118" stroke-width="1.4400000000000002" opacity="0.6" stroke-linecap="round"/>
<line x1="128.98591688967602" y1="261.0" x2="124.66591688967603" y2="272.52" stroke="#2a2118" stroke-width="1.4400000000000002" opacity="0.6" stroke-linecap="round"/>
<line x1="128.98591688967602" y1="261.0" x2="133.305916889676" y2="272.52" stroke="#2a2118" stroke-width="1.4400000000000002" opacity="0.6" stroke-linecap="round"/>
<line x1="128.98591688967602" y1="249.48" x2="123.22591688967601" y2="258.12" stroke="#2a2118" stroke-width="1.08" opacity="0.6" stroke-linecap="round"/>
<line x1="128.98591688967602" y1="249.48" x2="134.745916889676" y2="258.12" stroke="#2a2118" stroke-width="1.08" opacity="0.6" stroke-linecap="round"/>
<circle cx="119.24576425299894" cy="185.6008494313117" r="4.32" fill="#2a2118" opacity="0.6"/>
<line x1="119.24576425299894" y1="189.9208494313117" x2="119.24576425299894" y2="205.7608494313117" stroke="#2a2118" stroke-width="1.4400000000000002" opacity="0.6" stroke-linecap="round"/>
<line x1="119.24576425299894" y1="205.7608494313117" x2="114.92576425299893" y2="217.2808494313117" stroke="#2a2118" stroke-width="1.4400000000000002" opacity="0.6" stroke-linecap="round"/>
<line x1="119.24576425299894" y1="205.7608494313117" x2="123.56576425299895" y2="217.2808494313117" stroke="#2a2118" stroke-width="1.4400000000000002" opacity="0.6" stroke-linecap="round"/>
<line x1="119.24576425299894" y1="194.2408494313117" x2="113.48576425299893" y2="202.8808494313117" stroke="#2a2118" stroke-width="1.08" opacity="0.6" stroke-linecap="round"/>
<line x1="119.24576425299894" y1="194.2408494313117" x2="125.00576425299894" y2="202.8808494313117" stroke="#2a2118" stroke-width="1.08" opacity="0.6" stroke-linecap="round"/>
<circle cx="147.29141600570375" cy="137.0243556642438" r="4.32" fill="#2a2118" opacity="0.6"/>
<line x1="147.29141600570375" y1="141.3443556642438" x2="147.29141600570375" y2="157.1843556642438" stroke="#2a2118" stroke-width="1.4400000000000002" opacity="0.6" stroke-linecap="round"/>
<line x1="147.29141600570375" y1="157.1843556642438" x2="142.97141600570376" y2="168.70435566424382" stroke="#2a2118" stroke-width="1.4400000000000002" opacity="0.6" stroke-linecap="round"/>
<line x1="147.29141600570375" y1="157.1843556642438" x2="151.61141600570375" y2="168.70435566424382" stroke="#2a2118" stroke-width="1.4400000000000002" opacity="0.6" stroke-linecap="round"/>
<line x1="147.29141600570375" y1="145.6643556642438" x2="141.53141600570376" y2="154.30435566424381" stroke="#2a2118" stroke-width="1.08" opacity="0.6" stroke-linecap="round"/>
<line x1="147.29141600570375" y1="145.6643556642438" x2="153.05141600570374" y2="154.30435566424381" stroke="#2a2118" stroke-width="1.08" opacity="0.6" stroke-linecap="round"/>
<path d="M200.0,138.0 Q222.99743443721798,156.81506817835555 252.70858399429622,157.1843556642438" fill="none" stroke="#2a2118" stroke-width="0.7" opacity="0.15"/>
<path d="M252.70858399429622,157.1843556642438 Q258.23154815046564,186.38 280.7542357470011,205.76084943131173" fill="none" stroke="#2a2118" stroke-width="0.7" opacity="0.15"/>
<path d="M280.7542357470011,205.76084943131173 Q266.2184733125409,231.67610346632438 271.014083110324,261.0" fill="none" stroke="#2a2118" stroke-width="0.7" opacity="0.15"/>
<path d="M271.014083110324,261.0 Q243.2210388753229,271.5088283553201 228.04565175270483,297.05479490444446" fill="none" stroke="#2a2118" stroke-width="0.7" opacity="0.15"/>
<path d="M228.04565175270483,297.05479490444446 Q200.0,287.24 171.95434824729517,297.0547949044445" fill="none" stroke="#2a2118" stroke-width="0.7" opacity="0.15"/>
<path d="M171.95434824729517,297.0547949044445 Q156.7789611246771,271.5088283553201 128.98591688967602,261.0" fill="none" stroke="#2a2118" stroke-width="0.7" opacity="0.15"/>
<path d="M128.98591688967602,261.0 Q133.78152668745912,231.67610346632438 119.24576425299894,205.7608494313117" fill="none" stroke="#2a2118" stroke-width="0.7" opacity="0.15"/>
<path d="M119.24576425299894,205.7608494313117 Q141.76845184953436,186.38 147.29141600570375,157.1843556642438" fill="none" stroke="#2a2118" stroke-width="0.7" opacity="0.15"/>
<path d="M147.29141600570375,157.1843556642438 Q222.99743443721798,283.18493182164445 200.0,138.0" fill="none" stroke="#2a2118" stroke-width="0.7" opacity="0.15"/>
</svg>