<svg xmlns="http://www.w3.org/2000/svg" viewBox="0 0 400 400" width="400" height="400">
<rect width="400" height="400" fill="#faf6f0"/>
<rect x="20" y="20" width="360" height="360" rx="4" fill="none" stroke="#2a2118" stroke-width="0.5" opacity="0.12"/>
<circle cx="200.0" cy="122.6" r="4.800000000000001" fill="#2a2118" opacity="0.6"/>
<line x1="200.0" y1="127.4" x2="200.0" y2="145.0" stroke="#2a2118" stroke-width="1.6" opacity="0.6" stroke-linecap="round"/>
<line x1="200.0" y1="145.0" x2="195.2" y2="157.8" stroke="#2a2118" stroke-width="1.6" opacity="0.6" stroke-linecap="round"/>
<line x1="200.0" y1="145.0" x2="204.8" y2="157.8" stroke="#2a2118" stroke-width="1.6" opacity="0.6" stroke-linecap="round"/>
<line x1="200.0" y1="132.2" x2="193.6" y2="141.8" stroke="#2a2118" stroke-width="1.2000000000000002" opacity="0.6" stroke-linecap="round"/>
<line x1="200.0" y1="132.2" x2="206.4" y2="141.8" stroke="#2a2118" stroke-width="1.2000000000000002" opacity="0.6" stroke-linecap="round"/>
<circle cx="264.9519052838329" cy="160.1" r="4.800000000000001" fill="#2a2118" opacity="0.6"/>
<line x1="264.9519052838329" y1="164.9" x2="264.9519052838329" y2="182.5" stroke="#2a2118" stroke-width="1.6" opacity="0.6" stroke-linecap="round"/>
<line x1="264.9519052838329" y1="182.5" x2="260.1519052838329" y2="195.3" stroke="#2a2118" stroke-width="1.6" opacity="0.6" stroke-linecap="round"/>
<line x1="264.9519052838329" y1="182.5" x2="269.7519052838329" y2="195.3" stroke="#2a2118" stroke-width="1.6" opacity="0.6" stroke-linecap="round"/>
<line x1="264.9519052838329" y1="169.7" x2="258.5519052838329" y2="179.3" stroke="#2a2118" stroke-width="1.2000000000000002" opacity="0.6" stroke-linecap="round"/>
<line x1="264.9519052838329" y1="169.7" x2="271.3519052838329" y2="179.3" stroke="#2a2118" stroke-width="1.2000000000000002" opacity="0.6" stroke-linecap="round"/>
<circle cx="264.9519052838329" cy="235.1" r="4.800000000000001" fill="#2a2118" opacity="0.6"/>
<line x1="264.9519052838329" y1="239.9" x2="264.9519052838329" y2="257.5" stroke="#2a2118" stroke-width="1.6" opacity="0.6" stroke-linecap="round"/>
<line x1="264.9519052838329" y1="257.5" x2="260.1519052838329" y2="270.3" stroke="#2a2118" stroke-width="1.6" opacity="0.6" stroke-linecap="round"/>
<line x1="264.9519052838329" y1="257.5" x2="269.7519052838329" y2="270.3" stroke="#2a2118" stroke-width="1.6" opacity="0.6" stroke-linecap="round"/>
<line x1="264.9519052838329" y1="244.7" x2="258.5519052838329" y2="254.3" stroke="#2a2118" stroke-width="1.2000000000000002" opacity="0.6" stroke-linecap="round"/>
<line x1="264.9519052838329" y1="244.7" x2="271.3519052838329" y2="254.3" stroke="#2a2118" stroke-width="1.2000000000000002" opacity="0.6" stroke-linecap="round"/>
<circle cx="200.0" cy="272.6" r="4.800000000000001" fill="#2a2118" opacity="0.6"/>
<line x1="200.0" y1="277.4" x2="200.0" y2="295.0" stroke="#2a2118" stroke-width="1.6" opacity="0.6" stroke-linecap="round"/>
<line x1="200.0" y1="295.0" x2="195.2" y2="307.8" stroke="#2a2118" stroke-width="1.6" opacity="0.6" stroke-linecap="round"/>
<line x1="200.0" y1="295.0" x2="204.8" y2="307.8" stroke="#2a2118" stroke-width="1.6" opacity="0.6" stroke-linecap="round"/>
<line x1="200.0" y1="282.2" x2="193.6" y2="291.8" stroke="#2a2118" stroke-width="1.2000000000000002" opacity="0.6" stroke-linecap="round"/>
<line x1="200.0" y1="282.2" x2="206.4" y2="291.8" stroke="#2a2118" stroke-width="1.2000000000000002" opacity="0.6" stroke-linecap="round"/>
<circle cx="135.0480947161671" cy="235.1" r="4.800000000000001" fill="#2a2118" opacity="0.6"/>
<line x1="135.0480947161671" y1="239.9" x2="135.0480947161671" y2="257.5" stroke="#2a2118" stroke-width="1.6" opacity="0.6" stroke-linecap="round"/>
<line x1="135.0480947161671" y1="257.5" x2="130.2480947161671" y2="270.3" stroke="#2a2118" stroke-width="1.6" opacity="0.6" stroke-linecap="round"/>
<line x1="135.0480947161671" y1="257.5" x2="139.8480947161671" y2="270.3" stroke="#2a2118" stroke-width="1.6" opacity="0.6" stroke-linecap="round"/>
<line x1="135.0480947161671" y1="244.7" x2="128.6480947161671" y2="254.3" stroke="#2a2118" stroke-width="1.2000000000000002" opacity="0.6" stroke-linecap="round"/>
<line x1="135.0480947161671" y1="244.7" x2="141.4480947161671" y2="254.3" stroke="#2a2118" stroke-width="1.2000000000000002" opacity="0.6" stroke-linecap="round"/>
<circle cx="135.0480947161671" cy="160.1" r="4.800000000000001" fill="#2a2118" opacity="0.6"/>
<line x1="135.0480947161671" y1="164.9" x2="135.0480947161671" y2="182.5" stroke="#2a2118" stroke-width="1.6" opacity="0.6" stroke-linecap="round"/>
<line x1="135.0480947161671" y1="182.5" x2="130.2480947161671" y2="195.3" stroke="#2a2118" stroke-width="1.6" opacity="0.6" stroke-linecap="round"/>
<line x1="135.0480947161671" y1="182.5" x2="139.8480947161671" y2="195.3" stroke="#2a2118" stroke-width="1.6" opacity="0.6" stroke-linecap="round"/>
<line x1="135.0480947161671" y1="169.7" x2="128.6480947161671" y2="179.3" stroke="#2a2118" stroke-width="1.2000000000000002" opacity="0.6" stroke-linecap="round"/>
<line x1="135.0480947161671" y1="169.7" x2="141.4480947161671" y2="179.3" stroke="#2a2118" stroke-width="1.2000000000000002" opacity="0.6" stroke-linecap="round"/>
<circle cx="170.0" cy="150.0" rx="4.8" ry="3.5999999999999996" fill="#2a2118" opacity="0.35" transform="rotate(-20,170.0,150.0)"/>
<line x1="174.2" y1="150.0" x2="174.2" y2="130.8" stroke="#2a2118" stroke-width="1.2" opacity="0.35"/>
<circle cx="191.6" cy="140.4" rx="4.8" ry="3.5999999999999996" fill="#2a2118" opacity="0.35" transform="rotate(-20,191.6,140.4)"/>
<line x1="195.79999999999998" y1="140.4" x2="195.79999999999998" y2="121.2" stroke="#2a2118" stroke-width="1.2" opacity="0.35"/>
<circle cx="213.2" cy="150.0" rx="4.8" ry="3.5999999999999996" fill="#2a2118" opacity="0.35" transform="rotate(-20,213.2,150.0)"/>
<line x1="217.39999999999998" y1="150.0" x2="217.39999999999998" y2="130.8" stroke="#2a2118" stroke-width="1.2" opacity="0.35"/>
<circle cx="234.8" cy="140.4" rx="4.8" ry="3.5999999999999996" fill="#2a2118" opacity="0.35" transform="rotate(-20,234.8,140.4)"/>
<line x1="239.0" y1="140.4" x2="239.0" y2="121.2" stroke="#2a2118" stroke-width="1.2" opacity="0.35"/>
</svg>