<svg xmlns="http://www.w3.org/2000/svg" viewBox="0 0 400 400" width="400" height="400">
<rect width="400" height="400" fill="#faf6f0"/>
<rect x="20" y="20" width="360" height="360" rx="4" fill="none" stroke="#2a2118" stroke-width="0.5" opacity="0.12"/>
<circle cx="200" cy="164.0" r="12.0" fill="#2a2118" opacity="0.6"/>
<rect x="186.0" y="144.0" width="28.0" height="12.0" rx="2.0" fill="#2a2118" opacity="0.45"/>
<rect x="180.0" y="156.0" width="40.0" height="4.0" rx="2.0" fill="#2a2118" opacity="0.4"/>
<line x1="200" y1="176.0" x2="200" y2="220" stroke="#2a2118" stroke-width="4.0" opacity="0.6" stroke-linecap="round"/>
<line x1="200" y1="220" x2="188.0" y2="252.0" stroke="#2a2118" stroke-width="4.0" opacity="0.6" stroke-linecap="round"/>
<line x1="200" y1="220" x2="212.0" y2="252.0" stroke="#2a2118" stroke-width="4.0" opacity="0.6" stroke-linecap="round"/>
<line x1="200" y1="188.0" x2="184.0" y2="208.0" stroke="#2a2118" stroke-width="3.0" opacity="0.6" stroke-linecap="round"/>
<line x1="200" y1="188.0" x2="224.0" y2="176.0" stroke="#2a2118" stroke-width="3.0" opacity="0.6" stroke-linecap="round"/>
<rect x="188.0" y="253.2" width="24.0" height="33.6" rx="2.4" fill="#8b4513" opacity="0.25" stroke="#2a2118" stroke-width="0.72"/>
<line x1="190.4" y1="255.6" x2="209.6" y2="255.6" stroke="#2a2118" stroke-width="0.48" opacity="0.2"/>
<circle cx="80" cy="264.8" r="5.4" fill="#2a2118" opacity="0.6"/>
<line x1="80" y1="270.2" x2="80" y2="290" stroke="#2a2118" stroke-width="1.8" opacity="0.6" stroke-linecap="round"/>
<line x1="80" y1="290" x2="74.6" y2="304.4" stroke="#2a2118" stroke-width="1.8" opacity="0.6" stroke-linecap="round"/>
<line x1="80" y1="290" x2="85.4" y2="304.4" stroke="#2a2118" stroke-width="1.8" opacity="0.6" stroke-linecap="round"/>
<line x1="80" y1="275.6" x2="72.8" y2="286.4" stroke="#2a2118" stroke-width="1.35" opacity="0.6" stroke-linecap="round"/>
<line x1="80" y1="275.6" x2="87.2" y2="286.4" stroke="#2a2118" stroke-width="1.35" opacity="0.6" stroke-linecap="round"/>
<circle cx="160" cy="264.8" r="5.4" fill="#2a2118" opacity="0.6"/>
<line x1="160" y1="270.2" x2="160" y2="290" stroke="#2a2118" stroke-width="1.8" opacity="0.6" stroke-linecap="round"/>
<line x1="160" y1="290" x2="154.6" y2="304.4" stroke="#2a2118" stroke-width="1.8" opacity="0.6" stroke-linecap="round"/>
<line x1="160" y1="290" x2="165.4" y2="304.4" stroke="#2a2118" stroke-width="1.8" opacity="0.6" stroke-linecap="round"/>
<line x1="160" y1="275.6" x2="152.8" y2="286.4" stroke="#2a2118" stroke-width="1.35" opacity="0.6" stroke-linecap="round"/>
<line x1="160" y1="275.6" x2="167.2" y2="286.4" stroke="#2a2118" stroke-width="1.35" opacity="0.6" stroke-linecap="round"/>
<circle cx="240" cy="264.8" r="5.4" fill="#2a2118" opacity="0.6"/>
<line x1="240" y1="270.2" x2="240" y2="290" stroke="#2a2118" stroke-width="1.8" opacity="0.6" stroke-linecap="round"/>
<line x1="240" y1="290" x2="234.6" y2="304.4" stroke="#2a2118" stroke-width="1.8" opacity="0.6" stroke-linecap="round"/>
<line x1="240" y1="290" x2="245.4" y2="304.4" stroke="#2a2118" stroke-width="1.8" opacity="0.6" stroke-linecap="round"/>
<line x1="240" y1="275.6" x2="232.8" y2="286.4" stroke="#2a2118" stroke-width="1.35" opacity="0.6" stroke-linecap="round"/>
<line x1="240" y1="275.6" x2="247.2" y2="286.4" stroke="#2a2118" stroke-width="1.35" opacity="0.6" stroke-linecap="round"/>
<circle cx="320" cy="264.8" r="5.4" fill="#2a2118" opacity="0.6"/>
<line x1="320" y1="270.2" x2="320" y2="290" stroke="#2a2118" stroke-width="1.8" opacity="0.6" stroke-linecap="round"/>
<line x1="320" y1="290" x2="314.6" y2="304.4" stroke="#2a2118" stroke-width="1.8" opacity="0.6" stroke-linecap="round"/>
<line x1="320" y1="290" x2="325.4" y2="304.4" stroke="#2a2118" stroke-width="1.8" opacity="0.6" stroke-linecap="round"/>
<line x1="320" y1="275.6" x2="312.8" y2="286.4" stroke="#2a2118" stroke-width="1.35" opacity="0.6" stroke-linecap="round"/>
<line x1="320" y1="275.6" x2="327.2" y2="286.4" stroke="#2a2118" stroke-width="1.35" opacity="0.6" stroke-linecap="round"/>
<ellipse cx="200" cy="160" rx="20.8" ry="13.0" fill="#f5f0e6" stroke="#2a2118" stroke-width="1.04" opacity="0.5"/>
<text x="200" y="165.2" text-anchor="middle" font-family="Georgia, serif" font-size="14.3" fill="#2a2118" opacity="0.6">?!</text>
</svg>