<svg xmlns="http://www.w3.org/2000/svg" viewBox="0 0 400 400" width="400" height="400">
<rect width="400" height="400" fill="#faf6f0"/>
<rect x="20" y="20" width="360" height="360" rx="4" fill="none" stroke="#2a2118" stroke-width="0.5" opacity="0.12"/>
<circle cx="200" cy="164.0" r="12.0" fill="#2a2118" opacity="0.6"/>
<line x1="200" y1="176.0" x2="200" y2="220" stroke="#2a2118" stroke-width="4.0" opacity="0.6" stroke-linecap="round"/>
<line x1="200" y1="220" x2="188.0" y2="252.0" stroke="#2a2118" stroke-width="4.0" opacity="0.6" stroke-linecap="round"/>
<line x1="200" y1="220" x2="212.0" y2="252.0" stroke="#2a2118" stroke-width="4.0" opacity="0.6" stroke-linecap="round"/>
<line x1="200" y1="188.0" x2="180.0" y2="164.0" stroke="#2a2118" stroke-width="3.0" opacity="0.6" stroke-linecap="round"/>
<line x1="200" y1="188.0" x2="220.0" y2="164.0" stroke="#2a2118" stroke-width="3.0" opacity="0.6" stroke-linecap="round"/>
<circle cx="100" cy="239.2" r="6.6000000000000005" fill="#2a2118" opacity="0.6"/>
<line x1="100" y1="245.8" x2="100" y2="270" stroke="#2a2118" stroke-width="2.2" opacity="0.6" stroke-linecap="round"/>
<line x1="100" y1="270" x2="93.4" y2="287.6" stroke="#2a2118" stroke-width="2.2" opacity="0.6" stroke-linecap="round"/>
<line x1="100" y1="270" x2="106.6" y2="287.6" stroke="#2a2118" stroke-width="2.2" opacity="0.6" stroke-linecap="round"/>
<line x1="100" y1="252.4" x2="104.4" y2="245.8" stroke="#2a2118" stroke-width="1.6500000000000001" opacity="0.6" stroke-linecap="round"/>
<line x1="100" y1="252.4" x2="95.6" y2="245.8" stroke="#2a2118" stroke-width="1.6500000000000001" opacity="0.6" stroke-linecap="round"/>
<circle cx="300" cy="239.2" r="6.6000000000000005" fill="#2a2118" opacity="0.6"/>
<line x1="300" y1="245.8" x2="300" y2="270" stroke="#2a2118" stroke-width="2.2" opacity="0.6" stroke-linecap="round"/>
<line x1="300" y1="270" x2="293.4" y2="287.6" stroke="#2a2118" stroke-width="2.2" opacity="0.6" stroke-linecap="round"/>
<line x1="300" y1="270" x2="306.6" y2="287.6" stroke="#2a2118" stroke-width="2.2" opacity="0.6" stroke-linecap="round"/>
<line x1="300" y1="252.4" x2="304.4" y2="245.8" stroke="#2a2118" stroke-width="1.6500000000000001" opacity="0.6" stroke-linecap="round"/>
<line x1="300" y1="252.4" x2="295.6" y2="245.8" stroke="#2a2118" stroke-width="1.6500000000000001" opacity="0.6" stroke-linecap="round"/>
<ellipse cx="200" cy="160" rx="19.2" ry="12.0" fill="#f5f0e6" stroke="#2a2118" stroke-width="0.96" opacity="0.5"/>
<text x="200" y="164.8" text-anchor="middle" font-family="Georgia, serif" font-size="13.2" fill="#2a2118" opacity="0.6">⚡</text>
</svg>