<svg xmlns="http://www.w3.org/2000/svg" viewBox="0 0 400 400" width="400" height="400">
<rect width="400" height="400" fill="#faf6f0"/>
<rect x="20" y="20" width="360" height="360" rx="4" fill="none" stroke="#2a2118" stroke-width="0.5" opacity="0.12"/>
<circle cx="140" cy="210.2" r="9.600000000000001" fill="#2a2118" opacity="0.6"/>
<line x1="140" y1="219.8" x2="140" y2="255" stroke="#2a2118" stroke-width="3.2" opacity="0.6" stroke-linecap="round"/>
<line x1="140" y1="255" x2="130.4" y2="280.6" stroke="#2a2118" stroke-width="3.2" opacity="0.6" stroke-linecap="round"/>
<line x1="140" y1="255" x2="149.6" y2="280.6" stroke="#2a2118" stroke-width="3.2" opacity="0.6" stroke-linecap="round"/>
<line x1="140" y1="229.4" x2="127.2" y2="248.6" stroke="#2a2118" stroke-width="2.4000000000000004" opacity="0.6" stroke-linecap="round"/>
<line x1="140" y1="229.4" x2="152.8" y2="248.6" stroke="#2a2118" stroke-width="2.4000000000000004" opacity="0.6" stroke-linecap="round"/>
<circle cx="260" cy="210.2" r="9.600000000000001" fill="#2a2118" opacity="0.6"/>
<line x1="260" y1="219.8" x2="260" y2="255" stroke="#2a2118" stroke-width="3.2" opacity="0.6" stroke-linecap="round"/>
<line x1="260" y1="255" x2="250.4" y2="280.6" stroke="#2a2118" stroke-width="3.2" opacity="0.6" stroke-linecap="round"/>
<line x1="260" y1="255" x2="269.6" y2="280.6" stroke="#2a2118" stroke-width="3.2" opacity="0.6" stroke-linecap="round"/>
<line x1="260" y1="229.4" x2="247.2" y2="248.6" stroke="#2a2118" stroke-width="2.4000000000000004" opacity="0.6" stroke-linecap="round"/>
<line x1="260" y1="229.4" x2="272.8" y2="248.6" stroke="#2a2118" stroke-width="2.4000000000000004" opacity="0.6" stroke-linecap="round"/>
<ellipse cx="140" cy="185" rx="19.2" ry="12.0" fill="#f5f0e6" stroke="#2a2118" stroke-width="0.96" opacity="0.5"/>
<text x="140" y="189.8" text-anchor="middle" font-family="Georgia, serif" font-size="13.2" fill="#2a2118" opacity="0.6">A?</text>
<ellipse cx="260" cy="190" rx="19.2" ry="12.0" fill="#f5f0e6" stroke="#2a2118" stroke-width="0.96" opacity="0.5"/>
<text x="260" y="194.8" text-anchor="middle" font-family="Georgia, serif" font-size="13.2" fill="#2a2118" opacity="0.6">B!</text>
<line x1="165" y1="310" x2="175" y2="310" stroke="#2a2118" stroke-width="2" opacity="0.25"/>
<line x1="183" y1="310" x2="193" y2="310" stroke="#2a2118" stroke-width="2" opacity="0.25"/>
<line x1="201" y1="310" x2="211" y2="310" stroke="#2a2118" stroke-width="2" opacity="0.25"/>
<line x1="219" y1="310" x2="229" y2="310" stroke="#2a2118" stroke-width="2" opacity="0.25"/>
</svg>