<svg xmlns="http://www.w3.org/2000/svg" viewBox="0 0 400 400" width="400" height="400">
<rect width="400" height="400" fill="#faf6f0"/>
<rect x="20" y="20" width="360" height="360" rx="4" fill="none" stroke="#2a2118" stroke-width="0.5" opacity="0.12"/>
<circle cx="170" cy="194.0" r="12.0" fill="#2a2118" opacity="0.6"/>
<line x1="170" y1="206.0" x2="170" y2="250" stroke="#2a2118" stroke-width="4.0" opacity="0.6" stroke-linecap="round"/>
<line x1="170" y1="250" x2="158.0" y2="282.0" stroke="#2a2118" stroke-width="4.0" opacity="0.6" stroke-linecap="round"/>
<line x1="170" y1="250" x2="182.0" y2="282.0" stroke="#2a2118" stroke-width="4.0" opacity="0.6" stroke-linecap="round"/>
<line x1="170" y1="218.0" x2="154.0" y2="238.0" stroke="#2a2118" stroke-width="3.0" opacity="0.6" stroke-linecap="round"/>
<line x1="170" y1="218.0" x2="194.0" y2="206.0" stroke="#2a2118" stroke-width="3.0" opacity="0.6" stroke-linecap="round"/>
<ellipse cx="260" cy="235" rx="19.599999999999998" ry="5.6" fill="#2a2118" opacity="0.6"/>
<rect x="247.4" y="204.2" width="25.2" height="30.799999999999997" rx="2.8" fill="#2a2118" opacity="0.5"/>
<ellipse cx="260" cy="204.2" rx="12.6" ry="4.199999999999999" fill="#2a2118" opacity="0.35"/>
<line x1="230" y1="215" x2="259.4894735944037" y2="194.35124829136234" stroke="#2a2118" stroke-width="3.0" stroke-linecap="round" opacity="0.6"/>
<line x1="255.55754378181655" y1="197.10441518584736" x2="259.4894735944037" y2="194.35124829136234" stroke="#f5f0e6" stroke-width="3.0" stroke-linecap="round" opacity="0.8"/>
<path d="M281.2503681783595,217.69401899225545 L282.1503681783595,219.79401899225545 L284.2503681783595,220.69401899225545 L282.1503681783595,221.59401899225546 L281.2503681783595,223.69401899225545 L280.35036817835953,221.59401899225546 L278.2503681783595,220.69401899225545 L280.35036817835953,219.79401899225545Z" fill="#8b4513" opacity="0.3"/>
<path d="M261.15139103734475,233.9698497646006 L262.05139103734473,236.0698497646006 L264.15139103734475,236.9698497646006 L262.05139103734473,237.86984976460062 L261.15139103734475,239.9698497646006 L260.2513910373448,237.86984976460062 L258.15139103734475,236.9698497646006 L260.2513910373448,236.0698497646006Z" fill="#8b4513" opacity="0.3"/>
<path d="M239.46123061706157,219.88409488999662 L240.36123061706158,221.9840948899966 L242.46123061706157,222.88409488999662 L240.36123061706158,223.78409488999662 L239.46123061706157,225.88409488999662 L238.56123061706157,223.78409488999662 L236.46123061706157,222.88409488999662 L238.56123061706157,221.9840948899966Z" fill="#8b4513" opacity="0.3"/>
<path d="M246.15495139690356,194.90278884794665 L247.05495139690356,197.00278884794665 L249.15495139690356,197.90278884794665 L247.05495139690356,198.80278884794666 L246.15495139690356,200.90278884794665 L245.25495139690355,198.80278884794666 L243.15495139690356,197.90278884794665 L245.25495139690355,197.00278884794665Z" fill="#8b4513" opacity="0.3"/>
<path d="M271.9820587703306,193.54924750520067 L272.88205877033056,195.64924750520066 L274.9820587703306,196.54924750520067 L272.88205877033056,197.44924750520067 L271.9820587703306,199.54924750520067 L271.0820587703306,197.44924750520067 L268.9820587703306,196.54924750520067 L271.0820587703306,195.64924750520066Z" fill="#8b4513" opacity="0.3"/>
</svg>