<svg xmlns="http://www.w3.org/2000/svg" viewBox="0 0 400 400" width="400" height="400">
<rect width="400" height="400" fill="#faf6f0"/>
<rect x="20" y="20" width="360" height="360" rx="4" fill="none" stroke="#2a2118" stroke-width="0.5" opacity="0.12"/>
<circle cx="200.0" cy="117.84" r="4.32" fill="#2a2118" opacity="0.6"/>
<line x1="200.0" y1="122.16" x2="200.0" y2="138.0" stroke="#2a2118" stroke-width="1.4400000000000002" opacity="0.6" stroke-linecap="round"/>
<line x1="200.0" y1="138.0" x2="195.68" y2="149.52" stroke="#2a2118" stroke-width="1.4400000000000002" opacity="0.6" stroke-linecap="round"/>
<line x1="200.0" y1="138.0" x2="204.32" y2="149.52" stroke="#2a2118" stroke-width="1.4400000000000002" opacity="0.6" stroke-linecap="round"/>
<line x1="200.0" y1="126.48" x2="194.24" y2="135.12" stroke="#2a2118" stroke-width="1.08" opacity="0.6" stroke-linecap="round"/>
<line x1="200.0" y1="126.48" x2="205.76" y2="135.12" stroke="#2a2118" stroke-width="1.08" opacity="0.6" stroke-linecap="round"/>
<circle cx="264.11018156237844" cy="148.71383624758386" r="4.32" fill="#2a2118" opacity="0.6"/>
<line x1="264.11018156237844" y1="153.03383624758385" x2="264.11018156237844" y2="168.87383624758385" stroke="#2a2118" stroke-width="1.4400000000000002" opacity="0.6" stroke-linecap="round"/>
<line x1="264.11018156237844" y1="168.87383624758385" x2="259.79018156237845" y2="180.39383624758386" stroke="#2a2118" stroke-width="1.4400000000000002" opacity="0.6" stroke-linecap="round"/>
<line x1="264.11018156237844" y1="168.87383624758385" x2="268.43018156237844" y2="180.39383624758386" stroke="#2a2118" stroke-width="1.4400000000000002" opacity="0.6" stroke-linecap="round"/>
<line x1="264.11018156237844" y1="157.35383624758384" x2="258.35018156237845" y2="165.99383624758386" stroke="#2a2118" stroke-width="1.08" opacity="0.6" stroke-linecap="round"/>
<line x1="264.11018156237844" y1="157.35383624758384" x2="269.87018156237843" y2="165.99383624758386" stroke="#2a2118" stroke-width="1.08" opacity="0.6" stroke-linecap="round"/>
<circle cx="279.94408879890955" cy="218.0867165844178" r="4.32" fill="#2a2118" opacity="0.6"/>
<line x1="279.94408879890955" y1="222.40671658441778" x2="279.94408879890955" y2="238.24671658441778" stroke="#2a2118" stroke-width="1.4400000000000002" opacity="0.6" stroke-linecap="round"/>
<line x1="279.94408879890955" y1="238.24671658441778" x2="275.62408879890955" y2="249.7667165844178" stroke="#2a2118" stroke-width="1.4400000000000002" opacity="0.6" stroke-linecap="round"/>
<line x1="279.94408879890955" y1="238.24671658441778" x2="284.26408879890954" y2="249.7667165844178" stroke="#2a2118" stroke-width="1.4400000000000002" opacity="0.6" stroke-linecap="round"/>
<line x1="279.94408879890955" y1="226.72671658441777" x2="274.18408879890956" y2="235.3667165844178" stroke="#2a2118" stroke-width="1.08" opacity="0.6" stroke-linecap="round"/>
<line x1="279.94408879890955" y1="226.72671658441777" x2="285.70408879890954" y2="235.3667165844178" stroke="#2a2118" stroke-width="1.08" opacity="0.6" stroke-linecap="round"/>
<circle cx="235.57846660763977" cy="273.71944716799834" r="4.32" fill="#2a2118" opacity="0.6"/>
<line x1="235.57846660763977" y1="278.0394471679984" x2="235.57846660763977" y2="293.87944716799836" stroke="#2a2118" stroke-width="1.4400000000000002" opacity="0.6" stroke-linecap="round"/>
<line x1="235.57846660763977" y1="293.87944716799836" x2="231.25846660763978" y2="305.39944716799835" stroke="#2a2118" stroke-width="1.4400000000000002" opacity="0.6" stroke-linecap="round"/>
<line x1="235.57846660763977" y1="293.87944716799836" x2="239.89846660763976" y2="305.39944716799835" stroke="#2a2118" stroke-width="1.4400000000000002" opacity="0.6" stroke-linecap="round"/>
<line x1="235.57846660763977" y1="282.3594471679984" x2="229.81846660763978" y2="290.99944716799837" stroke="#2a2118" stroke-width="1.08" opacity="0.6" stroke-linecap="round"/>
<line x1="235.57846660763977" y1="282.3594471679984" x2="241.33846660763976" y2="290.99944716799837" stroke="#2a2118" stroke-width="1.08" opacity="0.6" stroke-linecap="round"/>
<circle cx="164.42153339236023" cy="273.71944716799834" r="4.32" fill="#2a2118" opacity="0.6"/>
<line x1="164.42153339236023" y1="278.0394471679984" x2="164.42153339236023" y2="293.87944716799836" stroke="#2a2118" stroke-width="1.4400000000000002" opacity="0.6" stroke-linecap="round"/>
<line x1="164.42153339236023" y1="293.87944716799836" x2="160.10153339236024" y2="305.39944716799835" stroke="#2a2118" stroke-width="1.4400000000000002" opacity="0.6" stroke-linecap="round"/>
<line x1="164.42153339236023" y1="293.87944716799836" x2="168.74153339236022" y2="305.39944716799835" stroke="#2a2118" stroke-width="1.4400000000000002" opacity="0.6" stroke-linecap="round"/>
<line x1="164.42153339236023" y1="282.3594471679984" x2="158.66153339236024" y2="290.99944716799837" stroke="#2a2118" stroke-width="1.08" opacity="0.6" stroke-linecap="round"/>
<line x1="164.42153339236023" y1="282.3594471679984" x2="170.18153339236022" y2="290.99944716799837" stroke="#2a2118" stroke-width="1.08" opacity="0.6" stroke-linecap="round"/>
<circle cx="120.05591120109045" cy="218.08671658441776" r="4.32" fill="#2a2118" opacity="0.6"/>
<line x1="120.05591120109045" y1="222.40671658441775" x2="120.05591120109045" y2="238.24671658441775" stroke="#2a2118" stroke-width="1.4400000000000002" opacity="0.6" stroke-linecap="round"/>
<line x1="120.05591120109045" y1="238.24671658441775" x2="115.73591120109046" y2="249.76671658441776" stroke="#2a2118" stroke-width="1.4400000000000002" opacity="0.6" stroke-linecap="round"/>
<line x1="120.05591120109045" y1="238.24671658441775" x2="124.37591120109045" y2="249.76671658441776" stroke="#2a2118" stroke-width="1.4400000000000002" opacity="0.6" stroke-linecap="round"/>
<line x1="120.05591120109045" y1="226.72671658441774" x2="114.29591120109045" y2="235.36671658441776" stroke="#2a2118" stroke-width="1.08" opacity="0.6" stroke-linecap="round"/>
<line x1="120.05591120109045" y1="226.72671658441774" x2="125.81591120109046" y2="235.36671658441776" stroke="#2a2118" stroke-width="1.08" opacity="0.6" stroke-linecap="round"/>
<circle cx="135.88981843762156" cy="148.71383624758388" r="4.32" fill="#2a2118" opacity="0.6"/>
<line x1="135.88981843762156" y1="153.03383624758388" x2="135.88981843762156" y2="168.87383624758388" stroke="#2a2118" stroke-width="1.4400000000000002" opacity="0.6" stroke-linecap="round"/>
<line x1="135.88981843762156" y1="168.87383624758388" x2="131.56981843762156" y2="180.3938362475839" stroke="#2a2118" stroke-width="1.4400000000000002" opacity="0.6" stroke-linecap="round"/>
<line x1="135.88981843762156" y1="168.87383624758388" x2="140.20981843762155" y2="180.3938362475839" stroke="#2a2118" stroke-width="1.4400000000000002" opacity="0.6" stroke-linecap="round"/>
<line x1="135.88981843762156" y1="157.35383624758387" x2="130.12981843762157" y2="165.99383624758389" stroke="#2a2118" stroke-width="1.08" opacity="0.6" stroke-linecap="round"/>
<line x1="135.88981843762156" y1="157.35383624758387" x2="141.64981843762155" y2="165.99383624758389" stroke="#2a2118" stroke-width="1.08" opacity="0.6" stroke-linecap="round"/>
<path d="M200.0,138.0 Q229.1743426182646,159.41885332224135 264.11018156237844,168.87383624758385" fill="none" stroke="#2a2118" stroke-width="0.7" opacity="0.15"/>
<path d="M264.11018156237844,168.87383624758385 Q265.5541528151058,205.03769240077742 279.94408879890955,238.24671658441778" fill="none" stroke="#2a2118" stroke-width="0.7" opacity="0.15"/>
<path d="M279.94408879890955,238.24671658441778 Q252.57034888115032,261.92345427698126 235.57846660763977,293.87944716799836" fill="none" stroke="#2a2118" stroke-width="0.7" opacity="0.15"/>
<path d="M235.57846660763977,293.87944716799836 Q200.0,287.24 164.42153339236023,293.87944716799836" fill="none" stroke="#2a2118" stroke-width="0.7" opacity="0.15"/>
<path d="M164.42153339236023,293.87944716799836 Q147.42965111884968,261.92345427698126 120.05591120109045,238.24671658441775" fill="none" stroke="#2a2118" stroke-width="0.7" opacity="0.15"/>
<path d="M120.05591120109045,238.24671658441775 Q134.4458471848942,205.03769240077742 135.88981843762156,168.87383624758388" fill="none" stroke="#2a2118" stroke-width="0.7" opacity="0.15"/>
<path d="M135.88981843762156,168.87383624758388 Q229.1743426182646,280.5811466777587 200.0,138.0" fill="none" stroke="#2a2118" stroke-width="0.7" opacity="0.15"/>
</svg>