<svg xmlns="http://www.w3.org/2000/svg" viewBox="0 0 400 400" width="400" height="400">
<rect width="400" height="400" fill="#faf6f0"/>
<rect x="20" y="20" width="360" height="360" rx="4" fill="none" stroke="#2a2118" stroke-width="0.5" opacity="0.12"/>
<rect x="193.6" y="160.0" width="12.8" height="16.0" rx="1.6" fill="#e8ddd0" stroke="#2a2118" stroke-width="0.6400000000000001" opacity="0.4"/>
<rect x="193.6" y="152.0" width="12.8" height="11.200000000000001" rx="1.6" fill="#e8ddd0" stroke="#2a2118" stroke-width="0.6400000000000001" opacity="0.4"/>
<rect x="254.22177826491068" y="195.0" width="12.8" height="16.0" rx="1.6" fill="#e8ddd0" stroke="#2a2118" stroke-width="0.6400000000000001" opacity="0.4"/>
<rect x="254.22177826491068" y="187.0" width="12.8" height="11.200000000000001" rx="1.6" fill="#e8ddd0" stroke="#2a2118" stroke-width="0.6400000000000001" opacity="0.4"/>
<rect x="254.22177826491068" y="265.0" width="12.8" height="16.0" rx="1.6" fill="#e8ddd0" stroke="#2a2118" stroke-width="0.6400000000000001" opacity="0.4"/>
<rect x="254.22177826491068" y="257.0" width="12.8" height="11.200000000000001" rx="1.6" fill="#e8ddd0" stroke="#2a2118" stroke-width="0.6400000000000001" opacity="0.4"/>
<rect x="193.6" y="300.0" width="12.8" height="16.0" rx="1.6" fill="#e8ddd0" stroke="#2a2118" stroke-width="0.6400000000000001" opacity="0.4"/>
<rect x="193.6" y="292.0" width="12.8" height="11.200000000000001" rx="1.6" fill="#e8ddd0" stroke="#2a2118" stroke-width="0.6400000000000001" opacity="0.4"/>
<rect x="132.97822173508928" y="265.0" width="12.8" height="16.0" rx="1.6" fill="#e8ddd0" stroke="#2a2118" stroke-width="0.6400000000000001" opacity="0.4"/>
<rect x="132.97822173508928" y="257.0" width="12.8" height="11.200000000000001" rx="1.6" fill="#e8ddd0" stroke="#2a2118" stroke-width="0.6400000000000001" opacity="0.4"/>
<rect x="132.9782217350893" y="195.0" width="12.8" height="16.0" rx="1.6" fill="#e8ddd0" stroke="#2a2118" stroke-width="0.6400000000000001" opacity="0.4"/>
<rect x="132.9782217350893" y="187.0" width="12.8" height="11.200000000000001" rx="1.6" fill="#e8ddd0" stroke="#2a2118" stroke-width="0.6400000000000001" opacity="0.4"/>
<circle cx="245.0" cy="132.45771365940053" r="4.199999999999999" fill="#2a2118" opacity="0.6"/>
<line x1="245.0" y1="136.6577136594005" x2="245.0" y2="152.05771365940052" stroke="#2a2118" stroke-width="1.4" opacity="0.6" stroke-linecap="round"/>
<line x1="245.0" y1="152.05771365940052" x2="240.8" y2="163.2577136594005" stroke="#2a2118" stroke-width="1.4" opacity="0.6" stroke-linecap="round"/>
<line x1="245.0" y1="152.05771365940052" x2="249.2" y2="163.2577136594005" stroke="#2a2118" stroke-width="1.4" opacity="0.6" stroke-linecap="round"/>
<line x1="245.0" y1="140.85771365940053" x2="236.6" y2="143.6577136594005" stroke="#2a2118" stroke-width="1.0499999999999998" opacity="0.6" stroke-linecap="round"/>
<line x1="245.0" y1="140.85771365940053" x2="253.4" y2="138.05771365940052" stroke="#2a2118" stroke-width="1.0499999999999998" opacity="0.6" stroke-linecap="round"/>
<circle cx="290.0" cy="210.4" r="4.199999999999999" fill="#2a2118" opacity="0.6"/>
<line x1="290.0" y1="214.6" x2="290.0" y2="230.0" stroke="#2a2118" stroke-width="1.4" opacity="0.6" stroke-linecap="round"/>
<line x1="290.0" y1="230.0" x2="285.8" y2="241.2" stroke="#2a2118" stroke-width="1.4" opacity="0.6" stroke-linecap="round"/>
<line x1="290.0" y1="230.0" x2="294.2" y2="241.2" stroke="#2a2118" stroke-width="1.4" opacity="0.6" stroke-linecap="round"/>
<line x1="290.0" y1="218.8" x2="281.6" y2="221.6" stroke="#2a2118" stroke-width="1.0499999999999998" opacity="0.6" stroke-linecap="round"/>
<line x1="290.0" y1="218.8" x2="298.4" y2="216.0" stroke="#2a2118" stroke-width="1.0499999999999998" opacity="0.6" stroke-linecap="round"/>
<circle cx="245.0" cy="288.34228634059946" r="4.199999999999999" fill="#2a2118" opacity="0.6"/>
<line x1="245.0" y1="292.5422863405995" x2="245.0" y2="307.9422863405995" stroke="#2a2118" stroke-width="1.4" opacity="0.6" stroke-linecap="round"/>
<line x1="245.0" y1="307.9422863405995" x2="240.8" y2="319.14228634059947" stroke="#2a2118" stroke-width="1.4" opacity="0.6" stroke-linecap="round"/>
<line x1="245.0" y1="307.9422863405995" x2="249.2" y2="319.14228634059947" stroke="#2a2118" stroke-width="1.4" opacity="0.6" stroke-linecap="round"/>
<line x1="245.0" y1="296.7422863405995" x2="236.6" y2="299.5422863405995" stroke="#2a2118" stroke-width="1.0499999999999998" opacity="0.6" stroke-linecap="round"/>
<line x1="245.0" y1="296.7422863405995" x2="253.4" y2="293.9422863405995" stroke="#2a2118" stroke-width="1.0499999999999998" opacity="0.6" stroke-linecap="round"/>
<circle cx="155.00000000000003" cy="288.34228634059946" r="4.199999999999999" fill="#2a2118" opacity="0.6"/>
<line x1="155.00000000000003" y1="292.5422863405995" x2="155.00000000000003" y2="307.9422863405995" stroke="#2a2118" stroke-width="1.4" opacity="0.6" stroke-linecap="round"/>
<line x1="155.00000000000003" y1="307.9422863405995" x2="150.80000000000004" y2="319.14228634059947" stroke="#2a2118" stroke-width="1.4" opacity="0.6" stroke-linecap="round"/>
<line x1="155.00000000000003" y1="307.9422863405995" x2="159.20000000000002" y2="319.14228634059947" stroke="#2a2118" stroke-width="1.4" opacity="0.6" stroke-linecap="round"/>
<line x1="155.00000000000003" y1="296.7422863405995" x2="146.60000000000002" y2="299.5422863405995" stroke="#2a2118" stroke-width="1.0499999999999998" opacity="0.6" stroke-linecap="round"/>
<line x1="155.00000000000003" y1="296.7422863405995" x2="163.40000000000003" y2="293.9422863405995" stroke="#2a2118" stroke-width="1.0499999999999998" opacity="0.6" stroke-linecap="round"/>
<circle cx="110.0" cy="210.4" r="4.199999999999999" fill="#2a2118" opacity="0.6"/>
<line x1="110.0" y1="214.6" x2="110.0" y2="230.0" stroke="#2a2118" stroke-width="1.4" opacity="0.6" stroke-linecap="round"/>
<line x1="110.0" y1="230.0" x2="105.8" y2="241.2" stroke="#2a2118" stroke-width="1.4" opacity="0.6" stroke-linecap="round"/>
<line x1="110.0" y1="230.0" x2="114.2" y2="241.2" stroke="#2a2118" stroke-width="1.4" opacity="0.6" stroke-linecap="round"/>
<line x1="110.0" y1="218.8" x2="101.6" y2="221.6" stroke="#2a2118" stroke-width="1.0499999999999998" opacity="0.6" stroke-linecap="round"/>
<line x1="110.0" y1="218.8" x2="118.4" y2="216.0" stroke="#2a2118" stroke-width="1.0499999999999998" opacity="0.6" stroke-linecap="round"/>
</svg>