<svg xmlns="http://www.w3.org/2000/svg" viewBox="0 0 400 400" width="400" height="400">
<rect width="400" height="400" fill="#faf6f0"/>
<rect x="20" y="20" width="360" height="360" rx="4" fill="none" stroke="#2a2118" stroke-width="0.5" opacity="0.12"/>
<circle cx="130" cy="202.4" r="10.2" fill="#2a2118" opacity="0.6"/>
<line x1="130" y1="212.6" x2="130" y2="250" stroke="#2a2118" stroke-width="3.4" opacity="0.6" stroke-linecap="round"/>
<line x1="130" y1="250" x2="119.8" y2="277.2" stroke="#2a2118" stroke-width="3.4" opacity="0.6" stroke-linecap="round"/>
<line x1="130" y1="250" x2="140.2" y2="277.2" stroke="#2a2118" stroke-width="3.4" opacity="0.6" stroke-linecap="round"/>
<line x1="130" y1="222.8" x2="116.4" y2="239.8" stroke="#2a2118" stroke-width="2.55" opacity="0.6" stroke-linecap="round"/>
<line x1="130" y1="222.8" x2="150.4" y2="212.6" stroke="#2a2118" stroke-width="2.55" opacity="0.6" stroke-linecap="round"/>
<circle cx="280" cy="202.4" r="10.2" fill="#2a2118" opacity="0.6"/>
<line x1="280" y1="212.6" x2="280" y2="250" stroke="#2a2118" stroke-width="3.4" opacity="0.6" stroke-linecap="round"/>
<line x1="280" y1="250" x2="269.8" y2="277.2" stroke="#2a2118" stroke-width="3.4" opacity="0.6" stroke-linecap="round"/>
<line x1="280" y1="250" x2="290.2" y2="277.2" stroke="#2a2118" stroke-width="3.4" opacity="0.6" stroke-linecap="round"/>
<line x1="280" y1="222.8" x2="263.0" y2="202.4" stroke="#2a2118" stroke-width="2.55" opacity="0.6" stroke-linecap="round"/>
<line x1="280" y1="222.8" x2="297.0" y2="202.4" stroke="#2a2118" stroke-width="2.55" opacity="0.6" stroke-linecap="round"/>
<path d="M165,210 Q205,150 245,210" fill="none" stroke="#2a2118" stroke-width="0.5" stroke-dasharray="3,3" opacity="0.2"/>
<circle cx="205" cy="160" r="6" fill="#8b4513" opacity="0.5"/>
</svg>