<svg xmlns="http://www.w3.org/2000/svg" viewBox="0 0 400 400" width="400" height="400">
<rect width="400" height="400" fill="#faf6f0"/>
<rect x="20" y="20" width="360" height="360" rx="4" fill="none" stroke="#2a2118" stroke-width="0.5" opacity="0.12"/>
<circle cx="200" cy="174.0" r="12.0" fill="#2a2118" opacity="0.6"/>
<rect x="184.0" y="168.0" width="32.0" height="8.0" rx="2.0" fill="#8b4513" opacity="0.5"/>
<line x1="200" y1="186.0" x2="200" y2="230" stroke="#2a2118" stroke-width="4.0" opacity="0.6" stroke-linecap="round"/>
<line x1="200" y1="198.0" x2="164.0" y2="194.0" stroke="#2a2118" stroke-width="3.0" opacity="0.6" stroke-linecap="round"/>
<line x1="200" y1="198.0" x2="236.0" y2="202.0" stroke="#2a2118" stroke-width="3.0" opacity="0.6" stroke-linecap="round"/>
<line x1="200" y1="230" x2="190.0" y2="262.0" stroke="#2a2118" stroke-width="4.0" opacity="0.6" stroke-linecap="round"/>
<line x1="200" y1="230" x2="214.0" y2="262.0" stroke="#2a2118" stroke-width="4.0" opacity="0.6" stroke-linecap="round"/>
<circle cx="110" cy="234.2" r="6.6000000000000005" fill="#2a2118" opacity="0.6"/>
<line x1="110" y1="240.8" x2="110" y2="265" stroke="#2a2118" stroke-width="2.2" opacity="0.6" stroke-linecap="round"/>
<line x1="110" y1="265" x2="103.4" y2="282.6" stroke="#2a2118" stroke-width="2.2" opacity="0.6" stroke-linecap="round"/>
<line x1="110" y1="265" x2="116.6" y2="282.6" stroke="#2a2118" stroke-width="2.2" opacity="0.6" stroke-linecap="round"/>
<line x1="110" y1="247.4" x2="94.6" y2="254.0" stroke="#2a2118" stroke-width="1.6500000000000001" opacity="0.6" stroke-linecap="round"/>
<line x1="110" y1="247.4" x2="125.4" y2="254.0" stroke="#2a2118" stroke-width="1.6500000000000001" opacity="0.6" stroke-linecap="round"/>
<circle cx="290" cy="221.4" r="7.199999999999999" fill="#2a2118" opacity="0.6"/>
<line x1="290" y1="228.6" x2="290" y2="255" stroke="#2a2118" stroke-width="2.4" opacity="0.6" stroke-linecap="round"/>
<line x1="290" y1="255" x2="282.8" y2="274.2" stroke="#2a2118" stroke-width="2.4" opacity="0.6" stroke-linecap="round"/>
<line x1="290" y1="255" x2="297.2" y2="274.2" stroke="#2a2118" stroke-width="2.4" opacity="0.6" stroke-linecap="round"/>
<line x1="290" y1="235.8" x2="278.0" y2="221.4" stroke="#2a2118" stroke-width="1.7999999999999998" opacity="0.6" stroke-linecap="round"/>
<line x1="290" y1="235.8" x2="302.0" y2="221.4" stroke="#2a2118" stroke-width="1.7999999999999998" opacity="0.6" stroke-linecap="round"/>
</svg>