<svg xmlns="http://www.w3.org/2000/svg" viewBox="0 0 400 400" width="400" height="400">
<rect width="400" height="400" fill="#faf6f0"/>
<rect x="20" y="20" width="360" height="360" rx="4" fill="none" stroke="#2a2118" stroke-width="0.5" opacity="0.12"/>
<circle cx="280" cy="213.0" r="9.0" fill="#2a2118" opacity="0.6"/>
<line x1="280" y1="222.0" x2="280" y2="255" stroke="#2a2118" stroke-width="3.0" opacity="0.6" stroke-linecap="round"/>
<line x1="280" y1="255" x2="271.0" y2="279.0" stroke="#2a2118" stroke-width="3.0" opacity="0.6" stroke-linecap="round"/>
<line x1="280" y1="255" x2="289.0" y2="279.0" stroke="#2a2118" stroke-width="3.0" opacity="0.6" stroke-linecap="round"/>
<line x1="280" y1="231.0" x2="268.0" y2="246.0" stroke="#2a2118" stroke-width="2.25" opacity="0.6" stroke-linecap="round"/>
<line x1="280" y1="231.0" x2="298.0" y2="222.0" stroke="#2a2118" stroke-width="2.25" opacity="0.6" stroke-linecap="round"/>
<path d="M170,255 L170,210 L160,195 L160,175 L195,175 L195,195 L185,210 L185,255" fill="none" stroke="#2a2118" stroke-width="1.2" opacity="0.4"/>
<ellipse cx="177" cy="240" rx="7" ry="12" fill="#8b4513" opacity="0.2"/>
<rect x="125.0" y="230.0" width="10.0" height="20.0" rx="2.0" fill="#2a2118" opacity="0.25"/>
<rect x="127.0" y="222.0" width="6.0" height="10.0" rx="1.0" fill="#2a2118" opacity="0.3"/>
<path d="M192.38666487320324,196.65874281184537 L193.28666487320325,198.75874281184537 L195.38666487320324,199.65874281184537 L193.28666487320325,200.55874281184538 L192.38666487320324,202.65874281184537 L191.48666487320324,200.55874281184538 L189.38666487320324,199.65874281184537 L191.48666487320324,198.75874281184537Z" fill="#8b4513" opacity="0.3"/>
<path d="M162.27207793864216,204.72792206135784 L163.17207793864216,206.82792206135784 L165.27207793864216,207.72792206135784 L163.17207793864216,208.62792206135785 L162.27207793864216,210.72792206135784 L161.37207793864215,208.62792206135785 L159.27207793864216,207.72792206135784 L161.37207793864215,206.82792206135784Z" fill="#8b4513" opacity="0.3"/>
<path d="M170.34125718815463,174.61333512679676 L171.24125718815463,176.71333512679675 L173.34125718815463,177.61333512679676 L171.24125718815463,178.51333512679676 L170.34125718815463,180.61333512679676 L169.44125718815462,178.51333512679676 L167.34125718815463,177.61333512679676 L169.44125718815462,176.71333512679675Z" fill="#8b4513" opacity="0.3"/>
</svg>