<svg xmlns="http://www.w3.org/2000/svg" viewBox="0 0 400 400" width="400" height="400">
<rect width="400" height="400" fill="#faf6f0"/>
<rect x="20" y="20" width="360" height="360" rx="4" fill="none" stroke="#2a2118" stroke-width="0.5" opacity="0.12"/>
<circle cx="180" cy="194.0" r="12.0" fill="#2a2118" opacity="0.6"/>
<line x1="180" y1="206.0" x2="180" y2="250" stroke="#2a2118" stroke-width="4.0" opacity="0.6" stroke-linecap="round"/>
<line x1="180" y1="250" x2="168.0" y2="282.0" stroke="#2a2118" stroke-width="4.0" opacity="0.6" stroke-linecap="round"/>
<line x1="180" y1="250" x2="192.0" y2="282.0" stroke="#2a2118" stroke-width="4.0" opacity="0.6" stroke-linecap="round"/>
<line x1="180" y1="218.0" x2="164.0" y2="238.0" stroke="#2a2118" stroke-width="3.0" opacity="0.6" stroke-linecap="round"/>
<line x1="180" y1="218.0" x2="204.0" y2="206.0" stroke="#2a2118" stroke-width="3.0" opacity="0.6" stroke-linecap="round"/>
<rect x="235" y="175" width="30" height="6" rx="1" fill="#2a2118" opacity="0.3"/>
<line x1="240" y1="185" x2="240" y2="195" stroke="#2a2118" stroke-width="0.5" stroke-dasharray="2,2" opacity="0.2"/>
<line x1="248" y1="185" x2="248" y2="195" stroke="#2a2118" stroke-width="0.5" stroke-dasharray="2,2" opacity="0.2"/>
<line x1="256" y1="185" x2="256" y2="195" stroke="#2a2118" stroke-width="0.5" stroke-dasharray="2,2" opacity="0.2"/>
<path d="M265.4548132206251,179.14110472164032 L266.3548132206251,181.2411047216403 L268.4548132206251,182.14110472164032 L266.3548132206251,183.04110472164032 L265.4548132206251,185.14110472164032 L264.55481322062514,183.04110472164032 L262.4548132206251,182.14110472164032 L264.55481322062514,181.2411047216403Z" fill="#8b4513" opacity="0.3"/>
<path d="M245.85889527835965,190.45481322062508 L246.75889527835966,192.55481322062508 L248.85889527835965,193.45481322062508 L246.75889527835966,194.3548132206251 L245.85889527835965,196.45481322062508 L244.95889527835965,194.3548132206251 L242.85889527835965,193.45481322062508 L244.95889527835965,192.55481322062508Z" fill="#8b4513" opacity="0.3"/>
<path d="M234.54518677937492,170.85889527835965 L235.44518677937492,172.95889527835965 L237.54518677937492,173.85889527835965 L235.44518677937492,174.75889527835966 L234.54518677937492,176.85889527835965 L233.6451867793749,174.75889527835966 L231.54518677937492,173.85889527835965 L233.6451867793749,172.95889527835965Z" fill="#8b4513" opacity="0.3"/>
<path d="M254.14110472164032,159.54518677937492 L255.04110472164032,161.6451867793749 L257.1411047216403,162.54518677937492 L255.04110472164032,163.44518677937492 L254.14110472164032,165.54518677937492 L253.2411047216403,163.44518677937492 L251.14110472164032,162.54518677937492 L253.2411047216403,161.6451867793749Z" fill="#8b4513" opacity="0.3"/>
</svg>