<svg xmlns="http://www.w3.org/2000/svg" viewBox="0 0 400 400" width="400" height="400">
<rect width="400" height="400" fill="#faf6f0"/>
<rect x="20" y="20" width="360" height="360" rx="4" fill="none" stroke="#2a2118" stroke-width="0.5" opacity="0.12"/>
<circle cx="185" cy="179.6" r="10.8" fill="#2a2118" opacity="0.6"/>
<line x1="185" y1="190.4" x2="185" y2="230" stroke="#2a2118" stroke-width="3.6" opacity="0.6" stroke-linecap="round"/>
<line x1="185" y1="230" x2="174.2" y2="258.8" stroke="#2a2118" stroke-width="3.6" opacity="0.6" stroke-linecap="round"/>
<line x1="185" y1="230" x2="195.8" y2="258.8" stroke="#2a2118" stroke-width="3.6" opacity="0.6" stroke-linecap="round"/>
<line x1="185" y1="201.2" x2="170.6" y2="222.8" stroke="#2a2118" stroke-width="2.7" opacity="0.6" stroke-linecap="round"/>
<line x1="185" y1="201.2" x2="199.4" y2="222.8" stroke="#2a2118" stroke-width="2.7" opacity="0.6" stroke-linecap="round"/>
<circle cx="215" cy="179.6" r="10.8" fill="#2a2118" opacity="0.6"/>
<line x1="215" y1="190.4" x2="215" y2="230" stroke="#2a2118" stroke-width="3.6" opacity="0.6" stroke-linecap="round"/>
<line x1="215" y1="230" x2="204.2" y2="258.8" stroke="#2a2118" stroke-width="3.6" opacity="0.6" stroke-linecap="round"/>
<line x1="215" y1="230" x2="225.8" y2="258.8" stroke="#2a2118" stroke-width="3.6" opacity="0.6" stroke-linecap="round"/>
<line x1="215" y1="201.2" x2="200.6" y2="222.8" stroke="#2a2118" stroke-width="2.7" opacity="0.6" stroke-linecap="round"/>
<line x1="215" y1="201.2" x2="229.4" y2="222.8" stroke="#2a2118" stroke-width="2.7" opacity="0.6" stroke-linecap="round"/>
<circle cx="250.0" cy="210.15898384862248" r="5.4" fill="#2a2118" opacity="0.6"/>
<line x1="250.0" y1="215.55898384862246" x2="250.0" y2="235.35898384862247" stroke="#2a2118" stroke-width="1.8" opacity="0.6" stroke-linecap="round"/>
<line x1="250.0" y1="235.35898384862247" x2="244.6" y2="249.75898384862248" stroke="#2a2118" stroke-width="1.8" opacity="0.6" stroke-linecap="round"/>
<line x1="250.0" y1="235.35898384862247" x2="255.4" y2="249.75898384862248" stroke="#2a2118" stroke-width="1.8" opacity="0.6" stroke-linecap="round"/>
<line x1="250.0" y1="220.95898384862247" x2="242.8" y2="231.75898384862248" stroke="#2a2118" stroke-width="1.35" opacity="0.6" stroke-linecap="round"/>
<line x1="250.0" y1="220.95898384862247" x2="257.2" y2="231.75898384862248" stroke="#2a2118" stroke-width="1.35" opacity="0.6" stroke-linecap="round"/>
<circle cx="293.9692620785909" cy="231.11919426697324" r="5.4" fill="#2a2118" opacity="0.6"/>
<line x1="293.9692620785909" y1="236.51919426697322" x2="293.9692620785909" y2="256.3191942669732" stroke="#2a2118" stroke-width="1.8" opacity="0.6" stroke-linecap="round"/>
<line x1="293.9692620785909" y1="256.3191942669732" x2="288.5692620785909" y2="270.7191942669732" stroke="#2a2118" stroke-width="1.8" opacity="0.6" stroke-linecap="round"/>
<line x1="293.9692620785909" y1="256.3191942669732" x2="299.36926207859085" y2="270.7191942669732" stroke="#2a2118" stroke-width="1.8" opacity="0.6" stroke-linecap="round"/>
<line x1="293.9692620785909" y1="241.91919426697322" x2="286.7692620785909" y2="252.71919426697323" stroke="#2a2118" stroke-width="1.35" opacity="0.6" stroke-linecap="round"/>
<line x1="293.9692620785909" y1="241.91919426697322" x2="301.16926207859086" y2="252.71919426697323" stroke="#2a2118" stroke-width="1.35" opacity="0.6" stroke-linecap="round"/>
<circle cx="293.9692620785909" cy="258.4808057330268" r="5.4" fill="#2a2118" opacity="0.6"/>
<line x1="293.9692620785909" y1="263.88080573302676" x2="293.9692620785909" y2="283.6808057330268" stroke="#2a2118" stroke-width="1.8" opacity="0.6" stroke-linecap="round"/>
<line x1="293.9692620785909" y1="283.6808057330268" x2="288.5692620785909" y2="298.08080573302675" stroke="#2a2118" stroke-width="1.8" opacity="0.6" stroke-linecap="round"/>
<line x1="293.9692620785909" y1="283.6808057330268" x2="299.36926207859085" y2="298.08080573302675" stroke="#2a2118" stroke-width="1.8" opacity="0.6" stroke-linecap="round"/>
<line x1="293.9692620785909" y1="269.2808057330268" x2="286.7692620785909" y2="280.08080573302675" stroke="#2a2118" stroke-width="1.35" opacity="0.6" stroke-linecap="round"/>
<line x1="293.9692620785909" y1="269.2808057330268" x2="301.16926207859086" y2="280.08080573302675" stroke="#2a2118" stroke-width="1.35" opacity="0.6" stroke-linecap="round"/>
<circle cx="250.0" cy="279.44101615137754" r="5.4" fill="#2a2118" opacity="0.6"/>
<line x1="250.0" y1="284.8410161513775" x2="250.0" y2="304.6410161513775" stroke="#2a2118" stroke-width="1.8" opacity="0.6" stroke-linecap="round"/>
<line x1="250.0" y1="304.6410161513775" x2="244.6" y2="319.0410161513775" stroke="#2a2118" stroke-width="1.8" opacity="0.6" stroke-linecap="round"/>
<line x1="250.0" y1="304.6410161513775" x2="255.4" y2="319.0410161513775" stroke="#2a2118" stroke-width="1.8" opacity="0.6" stroke-linecap="round"/>
<line x1="250.0" y1="290.24101615137755" x2="242.8" y2="301.0410161513775" stroke="#2a2118" stroke-width="1.35" opacity="0.6" stroke-linecap="round"/>
<line x1="250.0" y1="290.24101615137755" x2="257.2" y2="301.0410161513775" stroke="#2a2118" stroke-width="1.35" opacity="0.6" stroke-linecap="round"/>
</svg>