<svg xmlns="http://www.w3.org/2000/svg" viewBox="0 0 400 400" width="400" height="400">
<rect width="400" height="400" fill="#faf6f0"/>
<rect x="20" y="20" width="360" height="360" rx="4" fill="none" stroke="#2a2118" stroke-width="0.5" opacity="0.12"/>
<rect x="102.8" y="240" width="14.4" height="18.0" rx="1.8" fill="#e8ddd0" stroke="#2a2118" stroke-width="0.7200000000000001" opacity="0.4"/>
<rect x="102.8" y="231.0" width="14.4" height="12.6" rx="1.8" fill="#e8ddd0" stroke="#2a2118" stroke-width="0.7200000000000001" opacity="0.4"/>
<rect x="162.8" y="240" width="14.4" height="18.0" rx="1.8" fill="#e8ddd0" stroke="#2a2118" stroke-width="0.7200000000000001" opacity="0.4"/>
<rect x="162.8" y="231.0" width="14.4" height="12.6" rx="1.8" fill="#e8ddd0" stroke="#2a2118" stroke-width="0.7200000000000001" opacity="0.4"/>
<rect x="222.8" y="240" width="14.4" height="18.0" rx="1.8" fill="#e8ddd0" stroke="#2a2118" stroke-width="0.7200000000000001" opacity="0.4"/>
<rect x="222.8" y="231.0" width="14.4" height="12.6" rx="1.8" fill="#e8ddd0" stroke="#2a2118" stroke-width="0.7200000000000001" opacity="0.4"/>
<rect x="282.8" y="240" width="14.4" height="18.0" rx="1.8" fill="#e8ddd0" stroke="#2a2118" stroke-width="0.7200000000000001" opacity="0.4"/>
<rect x="282.8" y="231.0" width="14.4" height="12.6" rx="1.8" fill="#e8ddd0" stroke="#2a2118" stroke-width="0.7200000000000001" opacity="0.4"/>
<circle cx="90" cy="169.2" r="6.6000000000000005" fill="#2a2118" opacity="0.6"/>
<line x1="90" y1="175.8" x2="90" y2="200" stroke="#2a2118" stroke-width="2.2" opacity="0.6" stroke-linecap="round"/>
<line x1="90" y1="200" x2="83.4" y2="217.6" stroke="#2a2118" stroke-width="2.2" opacity="0.6" stroke-linecap="round"/>
<line x1="90" y1="200" x2="96.6" y2="217.6" stroke="#2a2118" stroke-width="2.2" opacity="0.6" stroke-linecap="round"/>
<line x1="90" y1="182.4" x2="76.8" y2="186.8" stroke="#2a2118" stroke-width="1.6500000000000001" opacity="0.6" stroke-linecap="round"/>
<line x1="90" y1="182.4" x2="103.2" y2="178.0" stroke="#2a2118" stroke-width="1.6500000000000001" opacity="0.6" stroke-linecap="round"/>
<circle cx="145" cy="169.2" r="6.6000000000000005" fill="#2a2118" opacity="0.6"/>
<line x1="145" y1="175.8" x2="145" y2="200" stroke="#2a2118" stroke-width="2.2" opacity="0.6" stroke-linecap="round"/>
<line x1="145" y1="200" x2="138.4" y2="217.6" stroke="#2a2118" stroke-width="2.2" opacity="0.6" stroke-linecap="round"/>
<line x1="145" y1="200" x2="151.6" y2="217.6" stroke="#2a2118" stroke-width="2.2" opacity="0.6" stroke-linecap="round"/>
<line x1="145" y1="182.4" x2="131.8" y2="186.8" stroke="#2a2118" stroke-width="1.6500000000000001" opacity="0.6" stroke-linecap="round"/>
<line x1="145" y1="182.4" x2="158.2" y2="178.0" stroke="#2a2118" stroke-width="1.6500000000000001" opacity="0.6" stroke-linecap="round"/>
<circle cx="200" cy="169.2" r="6.6000000000000005" fill="#2a2118" opacity="0.6"/>
<line x1="200" y1="175.8" x2="200" y2="200" stroke="#2a2118" stroke-width="2.2" opacity="0.6" stroke-linecap="round"/>
<line x1="200" y1="200" x2="193.4" y2="217.6" stroke="#2a2118" stroke-width="2.2" opacity="0.6" stroke-linecap="round"/>
<line x1="200" y1="200" x2="206.6" y2="217.6" stroke="#2a2118" stroke-width="2.2" opacity="0.6" stroke-linecap="round"/>
<line x1="200" y1="182.4" x2="186.8" y2="186.8" stroke="#2a2118" stroke-width="1.6500000000000001" opacity="0.6" stroke-linecap="round"/>
<line x1="200" y1="182.4" x2="213.2" y2="178.0" stroke="#2a2118" stroke-width="1.6500000000000001" opacity="0.6" stroke-linecap="round"/>
<circle cx="255" cy="169.2" r="6.6000000000000005" fill="#2a2118" opacity="0.6"/>
<line x1="255" y1="175.8" x2="255" y2="200" stroke="#2a2118" stroke-width="2.2" opacity="0.6" stroke-linecap="round"/>
<line x1="255" y1="200" x2="248.4" y2="217.6" stroke="#2a2118" stroke-width="2.2" opacity="0.6" stroke-linecap="round"/>
<line x1="255" y1="200" x2="261.6" y2="217.6" stroke="#2a2118" stroke-width="2.2" opacity="0.6" stroke-linecap="round"/>
<line x1="255" y1="182.4" x2="241.8" y2="186.8" stroke="#2a2118" stroke-width="1.6500000000000001" opacity="0.6" stroke-linecap="round"/>
<line x1="255" y1="182.4" x2="268.2" y2="178.0" stroke="#2a2118" stroke-width="1.6500000000000001" opacity="0.6" stroke-linecap="round"/>
<circle cx="310" cy="169.2" r="6.6000000000000005" fill="#2a2118" opacity="0.6"/>
<line x1="310" y1="175.8" x2="310" y2="200" stroke="#2a2118" stroke-width="2.2" opacity="0.6" stroke-linecap="round"/>
<line x1="310" y1="200" x2="303.4" y2="217.6" stroke="#2a2118" stroke-width="2.2" opacity="0.6" stroke-linecap="round"/>
<line x1="310" y1="200" x2="316.6" y2="217.6" stroke="#2a2118" stroke-width="2.2" opacity="0.6" stroke-linecap="round"/>
<line x1="310" y1="182.4" x2="296.8" y2="186.8" stroke="#2a2118" stroke-width="1.6500000000000001" opacity="0.6" stroke-linecap="round"/>
<line x1="310" y1="182.4" x2="323.2" y2="178.0" stroke="#2a2118" stroke-width="1.6500000000000001" opacity="0.6" stroke-linecap="round"/>
<circle cx="170.0" cy="150.0" rx="4.0" ry="3.0" fill="#2a2118" opacity="0.35" transform="rotate(-20,170.0,150.0)"/>
<line x1="173.5" y1="150.0" x2="173.5" y2="134.0" stroke="#2a2118" stroke-width="1.0" opacity="0.35"/>
<circle cx="188.0" cy="142.0" rx="4.0" ry="3.0" fill="#2a2118" opacity="0.35" transform="rotate(-20,188.0,142.0)"/>
<line x1="191.5" y1="142.0" x2="191.5" y2="126.0" stroke="#2a2118" stroke-width="1.0" opacity="0.35"/>
<circle cx="206.0" cy="150.0" rx="4.0" ry="3.0" fill="#2a2118" opacity="0.35" transform="rotate(-20,206.0,150.0)"/>
<line x1="209.5" y1="150.0" x2="209.5" y2="134.0" stroke="#2a2118" stroke-width="1.0" opacity="0.35"/>
</svg>