<svg xmlns="http://www.w3.org/2000/svg" viewBox="0 0 400 400" width="400" height="400">
<rect width="400" height="400" fill="#faf6f0"/>
<rect x="20" y="20" width="360" height="360" rx="4" fill="none" stroke="#2a2118" stroke-width="0.5" opacity="0.12"/>
<circle cx="200" cy="158.39999999999998" r="13.200000000000001" fill="#2a2118" opacity="0.6"/>
<line x1="200" y1="171.6" x2="200" y2="220" stroke="#2a2118" stroke-width="4.4" opacity="0.6" stroke-linecap="round"/>
<line x1="200" y1="220" x2="186.8" y2="255.2" stroke="#2a2118" stroke-width="4.4" opacity="0.6" stroke-linecap="round"/>
<line x1="200" y1="220" x2="213.2" y2="255.2" stroke="#2a2118" stroke-width="4.4" opacity="0.6" stroke-linecap="round"/>
<line x1="200" y1="184.8" x2="178.0" y2="158.39999999999998" stroke="#2a2118" stroke-width="3.3000000000000003" opacity="0.6" stroke-linecap="round"/>
<line x1="200" y1="184.8" x2="222.0" y2="158.39999999999998" stroke="#2a2118" stroke-width="3.3000000000000003" opacity="0.6" stroke-linecap="round"/>
<circle cx="110" cy="242.0" r="6.0" fill="#2a2118" opacity="0.6"/>
<line x1="110" y1="248.0" x2="110" y2="270" stroke="#2a2118" stroke-width="2.0" opacity="0.6" stroke-linecap="round"/>
<line x1="110" y1="270" x2="104.0" y2="286.0" stroke="#2a2118" stroke-width="2.0" opacity="0.6" stroke-linecap="round"/>
<line x1="110" y1="270" x2="116.0" y2="286.0" stroke="#2a2118" stroke-width="2.0" opacity="0.6" stroke-linecap="round"/>
<line x1="110" y1="254.0" x2="114.0" y2="248.0" stroke="#2a2118" stroke-width="1.5" opacity="0.6" stroke-linecap="round"/>
<line x1="110" y1="254.0" x2="106.0" y2="248.0" stroke="#2a2118" stroke-width="1.5" opacity="0.6" stroke-linecap="round"/>
<circle cx="290" cy="242.0" r="6.0" fill="#2a2118" opacity="0.6"/>
<line x1="290" y1="248.0" x2="290" y2="270" stroke="#2a2118" stroke-width="2.0" opacity="0.6" stroke-linecap="round"/>
<line x1="290" y1="270" x2="284.0" y2="286.0" stroke="#2a2118" stroke-width="2.0" opacity="0.6" stroke-linecap="round"/>
<line x1="290" y1="270" x2="296.0" y2="286.0" stroke="#2a2118" stroke-width="2.0" opacity="0.6" stroke-linecap="round"/>
<line x1="290" y1="254.0" x2="294.0" y2="248.0" stroke="#2a2118" stroke-width="1.5" opacity="0.6" stroke-linecap="round"/>
<line x1="290" y1="254.0" x2="286.0" y2="248.0" stroke="#2a2118" stroke-width="1.5" opacity="0.6" stroke-linecap="round"/>
<circle cx="320" cy="264.8" r="5.4" fill="#2a2118" opacity="0.6"/>
<line x1="320" y1="270.2" x2="320" y2="290" stroke="#2a2118" stroke-width="1.8" opacity="0.6" stroke-linecap="round"/>
<line x1="320" y1="290" x2="314.6" y2="304.4" stroke="#2a2118" stroke-width="1.8" opacity="0.6" stroke-linecap="round"/>
<line x1="320" y1="290" x2="325.4" y2="304.4" stroke="#2a2118" stroke-width="1.8" opacity="0.6" stroke-linecap="round"/>
<line x1="320" y1="275.6" x2="312.8" y2="286.4" stroke="#2a2118" stroke-width="1.35" opacity="0.6" stroke-linecap="round"/>
<line x1="320" y1="275.6" x2="327.2" y2="286.4" stroke="#2a2118" stroke-width="1.35" opacity="0.6" stroke-linecap="round"/>
<circle cx="80" cy="264.8" r="5.4" fill="#2a2118" opacity="0.6"/>
<line x1="80" y1="270.2" x2="80" y2="290" stroke="#2a2118" stroke-width="1.8" opacity="0.6" stroke-linecap="round"/>
<line x1="80" y1="290" x2="74.6" y2="304.4" stroke="#2a2118" stroke-width="1.8" opacity="0.6" stroke-linecap="round"/>
<line x1="80" y1="290" x2="85.4" y2="304.4" stroke="#2a2118" stroke-width="1.8" opacity="0.6" stroke-linecap="round"/>
<line x1="80" y1="275.6" x2="72.8" y2="286.4" stroke="#2a2118" stroke-width="1.35" opacity="0.6" stroke-linecap="round"/>
<line x1="80" y1="275.6" x2="87.2" y2="286.4" stroke="#2a2118" stroke-width="1.35" opacity="0.6" stroke-linecap="round"/>
</svg>