<svg xmlns="http://www.w3.org/2000/svg" viewBox="0 0 400 400" width="400" height="400">
<rect width="400" height="400" fill="#faf6f0"/>
<rect x="20" y="20" width="360" height="360" rx="4" fill="none" stroke="#2a2118" stroke-width="0.5" opacity="0.12"/>
<circle cx="200.0" cy="122.6" r="4.800000000000001" fill="#2a2118" opacity="0.6"/>
<line x1="200.0" y1="127.4" x2="200.0" y2="145.0" stroke="#2a2118" stroke-width="1.6" opacity="0.6" stroke-linecap="round"/>
<line x1="200.0" y1="145.0" x2="195.2" y2="157.8" stroke="#2a2118" stroke-width="1.6" opacity="0.6" stroke-linecap="round"/>
<line x1="200.0" y1="145.0" x2="204.8" y2="157.8" stroke="#2a2118" stroke-width="1.6" opacity="0.6" stroke-linecap="round"/>
<line x1="200.0" y1="132.2" x2="193.6" y2="141.8" stroke="#2a2118" stroke-width="1.2000000000000002" opacity="0.6" stroke-linecap="round"/>
<line x1="200.0" y1="132.2" x2="206.4" y2="141.8" stroke="#2a2118" stroke-width="1.2000000000000002" opacity="0.6" stroke-linecap="round"/>
<circle cx="251.42300877492315" cy="141.31644455048175" r="4.800000000000001" fill="#2a2118" opacity="0.6"/>
<line x1="251.42300877492315" y1="146.11644455048176" x2="251.42300877492315" y2="163.71644455048175" stroke="#2a2118" stroke-width="1.6" opacity="0.6" stroke-linecap="round"/>
<line x1="251.42300877492315" y1="163.71644455048175" x2="246.62300877492314" y2="176.51644455048176" stroke="#2a2118" stroke-width="1.6" opacity="0.6" stroke-linecap="round"/>
<line x1="251.42300877492315" y1="163.71644455048175" x2="256.22300877492313" y2="176.51644455048176" stroke="#2a2118" stroke-width="1.6" opacity="0.6" stroke-linecap="round"/>
<line x1="251.42300877492315" y1="150.91644455048174" x2="245.02300877492314" y2="160.51644455048176" stroke="#2a2118" stroke-width="1.2000000000000002" opacity="0.6" stroke-linecap="round"/>
<line x1="251.42300877492315" y1="150.91644455048174" x2="257.82300877492315" y2="160.51644455048176" stroke="#2a2118" stroke-width="1.2000000000000002" opacity="0.6" stroke-linecap="round"/>
<circle cx="278.78462024097666" cy="188.70814578664556" r="4.800000000000001" fill="#2a2118" opacity="0.6"/>
<line x1="278.78462024097666" y1="193.50814578664557" x2="278.78462024097666" y2="211.10814578664557" stroke="#2a2118" stroke-width="1.6" opacity="0.6" stroke-linecap="round"/>
<line x1="278.78462024097666" y1="211.10814578664557" x2="273.98462024097665" y2="223.90814578664558" stroke="#2a2118" stroke-width="1.6" opacity="0.6" stroke-linecap="round"/>
<line x1="278.78462024097666" y1="211.10814578664557" x2="283.5846202409767" y2="223.90814578664558" stroke="#2a2118" stroke-width="1.6" opacity="0.6" stroke-linecap="round"/>
<line x1="278.78462024097666" y1="198.30814578664555" x2="272.3846202409767" y2="207.90814578664558" stroke="#2a2118" stroke-width="1.2000000000000002" opacity="0.6" stroke-linecap="round"/>
<line x1="278.78462024097666" y1="198.30814578664555" x2="285.18462024097664" y2="207.90814578664558" stroke="#2a2118" stroke-width="1.2000000000000002" opacity="0.6" stroke-linecap="round"/>
<circle cx="269.2820323027551" cy="242.6" r="4.800000000000001" fill="#2a2118" opacity="0.6"/>
<line x1="269.2820323027551" y1="247.4" x2="269.2820323027551" y2="265.0" stroke="#2a2118" stroke-width="1.6" opacity="0.6" stroke-linecap="round"/>
<line x1="269.2820323027551" y1="265.0" x2="264.4820323027551" y2="277.8" stroke="#2a2118" stroke-width="1.6" opacity="0.6" stroke-linecap="round"/>
<line x1="269.2820323027551" y1="265.0" x2="274.0820323027551" y2="277.8" stroke="#2a2118" stroke-width="1.6" opacity="0.6" stroke-linecap="round"/>
<line x1="269.2820323027551" y1="252.2" x2="262.88203230275514" y2="261.8" stroke="#2a2118" stroke-width="1.2000000000000002" opacity="0.6" stroke-linecap="round"/>
<line x1="269.2820323027551" y1="252.2" x2="275.6820323027551" y2="261.8" stroke="#2a2118" stroke-width="1.2000000000000002" opacity="0.6" stroke-linecap="round"/>
<circle cx="227.36161146605352" cy="277.7754096628727" r="4.800000000000001" fill="#2a2118" opacity="0.6"/>
<line x1="227.36161146605352" y1="282.57540966287263" x2="227.36161146605352" y2="300.17540966287265" stroke="#2a2118" stroke-width="1.6" opacity="0.6" stroke-linecap="round"/>
<line x1="227.36161146605352" y1="300.17540966287265" x2="222.5616114660535" y2="312.97540966287266" stroke="#2a2118" stroke-width="1.6" opacity="0.6" stroke-linecap="round"/>
<line x1="227.36161146605352" y1="300.17540966287265" x2="232.16161146605353" y2="312.97540966287266" stroke="#2a2118" stroke-width="1.6" opacity="0.6" stroke-linecap="round"/>
<line x1="227.36161146605352" y1="287.37540966287264" x2="220.9616114660535" y2="296.97540966287266" stroke="#2a2118" stroke-width="1.2000000000000002" opacity="0.6" stroke-linecap="round"/>
<line x1="227.36161146605352" y1="287.37540966287264" x2="233.76161146605352" y2="296.97540966287266" stroke="#2a2118" stroke-width="1.2000000000000002" opacity="0.6" stroke-linecap="round"/>
<circle cx="172.6383885339465" cy="277.7754096628727" r="4.800000000000001" fill="#2a2118" opacity="0.6"/>
<line x1="172.6383885339465" y1="282.57540966287263" x2="172.6383885339465" y2="300.17540966287265" stroke="#2a2118" stroke-width="1.6" opacity="0.6" stroke-linecap="round"/>
<line x1="172.6383885339465" y1="300.17540966287265" x2="167.8383885339465" y2="312.97540966287266" stroke="#2a2118" stroke-width="1.6" opacity="0.6" stroke-linecap="round"/>
<line x1="172.6383885339465" y1="300.17540966287265" x2="177.43838853394652" y2="312.97540966287266" stroke="#2a2118" stroke-width="1.6" opacity="0.6" stroke-linecap="round"/>
<line x1="172.6383885339465" y1="287.37540966287264" x2="166.2383885339465" y2="296.97540966287266" stroke="#2a2118" stroke-width="1.2000000000000002" opacity="0.6" stroke-linecap="round"/>
<line x1="172.6383885339465" y1="287.37540966287264" x2="179.03838853394652" y2="296.97540966287266" stroke="#2a2118" stroke-width="1.2000000000000002" opacity="0.6" stroke-linecap="round"/>
<circle cx="130.7179676972449" cy="242.6" r="4.800000000000001" fill="#2a2118" opacity="0.6"/>
<line x1="130.7179676972449" y1="247.4" x2="130.7179676972449" y2="265.0" stroke="#2a2118" stroke-width="1.6" opacity="0.6" stroke-linecap="round"/>
<line x1="130.7179676972449" y1="265.0" x2="125.91796769724489" y2="277.8" stroke="#2a2118" stroke-width="1.6" opacity="0.6" stroke-linecap="round"/>
<line x1="130.7179676972449" y1="265.0" x2="135.5179676972449" y2="277.8" stroke="#2a2118" stroke-width="1.6" opacity="0.6" stroke-linecap="round"/>
<line x1="130.7179676972449" y1="252.2" x2="124.31796769724488" y2="261.8" stroke="#2a2118" stroke-width="1.2000000000000002" opacity="0.6" stroke-linecap="round"/>
<line x1="130.7179676972449" y1="252.2" x2="137.1179676972449" y2="261.8" stroke="#2a2118" stroke-width="1.2000000000000002" opacity="0.6" stroke-linecap="round"/>
<circle cx="121.21537975902336" cy="188.70814578664556" r="4.800000000000001" fill="#2a2118" opacity="0.6"/>
<line x1="121.21537975902336" y1="193.50814578664557" x2="121.21537975902336" y2="211.10814578664557" stroke="#2a2118" stroke-width="1.6" opacity="0.6" stroke-linecap="round"/>
<line x1="121.21537975902336" y1="211.10814578664557" x2="116.41537975902337" y2="223.90814578664558" stroke="#2a2118" stroke-width="1.6" opacity="0.6" stroke-linecap="round"/>
<line x1="121.21537975902336" y1="211.10814578664557" x2="126.01537975902336" y2="223.90814578664558" stroke="#2a2118" stroke-width="1.6" opacity="0.6" stroke-linecap="round"/>
<line x1="121.21537975902336" y1="198.30814578664555" x2="114.81537975902336" y2="207.90814578664558" stroke="#2a2118" stroke-width="1.2000000000000002" opacity="0.6" stroke-linecap="round"/>
<line x1="121.21537975902336" y1="198.30814578664555" x2="127.61537975902337" y2="207.90814578664558" stroke="#2a2118" stroke-width="1.2000000000000002" opacity="0.6" stroke-linecap="round"/>
<circle cx="148.57699122507682" cy="141.31644455048175" r="4.800000000000001" fill="#2a2118" opacity="0.6"/>
<line x1="148.57699122507682" y1="146.11644455048176" x2="148.57699122507682" y2="163.71644455048175" stroke="#2a2118" stroke-width="1.6" opacity="0.6" stroke-linecap="round"/>
<line x1="148.57699122507682" y1="163.71644455048175" x2="143.7769912250768" y2="176.51644455048176" stroke="#2a2118" stroke-width="1.6" opacity="0.6" stroke-linecap="round"/>
<line x1="148.57699122507682" y1="163.71644455048175" x2="153.37699122507684" y2="176.51644455048176" stroke="#2a2118" stroke-width="1.6" opacity="0.6" stroke-linecap="round"/>
<line x1="148.57699122507682" y1="150.91644455048174" x2="142.17699122507682" y2="160.51644455048176" stroke="#2a2118" stroke-width="1.2000000000000002" opacity="0.6" stroke-linecap="round"/>
<line x1="148.57699122507682" y1="150.91644455048174" x2="154.97699122507683" y2="160.51644455048176" stroke="#2a2118" stroke-width="1.2000000000000002" opacity="0.6" stroke-linecap="round"/>
<path d="M200.0,145.0 Q222.43652140216386,163.35616407644443 251.42300877492315,163.71644455048175" fill="none" stroke="#2a2118" stroke-width="0.7" opacity="0.15"/>
<path d="M251.42300877492315,163.71644455048175 Q256.81126648825915,192.20000000000002 278.78462024097666,211.10814578664557" fill="none" stroke="#2a2118" stroke-width="0.7" opacity="0.15"/>
<path d="M278.78462024097666,211.10814578664557 Q264.6033885976008,236.39132045495063 269.2820323027551,265.0" fill="none" stroke="#2a2118" stroke-width="0.7" opacity="0.15"/>
<path d="M269.2820323027551,265.0 Q242.166867195437,275.25251546860494 227.36161146605352,300.17540966287265" fill="none" stroke="#2a2118" stroke-width="0.7" opacity="0.15"/>
<path d="M227.36161146605352,300.17540966287265 Q200.0,290.6 172.6383885339465,300.17540966287265" fill="none" stroke="#2a2118" stroke-width="0.7" opacity="0.15"/>
<path d="M172.6383885339465,300.17540966287265 Q157.83313280456304,275.25251546860494 130.7179676972449,265.0" fill="none" stroke="#2a2118" stroke-width="0.7" opacity="0.15"/>
<path d="M130.7179676972449,265.0 Q135.39661140239917,236.39132045495063 121.21537975902336,211.10814578664557" fill="none" stroke="#2a2118" stroke-width="0.7" opacity="0.15"/>
<path d="M121.21537975902336,211.10814578664557 Q143.18873351174085,192.2 148.57699122507682,163.71644455048175" fill="none" stroke="#2a2118" stroke-width="0.7" opacity="0.15"/>
<path d="M148.57699122507682,163.71644455048175 Q222.43652140216386,286.64383592355557 200.0,145.0" fill="none" stroke="#2a2118" stroke-width="0.7" opacity="0.15"/>
<circle cx="200" cy="188.6" r="7.800000000000001" fill="#2a2118" opacity="0.6"/>
<line x1="200" y1="196.4" x2="200" y2="225" stroke="#2a2118" stroke-width="2.6" opacity="0.6" stroke-linecap="round"/>
<line x1="200" y1="225" x2="192.2" y2="245.8" stroke="#2a2118" stroke-width="2.6" opacity="0.6" stroke-linecap="round"/>
<line x1="200" y1="225" x2="207.8" y2="245.8" stroke="#2a2118" stroke-width="2.6" opacity="0.6" stroke-linecap="round"/>
<line x1="200" y1="204.2" x2="189.6" y2="217.2" stroke="#2a2118" stroke-width="1.9500000000000002" opacity="0.6" stroke-linecap="round"/>
<line x1="200" y1="204.2" x2="215.6" y2="196.4" stroke="#2a2118" stroke-width="1.9500000000000002" opacity="0.6" stroke-linecap="round"/>
</svg>