<svg xmlns="http://www.w3.org/2000/svg" viewBox="0 0 400 400" width="400" height="400">
<rect width="400" height="400" fill="#faf6f0"/>
<rect x="20" y="20" width="360" height="360" rx="4" fill="none" stroke="#2a2118" stroke-width="0.5" opacity="0.12"/>
<circle cx="200" cy="164.0" r="12.0" fill="#2a2118" opacity="0.6"/>
<line x1="200" y1="176.0" x2="200" y2="220" stroke="#2a2118" stroke-width="4.0" opacity="0.6" stroke-linecap="round"/>
<line x1="200" y1="220" x2="188.0" y2="252.0" stroke="#2a2118" stroke-width="4.0" opacity="0.6" stroke-linecap="round"/>
<line x1="200" y1="220" x2="212.0" y2="252.0" stroke="#2a2118" stroke-width="4.0" opacity="0.6" stroke-linecap="round"/>
<line x1="200" y1="188.0" x2="184.0" y2="208.0" stroke="#2a2118" stroke-width="3.0" opacity="0.6" stroke-linecap="round"/>
<line x1="200" y1="188.0" x2="224.0" y2="176.0" stroke="#2a2118" stroke-width="3.0" opacity="0.6" stroke-linecap="round"/>
<circle cx="247.5" cy="223.81923788646685" r="5.4" fill="#2a2118" opacity="0.6"/>
<line x1="247.5" y1="229.21923788646683" x2="247.5" y2="249.01923788646684" stroke="#2a2118" stroke-width="1.8" opacity="0.6" stroke-linecap="round"/>
<line x1="247.5" y1="249.01923788646684" x2="242.1" y2="263.4192378864668" stroke="#2a2118" stroke-width="1.8" opacity="0.6" stroke-linecap="round"/>
<line x1="247.5" y1="249.01923788646684" x2="252.9" y2="263.4192378864668" stroke="#2a2118" stroke-width="1.8" opacity="0.6" stroke-linecap="round"/>
<line x1="247.5" y1="234.61923788646683" x2="240.3" y2="245.41923788646685" stroke="#2a2118" stroke-width="1.35" opacity="0.6" stroke-linecap="round"/>
<line x1="247.5" y1="234.61923788646683" x2="254.7" y2="245.41923788646685" stroke="#2a2118" stroke-width="1.35" opacity="0.6" stroke-linecap="round"/>
<circle cx="282.2724133595217" cy="234.8" r="5.4" fill="#2a2118" opacity="0.6"/>
<line x1="282.2724133595217" y1="240.2" x2="282.2724133595217" y2="260.0" stroke="#2a2118" stroke-width="1.8" opacity="0.6" stroke-linecap="round"/>
<line x1="282.2724133595217" y1="260.0" x2="276.8724133595217" y2="274.4" stroke="#2a2118" stroke-width="1.8" opacity="0.6" stroke-linecap="round"/>
<line x1="282.2724133595217" y1="260.0" x2="287.67241335952167" y2="274.4" stroke="#2a2118" stroke-width="1.8" opacity="0.6" stroke-linecap="round"/>
<line x1="282.2724133595217" y1="245.6" x2="275.0724133595217" y2="256.4" stroke="#2a2118" stroke-width="1.35" opacity="0.6" stroke-linecap="round"/>
<line x1="282.2724133595217" y1="245.6" x2="289.4724133595217" y2="256.4" stroke="#2a2118" stroke-width="1.35" opacity="0.6" stroke-linecap="round"/>
<circle cx="295.0" cy="249.8" r="5.4" fill="#2a2118" opacity="0.6"/>
<line x1="295.0" y1="255.2" x2="295.0" y2="275.0" stroke="#2a2118" stroke-width="1.8" opacity="0.6" stroke-linecap="round"/>
<line x1="295.0" y1="275.0" x2="289.6" y2="289.4" stroke="#2a2118" stroke-width="1.8" opacity="0.6" stroke-linecap="round"/>
<line x1="295.0" y1="275.0" x2="300.4" y2="289.4" stroke="#2a2118" stroke-width="1.8" opacity="0.6" stroke-linecap="round"/>
<line x1="295.0" y1="260.6" x2="287.8" y2="271.4" stroke="#2a2118" stroke-width="1.35" opacity="0.6" stroke-linecap="round"/>
<line x1="295.0" y1="260.6" x2="302.2" y2="271.4" stroke="#2a2118" stroke-width="1.35" opacity="0.6" stroke-linecap="round"/>
<circle cx="282.2724133595217" cy="264.8" r="5.4" fill="#2a2118" opacity="0.6"/>
<line x1="282.2724133595217" y1="270.2" x2="282.2724133595217" y2="290.0" stroke="#2a2118" stroke-width="1.8" opacity="0.6" stroke-linecap="round"/>
<line x1="282.2724133595217" y1="290.0" x2="276.8724133595217" y2="304.4" stroke="#2a2118" stroke-width="1.8" opacity="0.6" stroke-linecap="round"/>
<line x1="282.2724133595217" y1="290.0" x2="287.67241335952167" y2="304.4" stroke="#2a2118" stroke-width="1.8" opacity="0.6" stroke-linecap="round"/>
<line x1="282.2724133595217" y1="275.6" x2="275.0724133595217" y2="286.4" stroke="#2a2118" stroke-width="1.35" opacity="0.6" stroke-linecap="round"/>
<line x1="282.2724133595217" y1="275.6" x2="289.4724133595217" y2="286.4" stroke="#2a2118" stroke-width="1.35" opacity="0.6" stroke-linecap="round"/>
<circle cx="247.5" cy="275.78076211353317" r="5.4" fill="#2a2118" opacity="0.6"/>
<line x1="247.5" y1="281.18076211353315" x2="247.5" y2="300.98076211353316" stroke="#2a2118" stroke-width="1.8" opacity="0.6" stroke-linecap="round"/>
<line x1="247.5" y1="300.98076211353316" x2="242.1" y2="315.38076211353314" stroke="#2a2118" stroke-width="1.8" opacity="0.6" stroke-linecap="round"/>
<line x1="247.5" y1="300.98076211353316" x2="252.9" y2="315.38076211353314" stroke="#2a2118" stroke-width="1.8" opacity="0.6" stroke-linecap="round"/>
<line x1="247.5" y1="286.5807621135332" x2="240.3" y2="297.38076211353314" stroke="#2a2118" stroke-width="1.35" opacity="0.6" stroke-linecap="round"/>
<line x1="247.5" y1="286.5807621135332" x2="254.7" y2="297.38076211353314" stroke="#2a2118" stroke-width="1.35" opacity="0.6" stroke-linecap="round"/>
</svg>