<svg xmlns="http://www.w3.org/2000/svg" viewBox="0 0 400 400" width="400" height="400">
<rect width="400" height="400" fill="#faf6f0"/>
<rect x="20" y="20" width="360" height="360" rx="4" fill="none" stroke="#2a2118" stroke-width="0.5" opacity="0.12"/>
<rect x="120" y="140" width="160" height="120" rx="3" fill="#e8ddd0" stroke="#2a2118" stroke-width="1" opacity="0.3"/>
<rect x="120" y="130" width="160" height="14" rx="2" fill="#2a2118" opacity="0.2"/>
<circle cx="170" cy="177.6" r="4.800000000000001" fill="#2a2118" opacity="0.6"/>
<line x1="170" y1="182.4" x2="170" y2="200" stroke="#2a2118" stroke-width="1.6" opacity="0.6" stroke-linecap="round"/>
<line x1="170" y1="200" x2="165.2" y2="212.8" stroke="#2a2118" stroke-width="1.6" opacity="0.6" stroke-linecap="round"/>
<line x1="170" y1="200" x2="174.8" y2="212.8" stroke="#2a2118" stroke-width="1.6" opacity="0.6" stroke-linecap="round"/>
<line x1="170" y1="187.2" x2="162.0" y2="177.6" stroke="#2a2118" stroke-width="1.2000000000000002" opacity="0.6" stroke-linecap="round"/>
<line x1="170" y1="187.2" x2="178.0" y2="177.6" stroke="#2a2118" stroke-width="1.2000000000000002" opacity="0.6" stroke-linecap="round"/>
<circle cx="230" cy="177.6" r="4.800000000000001" fill="#2a2118" opacity="0.6"/>
<line x1="230" y1="182.4" x2="230" y2="200" stroke="#2a2118" stroke-width="1.6" opacity="0.6" stroke-linecap="round"/>
<line x1="230" y1="200" x2="225.2" y2="212.8" stroke="#2a2118" stroke-width="1.6" opacity="0.6" stroke-linecap="round"/>
<line x1="230" y1="200" x2="234.8" y2="212.8" stroke="#2a2118" stroke-width="1.6" opacity="0.6" stroke-linecap="round"/>
<line x1="230" y1="187.2" x2="223.6" y2="195.2" stroke="#2a2118" stroke-width="1.2000000000000002" opacity="0.6" stroke-linecap="round"/>
<line x1="230" y1="187.2" x2="239.6" y2="182.4" stroke="#2a2118" stroke-width="1.2000000000000002" opacity="0.6" stroke-linecap="round"/>
<circle cx="150" cy="272.0" r="6.0" fill="#2a2118" opacity="0.6"/>
<line x1="150" y1="278.0" x2="150" y2="300" stroke="#2a2118" stroke-width="2.0" opacity="0.6" stroke-linecap="round"/>
<line x1="150" y1="300" x2="144.0" y2="316.0" stroke="#2a2118" stroke-width="2.0" opacity="0.6" stroke-linecap="round"/>
<line x1="150" y1="300" x2="156.0" y2="316.0" stroke="#2a2118" stroke-width="2.0" opacity="0.6" stroke-linecap="round"/>
<line x1="150" y1="284.0" x2="142.0" y2="296.0" stroke="#2a2118" stroke-width="1.5" opacity="0.6" stroke-linecap="round"/>
<line x1="150" y1="284.0" x2="158.0" y2="296.0" stroke="#2a2118" stroke-width="1.5" opacity="0.6" stroke-linecap="round"/>
<circle cx="200" cy="282.0" r="6.0" fill="#2a2118" opacity="0.6"/>
<line x1="200" y1="288.0" x2="200" y2="310" stroke="#2a2118" stroke-width="2.0" opacity="0.6" stroke-linecap="round"/>
<line x1="200" y1="310" x2="194.0" y2="326.0" stroke="#2a2118" stroke-width="2.0" opacity="0.6" stroke-linecap="round"/>
<line x1="200" y1="310" x2="206.0" y2="326.0" stroke="#2a2118" stroke-width="2.0" opacity="0.6" stroke-linecap="round"/>
<line x1="200" y1="294.0" x2="192.0" y2="306.0" stroke="#2a2118" stroke-width="1.5" opacity="0.6" stroke-linecap="round"/>
<line x1="200" y1="294.0" x2="208.0" y2="306.0" stroke="#2a2118" stroke-width="1.5" opacity="0.6" stroke-linecap="round"/>
<circle cx="250" cy="272.0" r="6.0" fill="#2a2118" opacity="0.6"/>
<line x1="250" y1="278.0" x2="250" y2="300" stroke="#2a2118" stroke-width="2.0" opacity="0.6" stroke-linecap="round"/>
<line x1="250" y1="300" x2="244.0" y2="316.0" stroke="#2a2118" stroke-width="2.0" opacity="0.6" stroke-linecap="round"/>
<line x1="250" y1="300" x2="256.0" y2="316.0" stroke="#2a2118" stroke-width="2.0" opacity="0.6" stroke-linecap="round"/>
<line x1="250" y1="284.0" x2="242.0" y2="296.0" stroke="#2a2118" stroke-width="1.5" opacity="0.6" stroke-linecap="round"/>
<line x1="250" y1="284.0" x2="258.0" y2="296.0" stroke="#2a2118" stroke-width="1.5" opacity="0.6" stroke-linecap="round"/>
</svg>