<svg xmlns="http://www.w3.org/2000/svg" viewBox="0 0 400 400" width="400" height="400">
<rect width="400" height="400" fill="#faf6f0"/>
<rect x="20" y="20" width="360" height="360" rx="4" fill="none" stroke="#2a2118" stroke-width="0.5" opacity="0.12"/>
<circle cx="130" cy="195.2" r="9.600000000000001" fill="#2a2118" opacity="0.6"/>
<line x1="130" y1="204.8" x2="130" y2="240" stroke="#2a2118" stroke-width="3.2" opacity="0.6" stroke-linecap="round"/>
<line x1="130" y1="240" x2="120.4" y2="265.6" stroke="#2a2118" stroke-width="3.2" opacity="0.6" stroke-linecap="round"/>
<line x1="130" y1="240" x2="139.6" y2="265.6" stroke="#2a2118" stroke-width="3.2" opacity="0.6" stroke-linecap="round"/>
<line x1="130" y1="214.4" x2="114.0" y2="195.2" stroke="#2a2118" stroke-width="2.4000000000000004" opacity="0.6" stroke-linecap="round"/>
<line x1="130" y1="214.4" x2="146.0" y2="195.2" stroke="#2a2118" stroke-width="2.4000000000000004" opacity="0.6" stroke-linecap="round"/>
<circle cx="200" cy="179.6" r="10.8" fill="#2a2118" opacity="0.6"/>
<line x1="200" y1="190.4" x2="200" y2="230" stroke="#2a2118" stroke-width="3.6" opacity="0.6" stroke-linecap="round"/>
<line x1="200" y1="230" x2="189.2" y2="258.8" stroke="#2a2118" stroke-width="3.6" opacity="0.6" stroke-linecap="round"/>
<line x1="200" y1="230" x2="210.8" y2="258.8" stroke="#2a2118" stroke-width="3.6" opacity="0.6" stroke-linecap="round"/>
<line x1="200" y1="201.2" x2="174.8" y2="212.0" stroke="#2a2118" stroke-width="2.7" opacity="0.6" stroke-linecap="round"/>
<line x1="200" y1="201.2" x2="225.2" y2="212.0" stroke="#2a2118" stroke-width="2.7" opacity="0.6" stroke-linecap="round"/>
<circle cx="280" cy="210.8" r="8.399999999999999" fill="#2a2118" opacity="0.6"/>
<line x1="280" y1="219.2" x2="280" y2="250" stroke="#2a2118" stroke-width="2.8" opacity="0.6" stroke-linecap="round"/>
<line x1="280" y1="250" x2="271.6" y2="272.4" stroke="#2a2118" stroke-width="2.8" opacity="0.6" stroke-linecap="round"/>
<line x1="280" y1="250" x2="288.4" y2="272.4" stroke="#2a2118" stroke-width="2.8" opacity="0.6" stroke-linecap="round"/>
<line x1="280" y1="227.6" x2="263.2" y2="233.2" stroke="#2a2118" stroke-width="2.0999999999999996" opacity="0.6" stroke-linecap="round"/>
<line x1="280" y1="227.6" x2="296.8" y2="222.0" stroke="#2a2118" stroke-width="2.0999999999999996" opacity="0.6" stroke-linecap="round"/>
<line x1="60" y1="305" x2="340" y2="305" stroke="#2a2118" stroke-width="0.5" opacity="0.15"/>
</svg>