<svg xmlns="http://www.w3.org/2000/svg" viewBox="0 0 400 400" width="400" height="400">
  <rect width="400" height="400" fill="#faf6f0"/>
  <rect x="40" y="40" width="320" height="320" fill="#ffffff" stroke="#1a1a1a" stroke-width="1.5" rx="2"/>
  <line x1="40" y1="104" x2="360" y2="104" stroke="#1a1a1a" stroke-width="1"/>
  <line x1="104" y1="40" x2="104" y2="360" stroke="#1a1a1a" stroke-width="1"/>
  <line x1="40" y1="168" x2="360" y2="168" stroke="#1a1a1a" stroke-width="1"/>
  <line x1="168" y1="40" x2="168" y2="360" stroke="#1a1a1a" stroke-width="1"/>
  <line x1="40" y1="232" x2="360" y2="232" stroke="#1a1a1a" stroke-width="1"/>
  <line x1="232" y1="40" x2="232" y2="360" stroke="#1a1a1a" stroke-width="1"/>
  <line x1="40" y1="296" x2="360" y2="296" stroke="#1a1a1a" stroke-width="1"/>
  <line x1="296" y1="40" x2="296" y2="360" stroke="#1a1a1a" stroke-width="1"/>
  <circle cx="72" cy="72" r="13" fill="#1a1a1a" opacity="0.7"/>
  <circle cx="136" cy="72" r="13" fill="#1a1a1a" opacity="0.7"/>
  <circle cx="200" cy="72" r="13" fill="#1a1a1a" opacity="0.7"/>
  <circle cx="264" cy="72" r="13" fill="#1a1a1a" opacity="0.7"/>
  <circle cx="328" cy="72" r="13" fill="#1a1a1a" opacity="0.7"/>
  <circle cx="72" cy="136" r="13" fill="#1a1a1a" opacity="0.7"/>
  <circle cx="136" cy="136" r="13" fill="#1a1a1a" opacity="0.7"/>
  <circle cx="200" cy="136" r="13" fill="#1a1a1a" opacity="0.7"/>
  <circle cx="264" cy="136" r="13" fill="#1a1a1a" opacity="0.7"/>
  <circle cx="328" cy="136" r="13" fill="#1a1a1a" opacity="0.7"/>
  <circle cx="72" cy="200" r="13" fill="#1a1a1a" opacity="0.7"/>
  <circle cx="136" cy="200" r="13" fill="#1a1a1a" opacity="0.7"/>
  <circle cx="200" cy="200" r="13" fill="#1a1a1a" opacity="0.7"/>
  <circle cx="264" cy="200" r="13" fill="#1a1a1a" opacity="0.7"/>
  <circle cx="328" cy="200" r="13" fill="#1a1a1a" opacity="0.7"/>
  <circle cx="72" cy="264" r="13" fill="#1a1a1a" opacity="0.7"/>
  <circle cx="136" cy="264" r="13" fill="#1a1a1a" opacity="0.7"/>
  <circle cx="200" cy="264" r="13" fill="#1a1a1a" opacity="0.7"/>
  <circle cx="264" cy="264" r="13" fill="#1a1a1a" opacity="0.7"/>
  <circle cx="328" cy="264" r="13" fill="#1a1a1a" opacity="0.7"/>
  <circle cx="72" cy="328" r="13" fill="#1a1a1a" opacity="0.7"/>
  <circle cx="136" cy="328" r="13" fill="#1a1a1a" opacity="0.7"/>
  <circle cx="200" cy="328" r="13" fill="#1a1a1a" opacity="0.7"/>
  <circle cx="264" cy="328" r="13" fill="#1a1a1a" opacity="0.7"/>
  <circle cx="328" cy="328" r="13" fill="#1a1a1a" opacity="0.7"/>
</svg>