<svg xmlns="http://www.w3.org/2000/svg" viewBox="0 0 400 400" width="400" height="400">
<rect width="400" height="400" fill="#faf6f0"/>
<rect x="20" y="20" width="360" height="360" rx="4" fill="none" stroke="#2a2118" stroke-width="0.5" opacity="0.12"/>
<rect x="190.4" y="235" width="19.2" height="24.0" rx="2.4" fill="#e8ddd0" stroke="#2a2118" stroke-width="0.96" opacity="0.4"/>
<rect x="190.4" y="223.0" width="19.2" height="16.8" rx="2.4" fill="#e8ddd0" stroke="#2a2118" stroke-width="0.96" opacity="0.4"/>
<circle cx="200" cy="195.0" r="7.5" fill="#2a2118" opacity="0.55"/>
<line x1="200" y1="202.5" x2="200" y2="225" stroke="#2a2118" stroke-width="3.0" opacity="0.55" stroke-linecap="round"/>
<line x1="200" y1="210.0" x2="215.0" y2="216.0" stroke="#2a2118" stroke-width="2.25" opacity="0.55" stroke-linecap="round"/>
<line x1="200" y1="210.0" x2="185.0" y2="216.0" stroke="#2a2118" stroke-width="2.25" opacity="0.55" stroke-linecap="round"/>
<line x1="200" y1="225" x2="209.0" y2="240.0" stroke="#2a2118" stroke-width="3.0" opacity="0.55" stroke-linecap="round"/>
<line x1="209.0" y1="240.0" x2="209.0" y2="252.0" stroke="#2a2118" stroke-width="3.0" opacity="0.55" stroke-linecap="round"/>
<circle cx="100" cy="242.0" r="6.0" fill="#2a2118" opacity="0.6"/>
<line x1="100" y1="248.0" x2="100" y2="270" stroke="#2a2118" stroke-width="2.0" opacity="0.6" stroke-linecap="round"/>
<line x1="100" y1="270" x2="94.0" y2="286.0" stroke="#2a2118" stroke-width="2.0" opacity="0.6" stroke-linecap="round"/>
<line x1="100" y1="270" x2="106.0" y2="286.0" stroke="#2a2118" stroke-width="2.0" opacity="0.6" stroke-linecap="round"/>
<line x1="100" y1="254.0" x2="92.0" y2="264.0" stroke="#2a2118" stroke-width="1.5" opacity="0.6" stroke-linecap="round"/>
<line x1="100" y1="254.0" x2="112.0" y2="248.0" stroke="#2a2118" stroke-width="1.5" opacity="0.6" stroke-linecap="round"/>
<circle cx="130" cy="242.0" r="6.0" fill="#2a2118" opacity="0.6"/>
<line x1="130" y1="248.0" x2="130" y2="270" stroke="#2a2118" stroke-width="2.0" opacity="0.6" stroke-linecap="round"/>
<line x1="130" y1="270" x2="124.0" y2="286.0" stroke="#2a2118" stroke-width="2.0" opacity="0.6" stroke-linecap="round"/>
<line x1="130" y1="270" x2="136.0" y2="286.0" stroke="#2a2118" stroke-width="2.0" opacity="0.6" stroke-linecap="round"/>
<line x1="130" y1="254.0" x2="122.0" y2="264.0" stroke="#2a2118" stroke-width="1.5" opacity="0.6" stroke-linecap="round"/>
<line x1="130" y1="254.0" x2="142.0" y2="248.0" stroke="#2a2118" stroke-width="1.5" opacity="0.6" stroke-linecap="round"/>
<circle cx="270" cy="242.0" r="6.0" fill="#2a2118" opacity="0.6"/>
<line x1="270" y1="248.0" x2="270" y2="270" stroke="#2a2118" stroke-width="2.0" opacity="0.6" stroke-linecap="round"/>
<line x1="270" y1="270" x2="264.0" y2="286.0" stroke="#2a2118" stroke-width="2.0" opacity="0.6" stroke-linecap="round"/>
<line x1="270" y1="270" x2="276.0" y2="286.0" stroke="#2a2118" stroke-width="2.0" opacity="0.6" stroke-linecap="round"/>
<line x1="270" y1="254.0" x2="262.0" y2="264.0" stroke="#2a2118" stroke-width="1.5" opacity="0.6" stroke-linecap="round"/>
<line x1="270" y1="254.0" x2="282.0" y2="248.0" stroke="#2a2118" stroke-width="1.5" opacity="0.6" stroke-linecap="round"/>
<circle cx="300" cy="242.0" r="6.0" fill="#2a2118" opacity="0.6"/>
<line x1="300" y1="248.0" x2="300" y2="270" stroke="#2a2118" stroke-width="2.0" opacity="0.6" stroke-linecap="round"/>
<line x1="300" y1="270" x2="294.0" y2="286.0" stroke="#2a2118" stroke-width="2.0" opacity="0.6" stroke-linecap="round"/>
<line x1="300" y1="270" x2="306.0" y2="286.0" stroke="#2a2118" stroke-width="2.0" opacity="0.6" stroke-linecap="round"/>
<line x1="300" y1="254.0" x2="292.0" y2="264.0" stroke="#2a2118" stroke-width="1.5" opacity="0.6" stroke-linecap="round"/>
<line x1="300" y1="254.0" x2="312.0" y2="248.0" stroke="#2a2118" stroke-width="1.5" opacity="0.6" stroke-linecap="round"/>
<ellipse cx="150" cy="185" rx="16.0" ry="10.0" fill="#f5f0e6" stroke="#2a2118" stroke-width="0.8" opacity="0.5"/>
<text x="150" y="189.0" text-anchor="middle" font-family="Georgia, serif" font-size="11.0" fill="#2a2118" opacity="0.6">?</text>
<ellipse cx="250" cy="190" rx="16.0" ry="10.0" fill="#f5f0e6" stroke="#2a2118" stroke-width="0.8" opacity="0.5"/>
<text x="250" y="194.0" text-anchor="middle" font-family="Georgia, serif" font-size="11.0" fill="#2a2118" opacity="0.6">!</text>
</svg>