<svg xmlns="http://www.w3.org/2000/svg" viewBox="0 0 400 400" width="400" height="400">
<rect width="400" height="400" fill="#faf6f0"/>
<rect x="20" y="20" width="360" height="360" rx="4" fill="none" stroke="#2a2118" stroke-width="0.5" opacity="0.12"/>
<circle cx="200" cy="209.6" r="10.8" fill="#2a2118" opacity="0.6"/>
<line x1="200" y1="220.4" x2="200" y2="260" stroke="#2a2118" stroke-width="3.6" opacity="0.6" stroke-linecap="round"/>
<line x1="200" y1="260" x2="189.2" y2="288.8" stroke="#2a2118" stroke-width="3.6" opacity="0.6" stroke-linecap="round"/>
<line x1="200" y1="260" x2="210.8" y2="288.8" stroke="#2a2118" stroke-width="3.6" opacity="0.6" stroke-linecap="round"/>
<line x1="200" y1="231.2" x2="182.0" y2="209.6" stroke="#2a2118" stroke-width="2.7" opacity="0.6" stroke-linecap="round"/>
<line x1="200" y1="231.2" x2="218.0" y2="209.6" stroke="#2a2118" stroke-width="2.7" opacity="0.6" stroke-linecap="round"/>
<circle cx="180" cy="175" r="19" fill="none" stroke="#2a2118" stroke-width="2" opacity="0.4"/>
<circle cx="210" cy="175" r="19" fill="none" stroke="#2a2118" stroke-width="2" opacity="0.4"/>
<circle cx="220" cy="170" r="15" fill="none" stroke="#2a2118" stroke-width="1.5" opacity="0.3"/>
<path d="M223.97777478867204,179.7645713530756 L224.87777478867204,181.8645713530756 L226.97777478867204,182.7645713530756 L224.87777478867204,183.66457135307562 L223.97777478867204,185.7645713530756 L223.07777478867203,183.66457135307562 L220.97777478867204,182.7645713530756 L223.07777478867203,181.8645713530756Z" fill="#8b4513" opacity="0.3"/>
<path d="M187.23542864692436,200.97777478867204 L188.13542864692437,203.07777478867203 L190.23542864692436,203.97777478867204 L188.13542864692437,204.87777478867204 L187.23542864692436,206.97777478867204 L186.33542864692436,204.87777478867204 L184.23542864692436,203.97777478867204 L186.33542864692436,203.07777478867203Z" fill="#8b4513" opacity="0.3"/>
<path d="M166.02222521132796,164.2354286469244 L166.92222521132797,166.33542864692438 L169.02222521132796,167.2354286469244 L166.92222521132797,168.1354286469244 L166.02222521132796,170.2354286469244 L165.12222521132796,168.1354286469244 L163.02222521132796,167.2354286469244 L165.12222521132796,166.33542864692438Z" fill="#8b4513" opacity="0.3"/>
<path d="M202.7645713530756,143.02222521132794 L203.66457135307562,145.12222521132793 L205.7645713530756,146.02222521132794 L203.66457135307562,146.92222521132794 L202.7645713530756,149.02222521132794 L201.8645713530756,146.92222521132794 L199.7645713530756,146.02222521132794 L201.8645713530756,145.12222521132793Z" fill="#8b4513" opacity="0.3"/>
</svg>