<svg xmlns="http://www.w3.org/2000/svg" viewBox="0 0 400 400" width="400" height="400">
<rect width="400" height="400" fill="#faf6f0"/>
<rect x="20" y="20" width="360" height="360" rx="4" fill="none" stroke="#2a2118" stroke-width="0.5" opacity="0.12"/>
<circle cx="80" cy="218.6" r="7.800000000000001" fill="#2a2118" opacity="0.6"/>
<line x1="80" y1="226.4" x2="80" y2="255" stroke="#2a2118" stroke-width="2.6" opacity="0.6" stroke-linecap="round"/>
<line x1="80" y1="255" x2="72.2" y2="275.8" stroke="#2a2118" stroke-width="2.6" opacity="0.6" stroke-linecap="round"/>
<line x1="80" y1="255" x2="87.8" y2="275.8" stroke="#2a2118" stroke-width="2.6" opacity="0.6" stroke-linecap="round"/>
<line x1="80" y1="234.2" x2="69.6" y2="249.8" stroke="#2a2118" stroke-width="1.9500000000000002" opacity="0.6" stroke-linecap="round"/>
<line x1="80" y1="234.2" x2="90.4" y2="249.8" stroke="#2a2118" stroke-width="1.9500000000000002" opacity="0.6" stroke-linecap="round"/>
<circle cx="115" cy="218.6" r="7.800000000000001" fill="#2a2118" opacity="0.6"/>
<line x1="115" y1="226.4" x2="115" y2="255" stroke="#2a2118" stroke-width="2.6" opacity="0.6" stroke-linecap="round"/>
<line x1="115" y1="255" x2="107.2" y2="275.8" stroke="#2a2118" stroke-width="2.6" opacity="0.6" stroke-linecap="round"/>
<line x1="115" y1="255" x2="122.8" y2="275.8" stroke="#2a2118" stroke-width="2.6" opacity="0.6" stroke-linecap="round"/>
<line x1="115" y1="234.2" x2="104.6" y2="249.8" stroke="#2a2118" stroke-width="1.9500000000000002" opacity="0.6" stroke-linecap="round"/>
<line x1="115" y1="234.2" x2="125.4" y2="249.8" stroke="#2a2118" stroke-width="1.9500000000000002" opacity="0.6" stroke-linecap="round"/>
<circle cx="150" cy="218.6" r="7.800000000000001" fill="#2a2118" opacity="0.6"/>
<line x1="150" y1="226.4" x2="150" y2="255" stroke="#2a2118" stroke-width="2.6" opacity="0.6" stroke-linecap="round"/>
<line x1="150" y1="255" x2="142.2" y2="275.8" stroke="#2a2118" stroke-width="2.6" opacity="0.6" stroke-linecap="round"/>
<line x1="150" y1="255" x2="157.8" y2="275.8" stroke="#2a2118" stroke-width="2.6" opacity="0.6" stroke-linecap="round"/>
<line x1="150" y1="234.2" x2="139.6" y2="249.8" stroke="#2a2118" stroke-width="1.9500000000000002" opacity="0.6" stroke-linecap="round"/>
<line x1="150" y1="234.2" x2="160.4" y2="249.8" stroke="#2a2118" stroke-width="1.9500000000000002" opacity="0.6" stroke-linecap="round"/>
<circle cx="250" cy="218.6" r="7.800000000000001" fill="#2a2118" opacity="0.6"/>
<line x1="250" y1="226.4" x2="250" y2="255" stroke="#2a2118" stroke-width="2.6" opacity="0.6" stroke-linecap="round"/>
<line x1="250" y1="255" x2="242.2" y2="275.8" stroke="#2a2118" stroke-width="2.6" opacity="0.6" stroke-linecap="round"/>
<line x1="250" y1="255" x2="257.8" y2="275.8" stroke="#2a2118" stroke-width="2.6" opacity="0.6" stroke-linecap="round"/>
<line x1="250" y1="234.2" x2="239.6" y2="249.8" stroke="#2a2118" stroke-width="1.9500000000000002" opacity="0.6" stroke-linecap="round"/>
<line x1="250" y1="234.2" x2="260.4" y2="249.8" stroke="#2a2118" stroke-width="1.9500000000000002" opacity="0.6" stroke-linecap="round"/>
<circle cx="285" cy="218.6" r="7.800000000000001" fill="#2a2118" opacity="0.6"/>
<line x1="285" y1="226.4" x2="285" y2="255" stroke="#2a2118" stroke-width="2.6" opacity="0.6" stroke-linecap="round"/>
<line x1="285" y1="255" x2="277.2" y2="275.8" stroke="#2a2118" stroke-width="2.6" opacity="0.6" stroke-linecap="round"/>
<line x1="285" y1="255" x2="292.8" y2="275.8" stroke="#2a2118" stroke-width="2.6" opacity="0.6" stroke-linecap="round"/>
<line x1="285" y1="234.2" x2="274.6" y2="249.8" stroke="#2a2118" stroke-width="1.9500000000000002" opacity="0.6" stroke-linecap="round"/>
<line x1="285" y1="234.2" x2="295.4" y2="249.8" stroke="#2a2118" stroke-width="1.9500000000000002" opacity="0.6" stroke-linecap="round"/>
<circle cx="320" cy="218.6" r="7.800000000000001" fill="#2a2118" opacity="0.6"/>
<line x1="320" y1="226.4" x2="320" y2="255" stroke="#2a2118" stroke-width="2.6" opacity="0.6" stroke-linecap="round"/>
<line x1="320" y1="255" x2="312.2" y2="275.8" stroke="#2a2118" stroke-width="2.6" opacity="0.6" stroke-linecap="round"/>
<line x1="320" y1="255" x2="327.8" y2="275.8" stroke="#2a2118" stroke-width="2.6" opacity="0.6" stroke-linecap="round"/>
<line x1="320" y1="234.2" x2="309.6" y2="249.8" stroke="#2a2118" stroke-width="1.9500000000000002" opacity="0.6" stroke-linecap="round"/>
<line x1="320" y1="234.2" x2="330.4" y2="249.8" stroke="#2a2118" stroke-width="1.9500000000000002" opacity="0.6" stroke-linecap="round"/>
<ellipse cx="200" cy="185" rx="28.8" ry="18.0" fill="#f5f0e6" stroke="#2a2118" stroke-width="1.4400000000000002" opacity="0.5"/>
<text x="200" y="192.2" text-anchor="middle" font-family="Georgia, serif" font-size="19.8" fill="#2a2118" opacity="0.6">?</text>
</svg>