<svg xmlns="http://www.w3.org/2000/svg" viewBox="0 0 400 400" width="400" height="400">
<rect width="400" height="400" fill="#faf6f0"/>
<rect x="20" y="20" width="360" height="360" rx="4" fill="none" stroke="#2a2118" stroke-width="0.5" opacity="0.12"/>
<circle cx="90" cy="226.4" r="7.199999999999999" fill="#2a2118" opacity="0.6"/>
<line x1="90" y1="233.6" x2="90" y2="260" stroke="#2a2118" stroke-width="2.4" opacity="0.6" stroke-linecap="round"/>
<line x1="90" y1="260" x2="82.8" y2="279.2" stroke="#2a2118" stroke-width="2.4" opacity="0.6" stroke-linecap="round"/>
<line x1="90" y1="260" x2="97.2" y2="279.2" stroke="#2a2118" stroke-width="2.4" opacity="0.6" stroke-linecap="round"/>
<line x1="90" y1="240.8" x2="80.4" y2="255.2" stroke="#2a2118" stroke-width="1.7999999999999998" opacity="0.6" stroke-linecap="round"/>
<line x1="90" y1="240.8" x2="99.6" y2="255.2" stroke="#2a2118" stroke-width="1.7999999999999998" opacity="0.6" stroke-linecap="round"/>
<circle cx="120" cy="226.4" r="7.199999999999999" fill="#2a2118" opacity="0.6"/>
<line x1="120" y1="233.6" x2="120" y2="260" stroke="#2a2118" stroke-width="2.4" opacity="0.6" stroke-linecap="round"/>
<line x1="120" y1="260" x2="112.8" y2="279.2" stroke="#2a2118" stroke-width="2.4" opacity="0.6" stroke-linecap="round"/>
<line x1="120" y1="260" x2="127.2" y2="279.2" stroke="#2a2118" stroke-width="2.4" opacity="0.6" stroke-linecap="round"/>
<line x1="120" y1="240.8" x2="110.4" y2="255.2" stroke="#2a2118" stroke-width="1.7999999999999998" opacity="0.6" stroke-linecap="round"/>
<line x1="120" y1="240.8" x2="129.6" y2="255.2" stroke="#2a2118" stroke-width="1.7999999999999998" opacity="0.6" stroke-linecap="round"/>
<circle cx="150" cy="226.4" r="7.199999999999999" fill="#2a2118" opacity="0.6"/>
<line x1="150" y1="233.6" x2="150" y2="260" stroke="#2a2118" stroke-width="2.4" opacity="0.6" stroke-linecap="round"/>
<line x1="150" y1="260" x2="142.8" y2="279.2" stroke="#2a2118" stroke-width="2.4" opacity="0.6" stroke-linecap="round"/>
<line x1="150" y1="260" x2="157.2" y2="279.2" stroke="#2a2118" stroke-width="2.4" opacity="0.6" stroke-linecap="round"/>
<line x1="150" y1="240.8" x2="140.4" y2="255.2" stroke="#2a2118" stroke-width="1.7999999999999998" opacity="0.6" stroke-linecap="round"/>
<line x1="150" y1="240.8" x2="159.6" y2="255.2" stroke="#2a2118" stroke-width="1.7999999999999998" opacity="0.6" stroke-linecap="round"/>
<circle cx="260" cy="226.4" r="7.199999999999999" fill="#2a2118" opacity="0.6"/>
<line x1="260" y1="233.6" x2="260" y2="260" stroke="#2a2118" stroke-width="2.4" opacity="0.6" stroke-linecap="round"/>
<line x1="260" y1="260" x2="252.8" y2="279.2" stroke="#2a2118" stroke-width="2.4" opacity="0.6" stroke-linecap="round"/>
<line x1="260" y1="260" x2="267.2" y2="279.2" stroke="#2a2118" stroke-width="2.4" opacity="0.6" stroke-linecap="round"/>
<line x1="260" y1="240.8" x2="250.4" y2="255.2" stroke="#2a2118" stroke-width="1.7999999999999998" opacity="0.6" stroke-linecap="round"/>
<line x1="260" y1="240.8" x2="269.6" y2="255.2" stroke="#2a2118" stroke-width="1.7999999999999998" opacity="0.6" stroke-linecap="round"/>
<circle cx="290" cy="226.4" r="7.199999999999999" fill="#2a2118" opacity="0.6"/>
<line x1="290" y1="233.6" x2="290" y2="260" stroke="#2a2118" stroke-width="2.4" opacity="0.6" stroke-linecap="round"/>
<line x1="290" y1="260" x2="282.8" y2="279.2" stroke="#2a2118" stroke-width="2.4" opacity="0.6" stroke-linecap="round"/>
<line x1="290" y1="260" x2="297.2" y2="279.2" stroke="#2a2118" stroke-width="2.4" opacity="0.6" stroke-linecap="round"/>
<line x1="290" y1="240.8" x2="280.4" y2="255.2" stroke="#2a2118" stroke-width="1.7999999999999998" opacity="0.6" stroke-linecap="round"/>
<line x1="290" y1="240.8" x2="299.6" y2="255.2" stroke="#2a2118" stroke-width="1.7999999999999998" opacity="0.6" stroke-linecap="round"/>
<circle cx="320" cy="226.4" r="7.199999999999999" fill="#2a2118" opacity="0.6"/>
<line x1="320" y1="233.6" x2="320" y2="260" stroke="#2a2118" stroke-width="2.4" opacity="0.6" stroke-linecap="round"/>
<line x1="320" y1="260" x2="312.8" y2="279.2" stroke="#2a2118" stroke-width="2.4" opacity="0.6" stroke-linecap="round"/>
<line x1="320" y1="260" x2="327.2" y2="279.2" stroke="#2a2118" stroke-width="2.4" opacity="0.6" stroke-linecap="round"/>
<line x1="320" y1="240.8" x2="310.4" y2="255.2" stroke="#2a2118" stroke-width="1.7999999999999998" opacity="0.6" stroke-linecap="round"/>
<line x1="320" y1="240.8" x2="329.6" y2="255.2" stroke="#2a2118" stroke-width="1.7999999999999998" opacity="0.6" stroke-linecap="round"/>
<line x1="200" y1="180" x2="200" y2="300" stroke="#2a2118" stroke-width="0.5" stroke-dasharray="4,4" opacity="0.15"/>
<ellipse cx="140" cy="195" rx="16.0" ry="10.0" fill="#f5f0e6" stroke="#2a2118" stroke-width="0.8" opacity="0.5"/>
<text x="140" y="199.0" text-anchor="middle" font-family="Georgia, serif" font-size="11.0" fill="#2a2118" opacity="0.6">...</text>
<ellipse cx="260" cy="195" rx="16.0" ry="10.0" fill="#f5f0e6" stroke="#2a2118" stroke-width="0.8" opacity="0.5"/>
<text x="260" y="199.0" text-anchor="middle" font-family="Georgia, serif" font-size="11.0" fill="#2a2118" opacity="0.6">...</text>
</svg>