<svg xmlns="http://www.w3.org/2000/svg" viewBox="0 0 400 400" width="400" height="400">
<rect width="400" height="400" fill="#faf6f0"/>
<rect x="20" y="20" width="360" height="360" rx="4" fill="none" stroke="#2a2118" stroke-width="0.5" opacity="0.12"/>
<circle cx="200.0" cy="131.72" r="4.5600000000000005" fill="#2a2118" opacity="0.6"/>
<line x1="200.0" y1="136.28" x2="200.0" y2="153.0" stroke="#2a2118" stroke-width="1.52" opacity="0.6" stroke-linecap="round"/>
<line x1="200.0" y1="153.0" x2="195.44" y2="165.16" stroke="#2a2118" stroke-width="1.52" opacity="0.6" stroke-linecap="round"/>
<line x1="200.0" y1="153.0" x2="204.56" y2="165.16" stroke="#2a2118" stroke-width="1.52" opacity="0.6" stroke-linecap="round"/>
<line x1="200.0" y1="140.84" x2="193.92" y2="149.96" stroke="#2a2118" stroke-width="1.1400000000000001" opacity="0.6" stroke-linecap="round"/>
<line x1="200.0" y1="140.84" x2="206.08" y2="149.96" stroke="#2a2118" stroke-width="1.1400000000000001" opacity="0.6" stroke-linecap="round"/>
<circle cx="262.3538290724796" cy="167.72" r="4.5600000000000005" fill="#2a2118" opacity="0.6"/>
<line x1="262.3538290724796" y1="172.28" x2="262.3538290724796" y2="189.0" stroke="#2a2118" stroke-width="1.52" opacity="0.6" stroke-linecap="round"/>
<line x1="262.3538290724796" y1="189.0" x2="257.7938290724796" y2="201.16" stroke="#2a2118" stroke-width="1.52" opacity="0.6" stroke-linecap="round"/>
<line x1="262.3538290724796" y1="189.0" x2="266.9138290724796" y2="201.16" stroke="#2a2118" stroke-width="1.52" opacity="0.6" stroke-linecap="round"/>
<line x1="262.3538290724796" y1="176.84" x2="256.2738290724796" y2="185.96" stroke="#2a2118" stroke-width="1.1400000000000001" opacity="0.6" stroke-linecap="round"/>
<line x1="262.3538290724796" y1="176.84" x2="268.43382907247957" y2="185.96" stroke="#2a2118" stroke-width="1.1400000000000001" opacity="0.6" stroke-linecap="round"/>
<circle cx="262.3538290724796" cy="239.72" r="4.5600000000000005" fill="#2a2118" opacity="0.6"/>
<line x1="262.3538290724796" y1="244.28" x2="262.3538290724796" y2="261.0" stroke="#2a2118" stroke-width="1.52" opacity="0.6" stroke-linecap="round"/>
<line x1="262.3538290724796" y1="261.0" x2="257.7938290724796" y2="273.16" stroke="#2a2118" stroke-width="1.52" opacity="0.6" stroke-linecap="round"/>
<line x1="262.3538290724796" y1="261.0" x2="266.9138290724796" y2="273.16" stroke="#2a2118" stroke-width="1.52" opacity="0.6" stroke-linecap="round"/>
<line x1="262.3538290724796" y1="248.84" x2="256.2738290724796" y2="257.96" stroke="#2a2118" stroke-width="1.1400000000000001" opacity="0.6" stroke-linecap="round"/>
<line x1="262.3538290724796" y1="248.84" x2="268.43382907247957" y2="257.96" stroke="#2a2118" stroke-width="1.1400000000000001" opacity="0.6" stroke-linecap="round"/>
<circle cx="200.0" cy="275.72" r="4.5600000000000005" fill="#2a2118" opacity="0.6"/>
<line x1="200.0" y1="280.28" x2="200.0" y2="297.0" stroke="#2a2118" stroke-width="1.52" opacity="0.6" stroke-linecap="round"/>
<line x1="200.0" y1="297.0" x2="195.44" y2="309.16" stroke="#2a2118" stroke-width="1.52" opacity="0.6" stroke-linecap="round"/>
<line x1="200.0" y1="297.0" x2="204.56" y2="309.16" stroke="#2a2118" stroke-width="1.52" opacity="0.6" stroke-linecap="round"/>
<line x1="200.0" y1="284.84" x2="193.92" y2="293.96" stroke="#2a2118" stroke-width="1.1400000000000001" opacity="0.6" stroke-linecap="round"/>
<line x1="200.0" y1="284.84" x2="206.08" y2="293.96" stroke="#2a2118" stroke-width="1.1400000000000001" opacity="0.6" stroke-linecap="round"/>
<circle cx="137.64617092752042" cy="239.72" r="4.5600000000000005" fill="#2a2118" opacity="0.6"/>
<line x1="137.64617092752042" y1="244.28" x2="137.64617092752042" y2="261.0" stroke="#2a2118" stroke-width="1.52" opacity="0.6" stroke-linecap="round"/>
<line x1="137.64617092752042" y1="261.0" x2="133.0861709275204" y2="273.16" stroke="#2a2118" stroke-width="1.52" opacity="0.6" stroke-linecap="round"/>
<line x1="137.64617092752042" y1="261.0" x2="142.20617092752042" y2="273.16" stroke="#2a2118" stroke-width="1.52" opacity="0.6" stroke-linecap="round"/>
<line x1="137.64617092752042" y1="248.84" x2="131.5661709275204" y2="257.96" stroke="#2a2118" stroke-width="1.1400000000000001" opacity="0.6" stroke-linecap="round"/>
<line x1="137.64617092752042" y1="248.84" x2="143.72617092752043" y2="257.96" stroke="#2a2118" stroke-width="1.1400000000000001" opacity="0.6" stroke-linecap="round"/>
<circle cx="137.64617092752042" cy="167.72" r="4.5600000000000005" fill="#2a2118" opacity="0.6"/>
<line x1="137.64617092752042" y1="172.28" x2="137.64617092752042" y2="189.0" stroke="#2a2118" stroke-width="1.52" opacity="0.6" stroke-linecap="round"/>
<line x1="137.64617092752042" y1="189.0" x2="133.0861709275204" y2="201.16" stroke="#2a2118" stroke-width="1.52" opacity="0.6" stroke-linecap="round"/>
<line x1="137.64617092752042" y1="189.0" x2="142.20617092752042" y2="201.16" stroke="#2a2118" stroke-width="1.52" opacity="0.6" stroke-linecap="round"/>
<line x1="137.64617092752042" y1="176.84" x2="131.5661709275204" y2="185.96" stroke="#2a2118" stroke-width="1.1400000000000001" opacity="0.6" stroke-linecap="round"/>
<line x1="137.64617092752042" y1="176.84" x2="143.72617092752043" y2="185.96" stroke="#2a2118" stroke-width="1.1400000000000001" opacity="0.6" stroke-linecap="round"/>
<circle cx="200" cy="185.8" r="8.399999999999999" fill="#2a2118" opacity="0.6"/>
<line x1="200" y1="194.2" x2="200" y2="225" stroke="#2a2118" stroke-width="2.8" opacity="0.6" stroke-linecap="round"/>
<line x1="200" y1="225" x2="191.6" y2="247.4" stroke="#2a2118" stroke-width="2.8" opacity="0.6" stroke-linecap="round"/>
<line x1="200" y1="225" x2="208.4" y2="247.4" stroke="#2a2118" stroke-width="2.8" opacity="0.6" stroke-linecap="round"/>
<line x1="200" y1="202.6" x2="188.8" y2="216.6" stroke="#2a2118" stroke-width="2.0999999999999996" opacity="0.6" stroke-linecap="round"/>
<line x1="200" y1="202.6" x2="216.8" y2="194.2" stroke="#2a2118" stroke-width="2.0999999999999996" opacity="0.6" stroke-linecap="round"/>
<text x="230" y="170" font-family="Georgia, serif" font-size="24" fill="#8b4513" opacity="0.35">!</text>
</svg>