<svg xmlns="http://www.w3.org/2000/svg" viewBox="0 0 400 400" width="400" height="400">
<rect width="400" height="400" fill="#faf6f0"/>
<rect x="20" y="20" width="360" height="360" rx="4" fill="none" stroke="#2a2118" stroke-width="0.5" opacity="0.12"/>
<circle cx="200" cy="184.0" r="12.0" fill="#2a2118" opacity="0.6"/>
<line x1="200" y1="196.0" x2="200" y2="240" stroke="#2a2118" stroke-width="4.0" opacity="0.6" stroke-linecap="round"/>
<line x1="200" y1="240" x2="188.0" y2="272.0" stroke="#2a2118" stroke-width="4.0" opacity="0.6" stroke-linecap="round"/>
<line x1="200" y1="240" x2="212.0" y2="272.0" stroke="#2a2118" stroke-width="4.0" opacity="0.6" stroke-linecap="round"/>
<line x1="200" y1="208.0" x2="184.0" y2="228.0" stroke="#2a2118" stroke-width="3.0" opacity="0.6" stroke-linecap="round"/>
<line x1="200" y1="208.0" x2="224.0" y2="196.0" stroke="#2a2118" stroke-width="3.0" opacity="0.6" stroke-linecap="round"/>
<circle cx="235" cy="195" r="5" fill="#8b4513" opacity="0.5"/>
<circle cx="245" cy="210" r="4" fill="#8b4513" opacity="0.5"/>
<path d="M255.45481322062508,201.14110472164032 L256.3548132206251,203.2411047216403 L258.45481322062506,204.14110472164032 L256.3548132206251,205.04110472164032 L255.45481322062508,207.14110472164032 L254.55481322062508,205.04110472164032 L252.45481322062508,204.14110472164032 L254.55481322062508,203.2411047216403Z" fill="#8b4513" opacity="0.3"/>
<path d="M228.68629150101523,208.31370849898477 L229.58629150101524,210.41370849898476 L231.68629150101523,211.31370849898477 L229.58629150101524,212.21370849898477 L228.68629150101523,214.31370849898477 L227.78629150101523,212.21370849898477 L225.68629150101523,211.31370849898477 L227.78629150101523,210.41370849898476Z" fill="#8b4513" opacity="0.3"/>
<path d="M235.85889527835968,181.54518677937492 L236.7588952783597,183.6451867793749 L238.85889527835968,184.54518677937492 L236.7588952783597,185.44518677937492 L235.85889527835968,187.54518677937492 L234.95889527835968,185.44518677937492 L232.85889527835968,184.54518677937492 L234.95889527835968,183.6451867793749Z" fill="#8b4513" opacity="0.3"/>
</svg>