<svg xmlns="http://www.w3.org/2000/svg" viewBox="0 0 400 400" width="400" height="400">
<rect width="400" height="400" fill="#faf6f0"/>
<rect x="20" y="20" width="360" height="360" rx="4" fill="none" stroke="#2a2118" stroke-width="0.5" opacity="0.12"/>
<circle cx="200" cy="150.0" r="15.0" fill="#2a2118" opacity="0.6"/>
<line x1="200" y1="165.0" x2="200" y2="220" stroke="#2a2118" stroke-width="5.0" opacity="0.6" stroke-linecap="round"/>
<line x1="200" y1="220" x2="185.0" y2="260.0" stroke="#2a2118" stroke-width="5.0" opacity="0.6" stroke-linecap="round"/>
<line x1="200" y1="220" x2="215.0" y2="260.0" stroke="#2a2118" stroke-width="5.0" opacity="0.6" stroke-linecap="round"/>
<line x1="200" y1="180.0" x2="175.0" y2="150.0" stroke="#2a2118" stroke-width="3.75" opacity="0.6" stroke-linecap="round"/>
<line x1="200" y1="180.0" x2="225.0" y2="150.0" stroke="#2a2118" stroke-width="3.75" opacity="0.6" stroke-linecap="round"/>
<circle cx="100" cy="252.0" r="6.0" fill="#2a2118" opacity="0.6"/>
<line x1="100" y1="258.0" x2="100" y2="280" stroke="#2a2118" stroke-width="2.0" opacity="0.6" stroke-linecap="round"/>
<line x1="100" y1="280" x2="94.0" y2="296.0" stroke="#2a2118" stroke-width="2.0" opacity="0.6" stroke-linecap="round"/>
<line x1="100" y1="280" x2="106.0" y2="296.0" stroke="#2a2118" stroke-width="2.0" opacity="0.6" stroke-linecap="round"/>
<line x1="100" y1="264.0" x2="92.0" y2="276.0" stroke="#2a2118" stroke-width="1.5" opacity="0.6" stroke-linecap="round"/>
<line x1="100" y1="264.0" x2="108.0" y2="276.0" stroke="#2a2118" stroke-width="1.5" opacity="0.6" stroke-linecap="round"/>
<circle cx="300" cy="252.0" r="6.0" fill="#2a2118" opacity="0.6"/>
<line x1="300" y1="258.0" x2="300" y2="280" stroke="#2a2118" stroke-width="2.0" opacity="0.6" stroke-linecap="round"/>
<line x1="300" y1="280" x2="294.0" y2="296.0" stroke="#2a2118" stroke-width="2.0" opacity="0.6" stroke-linecap="round"/>
<line x1="300" y1="280" x2="306.0" y2="296.0" stroke="#2a2118" stroke-width="2.0" opacity="0.6" stroke-linecap="round"/>
<line x1="300" y1="264.0" x2="292.0" y2="276.0" stroke="#2a2118" stroke-width="1.5" opacity="0.6" stroke-linecap="round"/>
<line x1="300" y1="264.0" x2="308.0" y2="276.0" stroke="#2a2118" stroke-width="1.5" opacity="0.6" stroke-linecap="round"/>
<line x1="140" y1="305" x2="260" y2="305" stroke="#8b4513" stroke-width="1" opacity="0.2"/>
</svg>