<svg xmlns="http://www.w3.org/2000/svg" viewBox="0 0 400 400" width="400" height="400">
<rect width="400" height="400" fill="#faf6f0"/>
<rect x="20" y="20" width="360" height="360" rx="4" fill="none" stroke="#2a2118" stroke-width="0.5" opacity="0.12"/>
<circle cx="180" cy="189.0" r="12.0" fill="#2a2118" opacity="0.6"/>
<line x1="180" y1="201.0" x2="180" y2="245" stroke="#2a2118" stroke-width="4.0" opacity="0.6" stroke-linecap="round"/>
<line x1="180" y1="245" x2="168.0" y2="277.0" stroke="#2a2118" stroke-width="4.0" opacity="0.6" stroke-linecap="round"/>
<line x1="180" y1="245" x2="192.0" y2="277.0" stroke="#2a2118" stroke-width="4.0" opacity="0.6" stroke-linecap="round"/>
<line x1="180" y1="213.0" x2="164.0" y2="233.0" stroke="#2a2118" stroke-width="3.0" opacity="0.6" stroke-linecap="round"/>
<line x1="180" y1="213.0" x2="204.0" y2="201.0" stroke="#2a2118" stroke-width="3.0" opacity="0.6" stroke-linecap="round"/>
<circle cx="245" cy="200" r="14" fill="none" stroke="#2a2118" stroke-width="1.5" opacity="0.4"/>
<circle cx="245" cy="200" r="10" fill="#f5f0e6" opacity="0.3"/>
<line x1="245" y1="193" x2="245" y2="200" stroke="#2a2118" stroke-width="0.8" opacity="0.3"/>
<line x1="245" y1="200" x2="251" y2="204" stroke="#2a2118" stroke-width="0.8" opacity="0.3"/>
<path d="M266.2503681783595,202.69401899225545 L267.1503681783595,204.79401899225545 L269.2503681783595,205.69401899225545 L267.1503681783595,206.59401899225546 L266.2503681783595,208.69401899225545 L265.35036817835953,206.59401899225546 L263.2503681783595,205.69401899225545 L265.35036817835953,204.79401899225545Z" fill="#8b4513" opacity="0.3"/>
<path d="M229.44365081389594,212.55634918610406 L230.34365081389595,214.65634918610405 L232.44365081389594,215.55634918610406 L230.34365081389595,216.45634918610406 L229.44365081389594,218.55634918610406 L228.54365081389594,216.45634918610406 L226.44365081389594,215.55634918610406 L228.54365081389594,214.65634918610405Z" fill="#8b4513" opacity="0.3"/>
<path d="M239.30598100774455,175.7496318216405 L240.20598100774455,177.8496318216405 L242.30598100774455,178.7496318216405 L240.20598100774455,179.6496318216405 L239.30598100774455,181.7496318216405 L238.40598100774454,179.6496318216405 L236.30598100774455,178.7496318216405 L238.40598100774454,177.8496318216405Z" fill="#8b4513" opacity="0.3"/>
</svg>