<svg xmlns="http://www.w3.org/2000/svg" viewBox="0 0 400 400" width="400" height="400">
<rect width="400" height="400" fill="#faf6f0"/>
<rect x="20" y="20" width="360" height="360" rx="4" fill="none" stroke="#2a2118" stroke-width="0.5" opacity="0.12"/>
<circle cx="120" cy="198.0" r="9.0" fill="#2a2118" opacity="0.6"/>
<line x1="120" y1="207.0" x2="120" y2="240" stroke="#2a2118" stroke-width="3.0" opacity="0.6" stroke-linecap="round"/>
<line x1="120" y1="240" x2="111.0" y2="264.0" stroke="#2a2118" stroke-width="3.0" opacity="0.6" stroke-linecap="round"/>
<line x1="120" y1="240" x2="129.0" y2="264.0" stroke="#2a2118" stroke-width="3.0" opacity="0.6" stroke-linecap="round"/>
<line x1="120" y1="216.0" x2="105.0" y2="198.0" stroke="#2a2118" stroke-width="2.25" opacity="0.6" stroke-linecap="round"/>
<line x1="120" y1="216.0" x2="135.0" y2="198.0" stroke="#2a2118" stroke-width="2.25" opacity="0.6" stroke-linecap="round"/>
<circle cx="200" cy="202.4" r="10.2" fill="#2a2118" opacity="0.6"/>
<line x1="200" y1="212.6" x2="200" y2="250" stroke="#2a2118" stroke-width="3.4" opacity="0.6" stroke-linecap="round"/>
<line x1="200" y1="250" x2="189.8" y2="277.2" stroke="#2a2118" stroke-width="3.4" opacity="0.6" stroke-linecap="round"/>
<line x1="200" y1="250" x2="210.2" y2="277.2" stroke="#2a2118" stroke-width="3.4" opacity="0.6" stroke-linecap="round"/>
<line x1="200" y1="222.8" x2="176.2" y2="233.0" stroke="#2a2118" stroke-width="2.55" opacity="0.6" stroke-linecap="round"/>
<line x1="200" y1="222.8" x2="223.8" y2="233.0" stroke="#2a2118" stroke-width="2.55" opacity="0.6" stroke-linecap="round"/>
<circle cx="280" cy="190.2" r="9.600000000000001" fill="#2a2118" opacity="0.6"/>
<line x1="280" y1="199.8" x2="280" y2="235" stroke="#2a2118" stroke-width="3.2" opacity="0.6" stroke-linecap="round"/>
<line x1="280" y1="235" x2="270.4" y2="260.6" stroke="#2a2118" stroke-width="3.2" opacity="0.6" stroke-linecap="round"/>
<line x1="280" y1="235" x2="289.6" y2="260.6" stroke="#2a2118" stroke-width="3.2" opacity="0.6" stroke-linecap="round"/>
<line x1="280" y1="209.4" x2="267.2" y2="225.4" stroke="#2a2118" stroke-width="2.4000000000000004" opacity="0.6" stroke-linecap="round"/>
<line x1="280" y1="209.4" x2="299.2" y2="199.8" stroke="#2a2118" stroke-width="2.4000000000000004" opacity="0.6" stroke-linecap="round"/>
<line x1="60" y1="305" x2="340" y2="305" stroke="#2a2118" stroke-width="0.5" opacity="0.15"/>
</svg>