<svg xmlns="http://www.w3.org/2000/svg" viewBox="0 0 400 400" width="400" height="400">
  <rect width="400" height="400" fill="#faf6f0"/>
  <circle cx="200" cy="200" r="140" fill="none" stroke="#1a1a1a" stroke-width="1" opacity="0.3"/>
  <circle cx="200.0" cy="60.0" r="6" fill="#1a1a1a" opacity="0.7"/>
  <circle cx="243.3" cy="66.9" r="6" fill="#1a1a1a" opacity="0.7"/>
  <circle cx="282.3" cy="86.7" r="6" fill="#1a1a1a" opacity="0.7"/>
  <circle cx="313.3" cy="117.7" r="6" fill="#1a1a1a" opacity="0.7"/>
  <circle cx="333.1" cy="156.7" r="6" fill="#1a1a1a" opacity="0.7"/>
  <circle cx="340.0" cy="200.0" r="6" fill="#1a1a1a" opacity="0.7"/>
  <circle cx="333.1" cy="243.3" r="6" fill="#1a1a1a" opacity="0.7"/>
  <circle cx="313.3" cy="282.3" r="6" fill="#1a1a1a" opacity="0.7"/>
  <circle cx="282.3" cy="313.3" r="6" fill="#1a1a1a" opacity="0.7"/>
  <circle cx="243.3" cy="333.1" r="6" fill="#1a1a1a" opacity="0.7"/>
  <circle cx="200.0" cy="340.0" r="6" fill="#1a1a1a" opacity="0.7"/>
  <circle cx="156.7" cy="333.1" r="6" fill="#1a1a1a" opacity="0.7"/>
  <circle cx="117.7" cy="313.3" r="6" fill="#1a1a1a" opacity="0.7"/>
  <circle cx="86.7" cy="282.3" r="6" fill="#1a1a1a" opacity="0.7"/>
  <circle cx="66.9" cy="243.3" r="6" fill="#1a1a1a" opacity="0.7"/>
  <circle cx="60.0" cy="200.0" r="6" fill="#1a1a1a" opacity="0.7"/>
  <circle cx="66.9" cy="156.7" r="6" fill="#1a1a1a" opacity="0.7"/>
  <circle cx="86.7" cy="117.7" r="6" fill="#1a1a1a" opacity="0.7"/>
  <circle cx="117.7" cy="86.7" r="6" fill="#1a1a1a" opacity="0.7"/>
  <circle cx="156.7" cy="66.9" r="6" fill="#1a1a1a" opacity="0.7"/>
</svg>