<svg xmlns="http://www.w3.org/2000/svg" viewBox="0 0 400 400" width="400" height="400">
<rect width="400" height="400" fill="#faf6f0"/>
<rect x="20" y="20" width="360" height="360" rx="4" fill="none" stroke="#2a2118" stroke-width="0.5" opacity="0.12"/>
<rect x="100" y="235" width="200" height="8" rx="3" fill="#e8ddd0" stroke="#2a2118" stroke-width="1" opacity="0.3"/>
<line x1="108" y1="243" x2="108" y2="263" stroke="#2a2118" stroke-width="2" opacity="0.2"/>
<line x1="292" y1="243" x2="292" y2="263" stroke="#2a2118" stroke-width="2" opacity="0.2"/>
<circle cx="140" cy="211.0" r="6.0" fill="#2a2118" opacity="0.55"/>
<line x1="140" y1="217.0" x2="140" y2="235" stroke="#2a2118" stroke-width="2.4" opacity="0.55" stroke-linecap="round"/>
<line x1="140" y1="223.0" x2="154.4" y2="232.6" stroke="#2a2118" stroke-width="1.7999999999999998" opacity="0.55" stroke-linecap="round"/>
<line x1="140" y1="223.0" x2="132.8" y2="230.2" stroke="#2a2118" stroke-width="1.7999999999999998" opacity="0.55" stroke-linecap="round"/>
<line x1="140" y1="235" x2="147.2" y2="247.0" stroke="#2a2118" stroke-width="2.4" opacity="0.55" stroke-linecap="round"/>
<line x1="147.2" y1="247.0" x2="147.2" y2="256.6" stroke="#2a2118" stroke-width="2.4" opacity="0.55" stroke-linecap="round"/>
<rect x="145" y="207" width="27.0" height="34.2" rx="1" fill="#f5f0e6" stroke="#2a2118" stroke-width="0.54" opacity="0.5"/>
<line x1="148.6" y1="214.2" x2="168.4" y2="214.2" stroke="#a89a8a" stroke-width="0.36000000000000004" opacity="0.4"/>
<line x1="148.6" y1="220.5" x2="168.4" y2="220.5" stroke="#a89a8a" stroke-width="0.36000000000000004" opacity="0.4"/>
<line x1="148.6" y1="226.8" x2="168.4" y2="226.8" stroke="#a89a8a" stroke-width="0.36000000000000004" opacity="0.4"/>
<line x1="148.6" y1="233.1" x2="168.4" y2="233.1" stroke="#a89a8a" stroke-width="0.36000000000000004" opacity="0.4"/>
<circle cx="200" cy="211.0" r="6.0" fill="#2a2118" opacity="0.55"/>
<line x1="200" y1="217.0" x2="200" y2="235" stroke="#2a2118" stroke-width="2.4" opacity="0.55" stroke-linecap="round"/>
<line x1="200" y1="223.0" x2="214.4" y2="232.6" stroke="#2a2118" stroke-width="1.7999999999999998" opacity="0.55" stroke-linecap="round"/>
<line x1="200" y1="223.0" x2="192.8" y2="230.2" stroke="#2a2118" stroke-width="1.7999999999999998" opacity="0.55" stroke-linecap="round"/>
<line x1="200" y1="235" x2="207.2" y2="247.0" stroke="#2a2118" stroke-width="2.4" opacity="0.55" stroke-linecap="round"/>
<line x1="207.2" y1="247.0" x2="207.2" y2="256.6" stroke="#2a2118" stroke-width="2.4" opacity="0.55" stroke-linecap="round"/>
<rect x="205" y="207" width="27.0" height="34.2" rx="1" fill="#f5f0e6" stroke="#2a2118" stroke-width="0.54" opacity="0.5"/>
<line x1="208.6" y1="214.2" x2="228.4" y2="214.2" stroke="#a89a8a" stroke-width="0.36000000000000004" opacity="0.4"/>
<line x1="208.6" y1="220.5" x2="228.4" y2="220.5" stroke="#a89a8a" stroke-width="0.36000000000000004" opacity="0.4"/>
<line x1="208.6" y1="226.8" x2="228.4" y2="226.8" stroke="#a89a8a" stroke-width="0.36000000000000004" opacity="0.4"/>
<line x1="208.6" y1="233.1" x2="228.4" y2="233.1" stroke="#a89a8a" stroke-width="0.36000000000000004" opacity="0.4"/>
<line x1="210" y1="220" x2="230.0" y2="190.0" stroke="#2a2118" stroke-width="1.5" opacity="0.5" stroke-linecap="round"/>
<path d="M230.0,190.0 Q238.0,182.0 226.0,178.0 Q228.0,186.0 230.0,190.0" fill="#2a2118" opacity="0.4"/>
<ellipse cx="200" cy="168" rx="17.6" ry="11.0" fill="#f5f0e6" stroke="#2a2118" stroke-width="0.8800000000000001" opacity="0.5"/>
<text x="200" y="172.4" text-anchor="middle" font-family="Georgia, serif" font-size="12.100000000000001" fill="#2a2118" opacity="0.6">ABC</text>
</svg>