<svg xmlns="http://www.w3.org/2000/svg" viewBox="0 0 400 400" width="400" height="400">
  <rect width="400" height="400" fill="#faf6f0"/>
  <rect x="40" y="40" width="320" height="320" fill="#ffffff" stroke="#1a1a1a" stroke-width="1.5" rx="2"/>
  <line x1="40" y1="120" x2="360" y2="120" stroke="#1a1a1a" stroke-width="1"/>
  <line x1="120" y1="40" x2="120" y2="360" stroke="#1a1a1a" stroke-width="1"/>
  <line x1="40" y1="200" x2="360" y2="200" stroke="#1a1a1a" stroke-width="1"/>
  <line x1="200" y1="40" x2="200" y2="360" stroke="#1a1a1a" stroke-width="1"/>
  <line x1="40" y1="280" x2="360" y2="280" stroke="#1a1a1a" stroke-width="1"/>
  <line x1="280" y1="40" x2="280" y2="360" stroke="#1a1a1a" stroke-width="1"/>
  <circle cx="80" cy="80" r="16" fill="#1a1a1a" opacity="0.7"/>
  <circle cx="160" cy="80" r="16" fill="#1a1a1a" opacity="0.7"/>
  <circle cx="240" cy="80" r="16" fill="#1a1a1a" opacity="0.7"/>
  <circle cx="320" cy="80" r="16" fill="#1a1a1a" opacity="0.7"/>
  <circle cx="80" cy="160" r="16" fill="#1a1a1a" opacity="0.7"/>
  <circle cx="160" cy="160" r="16" fill="#1a1a1a" opacity="0.7"/>
  <circle cx="240" cy="160" r="16" fill="#1a1a1a" opacity="0.7"/>
  <circle cx="320" cy="160" r="16" fill="#1a1a1a" opacity="0.7"/>
  <circle cx="80" cy="240" r="16" fill="#1a1a1a" opacity="0.7"/>
  <circle cx="160" cy="240" r="16" fill="#1a1a1a" opacity="0.7"/>
  <circle cx="240" cy="240" r="16" fill="#1a1a1a" opacity="0.7"/>
  <circle cx="320" cy="240" r="16" fill="#1a1a1a" opacity="0.7"/>
  <circle cx="80" cy="320" r="16" fill="#1a1a1a" opacity="0.7"/>
  <circle cx="160" cy="320" r="16" fill="#1a1a1a" opacity="0.7"/>
  <circle cx="240" cy="320" r="16" fill="#1a1a1a" opacity="0.7"/>
  <circle cx="320" cy="320" r="16" fill="#1a1a1a" opacity="0.7"/>
</svg>