<svg xmlns="http://www.w3.org/2000/svg" viewBox="0 0 400 400" width="400" height="400">
<rect width="400" height="400" fill="#faf6f0"/>
<rect x="20" y="20" width="360" height="360" rx="4" fill="none" stroke="#2a2118" stroke-width="0.5" opacity="0.12"/>
<rect x="120" y="240" width="160" height="7" rx="3" fill="#e8ddd0" stroke="#2a2118" stroke-width="1" opacity="0.3"/>
<line x1="128" y1="247" x2="128" y2="267" stroke="#2a2118" stroke-width="2" opacity="0.2"/>
<line x1="272" y1="247" x2="272" y2="267" stroke="#2a2118" stroke-width="2" opacity="0.2"/>
<circle cx="200" cy="210.0" r="7.5" fill="#2a2118" opacity="0.55"/>
<line x1="200" y1="217.5" x2="200" y2="240" stroke="#2a2118" stroke-width="3.0" opacity="0.55" stroke-linecap="round"/>
<line x1="200" y1="225.0" x2="215.0" y2="231.0" stroke="#2a2118" stroke-width="2.25" opacity="0.55" stroke-linecap="round"/>
<line x1="200" y1="225.0" x2="185.0" y2="231.0" stroke="#2a2118" stroke-width="2.25" opacity="0.55" stroke-linecap="round"/>
<line x1="200" y1="240" x2="209.0" y2="255.0" stroke="#2a2118" stroke-width="3.0" opacity="0.55" stroke-linecap="round"/>
<line x1="209.0" y1="255.0" x2="209.0" y2="267.0" stroke="#2a2118" stroke-width="3.0" opacity="0.55" stroke-linecap="round"/>
<rect x="145" y="218" width="18" height="14" rx="2" fill="#e8ddd0" stroke="#2a2118" stroke-width="0.5" opacity="0.35" transform="rotate(-11,154,225)"/>
<rect x="180" y="219" width="18" height="14" rx="2" fill="#e8ddd0" stroke="#2a2118" stroke-width="0.5" opacity="0.35" transform="rotate(12,189,226)"/>
<rect x="215" y="220" width="18" height="14" rx="2" fill="#e8ddd0" stroke="#2a2118" stroke-width="0.5" opacity="0.35" transform="rotate(5,224,227)"/>
<rect x="250" y="221" width="18" height="14" rx="2" fill="#e8ddd0" stroke="#2a2118" stroke-width="0.5" opacity="0.35" transform="rotate(-2,259,228)"/>
<circle cx="225" cy="180" r="3" fill="#f5f0e6" stroke="#2a2118" stroke-width="0.4" opacity="0.3"/>
<circle cx="232" cy="170" r="4" fill="#f5f0e6" stroke="#2a2118" stroke-width="0.4" opacity="0.3"/>
<ellipse cx="245" cy="155" rx="18" ry="12" fill="#f5f0e6" stroke="#2a2118" stroke-width="0.5" opacity="0.3"/>
<text x="245" y="159" text-anchor="middle" font-family="Georgia, serif" font-size="10" fill="#2a2118" opacity="0.3">?</text>
</svg>