<svg xmlns="http://www.w3.org/2000/svg" viewBox="0 0 400 400" width="400" height="400">
<rect width="400" height="400" fill="#faf6f0"/>
<rect x="20" y="20" width="360" height="360" rx="4" fill="none" stroke="#2a2118" stroke-width="0.5" opacity="0.12"/>
<circle cx="180" cy="194.0" r="12.0" fill="#2a2118" opacity="0.6"/>
<line x1="180" y1="206.0" x2="180" y2="250" stroke="#2a2118" stroke-width="4.0" opacity="0.6" stroke-linecap="round"/>
<line x1="180" y1="250" x2="168.0" y2="282.0" stroke="#2a2118" stroke-width="4.0" opacity="0.6" stroke-linecap="round"/>
<line x1="180" y1="250" x2="192.0" y2="282.0" stroke="#2a2118" stroke-width="4.0" opacity="0.6" stroke-linecap="round"/>
<line x1="180" y1="218.0" x2="164.0" y2="238.0" stroke="#2a2118" stroke-width="3.0" opacity="0.6" stroke-linecap="round"/>
<line x1="180" y1="218.0" x2="204.0" y2="206.0" stroke="#2a2118" stroke-width="3.0" opacity="0.6" stroke-linecap="round"/>
<rect x="236" y="186" width="12" height="8" rx="1" fill="#f5f0e6" stroke="#2a2118" stroke-width="0.4" opacity="0.4" transform="rotate(246,242,190)"/>
<rect x="253" y="209" width="12" height="8" rx="1" fill="#f5f0e6" stroke="#2a2118" stroke-width="0.4" opacity="0.4" transform="rotate(291,259,213)"/>
<rect x="230" y="182" width="12" height="8" rx="1" fill="#f5f0e6" stroke="#2a2118" stroke-width="0.4" opacity="0.4" transform="rotate(336,236,186)"/>
<rect x="247" y="205" width="12" height="8" rx="1" fill="#f5f0e6" stroke="#2a2118" stroke-width="0.4" opacity="0.4" transform="rotate(21,253,209)"/>
</svg>