<svg xmlns="http://www.w3.org/2000/svg" viewBox="0 0 400 400" width="400" height="400">
<rect width="400" height="400" fill="#faf6f0"/>
<rect x="20" y="20" width="360" height="360" rx="4" fill="none" stroke="#2a2118" stroke-width="0.5" opacity="0.12"/>
<circle cx="180" cy="189.0" r="12.0" fill="#2a2118" opacity="0.6"/>
<line x1="180" y1="201.0" x2="180" y2="245" stroke="#2a2118" stroke-width="4.0" opacity="0.6" stroke-linecap="round"/>
<line x1="180" y1="245" x2="168.0" y2="277.0" stroke="#2a2118" stroke-width="4.0" opacity="0.6" stroke-linecap="round"/>
<line x1="180" y1="245" x2="192.0" y2="277.0" stroke="#2a2118" stroke-width="4.0" opacity="0.6" stroke-linecap="round"/>
<line x1="180" y1="213.0" x2="164.0" y2="233.0" stroke="#2a2118" stroke-width="3.0" opacity="0.6" stroke-linecap="round"/>
<line x1="180" y1="213.0" x2="204.0" y2="201.0" stroke="#2a2118" stroke-width="3.0" opacity="0.6" stroke-linecap="round"/>
<path d="M240,190 L268.0,178.0 L280.0,206.0 L252.0,218.0Z" fill="#f5f0e6" stroke="#2a2118" stroke-width="1.2" opacity="0.5"/>
<path d="M268.0,178.0 Q276.0,186.0 280.0,206.0" fill="none" stroke="#2a2118" stroke-width="0.8" opacity="0.3"/>
<path d="M269.3185165257814,197.17638090205043 L270.21851652578135,199.27638090205042 L272.3185165257814,200.17638090205043 L270.21851652578135,201.07638090205043 L269.3185165257814,203.17638090205043 L268.4185165257814,201.07638090205043 L266.3185165257814,200.17638090205043 L268.4185165257814,199.27638090205042Z" fill="#8b4513" opacity="0.3"/>
<path d="M244.82361909794957,211.31851652578138 L245.72361909794958,213.41851652578137 L247.82361909794957,214.31851652578138 L245.72361909794958,215.21851652578138 L244.82361909794957,217.31851652578138 L243.92361909794957,215.21851652578138 L241.82361909794957,214.31851652578138 L243.92361909794957,213.41851652578137Z" fill="#8b4513" opacity="0.3"/>
<path d="M230.68148347421862,186.82361909794957 L231.58148347421863,188.92361909794957 L233.68148347421862,189.82361909794957 L231.58148347421863,190.72361909794958 L230.68148347421862,192.82361909794957 L229.78148347421862,190.72361909794958 L227.68148347421862,189.82361909794957 L229.78148347421862,188.92361909794957Z" fill="#8b4513" opacity="0.3"/>
<path d="M255.1763809020504,172.68148347421862 L256.0763809020504,174.78148347421862 L258.17638090205037,175.68148347421862 L256.0763809020504,176.58148347421863 L255.1763809020504,178.68148347421862 L254.2763809020504,176.58148347421863 L252.1763809020504,175.68148347421862 L254.2763809020504,174.78148347421862Z" fill="#8b4513" opacity="0.3"/>
</svg>