<svg xmlns="http://www.w3.org/2000/svg" viewBox="0 0 400 400" width="400" height="400">
<rect width="400" height="400" fill="#faf6f0"/>
<rect x="20" y="20" width="360" height="360" rx="4" fill="none" stroke="#2a2118" stroke-width="0.5" opacity="0.12"/>
<circle cx="180" cy="194.6" r="10.8" fill="#2a2118" opacity="0.6"/>
<line x1="180" y1="205.4" x2="180" y2="245" stroke="#2a2118" stroke-width="3.6" opacity="0.6" stroke-linecap="round"/>
<line x1="180" y1="245" x2="169.2" y2="273.8" stroke="#2a2118" stroke-width="3.6" opacity="0.6" stroke-linecap="round"/>
<line x1="180" y1="245" x2="190.8" y2="273.8" stroke="#2a2118" stroke-width="3.6" opacity="0.6" stroke-linecap="round"/>
<line x1="180" y1="216.2" x2="194.4" y2="227.0" stroke="#2a2118" stroke-width="2.7" opacity="0.6" stroke-linecap="round"/>
<line x1="180" y1="216.2" x2="187.2" y2="230.6" stroke="#2a2118" stroke-width="2.7" opacity="0.6" stroke-linecap="round"/>
<rect x="210" y="200" width="25" height="30" rx="3" fill="#e8ddd0" stroke="#2a2118" stroke-width="0.8" opacity="0.4"/>
<circle cx="290" cy="239.2" r="6.6000000000000005" fill="#2a2118" opacity="0.6"/>
<line x1="290" y1="245.8" x2="290" y2="270" stroke="#2a2118" stroke-width="2.2" opacity="0.6" stroke-linecap="round"/>
<line x1="290" y1="270" x2="283.4" y2="287.6" stroke="#2a2118" stroke-width="2.2" opacity="0.6" stroke-linecap="round"/>
<line x1="290" y1="270" x2="296.6" y2="287.6" stroke="#2a2118" stroke-width="2.2" opacity="0.6" stroke-linecap="round"/>
<line x1="290" y1="252.4" x2="281.2" y2="265.6" stroke="#2a2118" stroke-width="1.6500000000000001" opacity="0.6" stroke-linecap="round"/>
<line x1="290" y1="252.4" x2="298.8" y2="265.6" stroke="#2a2118" stroke-width="1.6500000000000001" opacity="0.6" stroke-linecap="round"/>
</svg>