<svg xmlns="http://www.w3.org/2000/svg" viewBox="0 0 400 400" width="400" height="400">
<rect width="400" height="400" fill="#faf6f0"/>
<rect x="20" y="20" width="360" height="360" rx="4" fill="none" stroke="#2a2118" stroke-width="0.5" opacity="0.12"/>
<circle cx="200.0" cy="131.72" r="4.5600000000000005" fill="#2a2118" opacity="0.6"/>
<line x1="200.0" y1="136.28" x2="200.0" y2="153.0" stroke="#2a2118" stroke-width="1.52" opacity="0.6" stroke-linecap="round"/>
<line x1="200.0" y1="153.0" x2="195.44" y2="165.16" stroke="#2a2118" stroke-width="1.52" opacity="0.6" stroke-linecap="round"/>
<line x1="200.0" y1="153.0" x2="204.56" y2="165.16" stroke="#2a2118" stroke-width="1.52" opacity="0.6" stroke-linecap="round"/>
<line x1="200.0" y1="140.84" x2="193.92" y2="149.96" stroke="#2a2118" stroke-width="1.1400000000000001" opacity="0.6" stroke-linecap="round"/>
<line x1="200.0" y1="140.84" x2="206.08" y2="149.96" stroke="#2a2118" stroke-width="1.1400000000000001" opacity="0.6" stroke-linecap="round"/>
<circle cx="268.47606917325106" cy="181.4707764050038" r="4.5600000000000005" fill="#2a2118" opacity="0.6"/>
<line x1="268.47606917325106" y1="186.0307764050038" x2="268.47606917325106" y2="202.7507764050038" stroke="#2a2118" stroke-width="1.52" opacity="0.6" stroke-linecap="round"/>
<line x1="268.47606917325106" y1="202.7507764050038" x2="263.91606917325106" y2="214.9107764050038" stroke="#2a2118" stroke-width="1.52" opacity="0.6" stroke-linecap="round"/>
<line x1="268.47606917325106" y1="202.7507764050038" x2="273.03606917325106" y2="214.9107764050038" stroke="#2a2118" stroke-width="1.52" opacity="0.6" stroke-linecap="round"/>
<line x1="268.47606917325106" y1="190.5907764050038" x2="262.3960691732511" y2="199.7107764050038" stroke="#2a2118" stroke-width="1.1400000000000001" opacity="0.6" stroke-linecap="round"/>
<line x1="268.47606917325106" y1="190.5907764050038" x2="274.55606917325105" y2="199.7107764050038" stroke="#2a2118" stroke-width="1.1400000000000001" opacity="0.6" stroke-linecap="round"/>
<circle cx="242.32053816505805" cy="261.96922359499627" r="4.5600000000000005" fill="#2a2118" opacity="0.6"/>
<line x1="242.32053816505805" y1="266.5292235949962" x2="242.32053816505805" y2="283.24922359499624" stroke="#2a2118" stroke-width="1.52" opacity="0.6" stroke-linecap="round"/>
<line x1="242.32053816505805" y1="283.24922359499624" x2="237.76053816505805" y2="295.40922359499626" stroke="#2a2118" stroke-width="1.52" opacity="0.6" stroke-linecap="round"/>
<line x1="242.32053816505805" y1="283.24922359499624" x2="246.88053816505806" y2="295.40922359499626" stroke="#2a2118" stroke-width="1.52" opacity="0.6" stroke-linecap="round"/>
<line x1="242.32053816505805" y1="271.0892235949962" x2="236.24053816505804" y2="280.2092235949962" stroke="#2a2118" stroke-width="1.1400000000000001" opacity="0.6" stroke-linecap="round"/>
<line x1="242.32053816505805" y1="271.0892235949962" x2="248.40053816505807" y2="280.2092235949962" stroke="#2a2118" stroke-width="1.1400000000000001" opacity="0.6" stroke-linecap="round"/>
<circle cx="157.67946183494195" cy="261.96922359499627" r="4.5600000000000005" fill="#2a2118" opacity="0.6"/>
<line x1="157.67946183494195" y1="266.5292235949962" x2="157.67946183494195" y2="283.24922359499624" stroke="#2a2118" stroke-width="1.52" opacity="0.6" stroke-linecap="round"/>
<line x1="157.67946183494195" y1="283.24922359499624" x2="153.11946183494194" y2="295.40922359499626" stroke="#2a2118" stroke-width="1.52" opacity="0.6" stroke-linecap="round"/>
<line x1="157.67946183494195" y1="283.24922359499624" x2="162.23946183494195" y2="295.40922359499626" stroke="#2a2118" stroke-width="1.52" opacity="0.6" stroke-linecap="round"/>
<line x1="157.67946183494195" y1="271.0892235949962" x2="151.59946183494193" y2="280.2092235949962" stroke="#2a2118" stroke-width="1.1400000000000001" opacity="0.6" stroke-linecap="round"/>
<line x1="157.67946183494195" y1="271.0892235949962" x2="163.75946183494196" y2="280.2092235949962" stroke="#2a2118" stroke-width="1.1400000000000001" opacity="0.6" stroke-linecap="round"/>
<circle cx="131.52393082674894" cy="181.4707764050038" r="4.5600000000000005" fill="#2a2118" opacity="0.6"/>
<line x1="131.52393082674894" y1="186.0307764050038" x2="131.52393082674894" y2="202.7507764050038" stroke="#2a2118" stroke-width="1.52" opacity="0.6" stroke-linecap="round"/>
<line x1="131.52393082674894" y1="202.7507764050038" x2="126.96393082674894" y2="214.9107764050038" stroke="#2a2118" stroke-width="1.52" opacity="0.6" stroke-linecap="round"/>
<line x1="131.52393082674894" y1="202.7507764050038" x2="136.08393082674894" y2="214.9107764050038" stroke="#2a2118" stroke-width="1.52" opacity="0.6" stroke-linecap="round"/>
<line x1="131.52393082674894" y1="190.5907764050038" x2="125.44393082674894" y2="199.7107764050038" stroke="#2a2118" stroke-width="1.1400000000000001" opacity="0.6" stroke-linecap="round"/>
<line x1="131.52393082674894" y1="190.5907764050038" x2="137.60393082674895" y2="199.7107764050038" stroke="#2a2118" stroke-width="1.1400000000000001" opacity="0.6" stroke-linecap="round"/>
<circle cx="200" cy="185.8" r="8.399999999999999" fill="#2a2118" opacity="0.6"/>
<line x1="200" y1="194.2" x2="200" y2="225" stroke="#2a2118" stroke-width="2.8" opacity="0.6" stroke-linecap="round"/>
<line x1="200" y1="225" x2="191.6" y2="247.4" stroke="#2a2118" stroke-width="2.8" opacity="0.6" stroke-linecap="round"/>
<line x1="200" y1="225" x2="208.4" y2="247.4" stroke="#2a2118" stroke-width="2.8" opacity="0.6" stroke-linecap="round"/>
<line x1="200" y1="202.6" x2="188.8" y2="216.6" stroke="#2a2118" stroke-width="2.0999999999999996" opacity="0.6" stroke-linecap="round"/>
<line x1="200" y1="202.6" x2="216.8" y2="194.2" stroke="#2a2118" stroke-width="2.0999999999999996" opacity="0.6" stroke-linecap="round"/>
<text x="230" y="170" font-family="Georgia, serif" font-size="24" fill="#8b4513" opacity="0.35">!</text>
</svg>