<svg xmlns="http://www.w3.org/2000/svg" viewBox="0 0 400 400" width="400" height="400">
<rect width="400" height="400" fill="#faf6f0"/>
<rect x="20" y="20" width="360" height="360" rx="4" fill="none" stroke="#2a2118" stroke-width="0.5" opacity="0.12"/>
<circle cx="180" cy="189.0" r="12.0" fill="#2a2118" opacity="0.6"/>
<line x1="180" y1="201.0" x2="180" y2="245" stroke="#2a2118" stroke-width="4.0" opacity="0.6" stroke-linecap="round"/>
<line x1="180" y1="245" x2="168.0" y2="277.0" stroke="#2a2118" stroke-width="4.0" opacity="0.6" stroke-linecap="round"/>
<line x1="180" y1="245" x2="192.0" y2="277.0" stroke="#2a2118" stroke-width="4.0" opacity="0.6" stroke-linecap="round"/>
<line x1="180" y1="213.0" x2="164.0" y2="233.0" stroke="#2a2118" stroke-width="3.0" opacity="0.6" stroke-linecap="round"/>
<line x1="180" y1="213.0" x2="204.0" y2="201.0" stroke="#2a2118" stroke-width="3.0" opacity="0.6" stroke-linecap="round"/>
<circle cx="235" cy="195" r="8" fill="#8b4513" opacity="0.4"/>
<circle cx="235" cy="195" r="5.5" fill="#f5f0e6" opacity="0.3"/>
<circle cx="251" cy="191" r="8" fill="#8b4513" opacity="0.4"/>
<circle cx="251" cy="191" r="5.5" fill="#f5f0e6" opacity="0.3"/>
<circle cx="267" cy="187" r="8" fill="#8b4513" opacity="0.4"/>
<circle cx="267" cy="187" r="5.5" fill="#f5f0e6" opacity="0.3"/>
<path d="M266.2503681783595,192.69401899225545 L267.1503681783595,194.79401899225545 L269.2503681783595,195.69401899225545 L267.1503681783595,196.59401899225546 L266.2503681783595,198.69401899225545 L265.35036817835953,196.59401899225546 L263.2503681783595,195.69401899225545 L265.35036817835953,194.79401899225545Z" fill="#8b4513" opacity="0.3"/>
<path d="M239.30598100774455,208.2503681783595 L240.20598100774455,210.3503681783595 L242.30598100774455,211.2503681783595 L240.20598100774455,212.1503681783595 L239.30598100774455,214.2503681783595 L238.40598100774454,212.1503681783595 L236.30598100774455,211.2503681783595 L238.40598100774454,210.3503681783595Z" fill="#8b4513" opacity="0.3"/>
<path d="M223.7496318216405,181.30598100774455 L224.6496318216405,183.40598100774454 L226.7496318216405,184.30598100774455 L224.6496318216405,185.20598100774455 L223.7496318216405,187.30598100774455 L222.8496318216405,185.20598100774455 L220.7496318216405,184.30598100774455 L222.8496318216405,183.40598100774454Z" fill="#8b4513" opacity="0.3"/>
<path d="M250.69401899225545,165.7496318216405 L251.59401899225546,167.8496318216405 L253.69401899225545,168.7496318216405 L251.59401899225546,169.6496318216405 L250.69401899225545,171.7496318216405 L249.79401899225545,169.6496318216405 L247.69401899225545,168.7496318216405 L249.79401899225545,167.8496318216405Z" fill="#8b4513" opacity="0.3"/>
</svg>