<svg xmlns="http://www.w3.org/2000/svg" viewBox="0 0 400 400" width="400" height="400">
<rect width="400" height="400" fill="#faf6f0"/>
<rect x="20" y="20" width="360" height="360" rx="4" fill="none" stroke="#2a2118" stroke-width="0.5" opacity="0.12"/>
<circle cx="200" cy="194.0" r="12.0" fill="#2a2118" opacity="0.6"/>
<line x1="200" y1="206.0" x2="200" y2="250" stroke="#2a2118" stroke-width="4.0" opacity="0.6" stroke-linecap="round"/>
<line x1="200" y1="250" x2="188.0" y2="282.0" stroke="#2a2118" stroke-width="4.0" opacity="0.6" stroke-linecap="round"/>
<line x1="200" y1="250" x2="212.0" y2="282.0" stroke="#2a2118" stroke-width="4.0" opacity="0.6" stroke-linecap="round"/>
<line x1="200" y1="218.0" x2="172.0" y2="230.0" stroke="#2a2118" stroke-width="3.0" opacity="0.6" stroke-linecap="round"/>
<line x1="200" y1="218.0" x2="228.0" y2="230.0" stroke="#2a2118" stroke-width="3.0" opacity="0.6" stroke-linecap="round"/>
<path d="M155,210 Q200.0,200.0 245,210" fill="none" stroke="#2a2118" stroke-width="2" opacity="0.4" stroke-linecap="round"/>
<circle cx="200" cy="205" r="5" fill="#2a2118" opacity="0.25"/>
<path d="M219.31851652578138,202.17638090205043 L220.21851652578138,204.27638090205042 L222.31851652578138,205.17638090205043 L220.21851652578138,206.07638090205043 L219.31851652578138,208.17638090205043 L218.41851652578137,206.07638090205043 L216.31851652578138,205.17638090205043 L218.41851652578137,204.27638090205042Z" fill="#8b4513" opacity="0.3"/>
<path d="M185.85786437626905,211.14213562373095 L186.75786437626905,213.24213562373095 L188.85786437626905,214.14213562373095 L186.75786437626905,215.04213562373096 L185.85786437626905,217.14213562373095 L184.95786437626904,215.04213562373096 L182.85786437626905,214.14213562373095 L184.95786437626904,213.24213562373095Z" fill="#8b4513" opacity="0.3"/>
<path d="M194.82361909794957,177.68148347421862 L195.72361909794958,179.78148347421862 L197.82361909794957,180.68148347421862 L195.72361909794958,181.58148347421863 L194.82361909794957,183.68148347421862 L193.92361909794957,181.58148347421863 L191.82361909794957,180.68148347421862 L193.92361909794957,179.78148347421862Z" fill="#8b4513" opacity="0.3"/>
</svg>