<svg xmlns="http://www.w3.org/2000/svg" viewBox="0 0 400 400" width="400" height="400">
<rect width="400" height="400" fill="#faf6f0"/>
<rect x="20" y="20" width="360" height="360" rx="4" fill="none" stroke="#2a2118" stroke-width="0.5" opacity="0.12"/>
<circle cx="200" cy="238.0" r="9.0" fill="#2a2118" opacity="0.6"/>
<line x1="200" y1="247.0" x2="200" y2="280" stroke="#2a2118" stroke-width="3.0" opacity="0.6" stroke-linecap="round"/>
<line x1="200" y1="280" x2="191.0" y2="304.0" stroke="#2a2118" stroke-width="3.0" opacity="0.6" stroke-linecap="round"/>
<line x1="200" y1="280" x2="209.0" y2="304.0" stroke="#2a2118" stroke-width="3.0" opacity="0.6" stroke-linecap="round"/>
<line x1="200" y1="256.0" x2="188.0" y2="271.0" stroke="#2a2118" stroke-width="2.25" opacity="0.6" stroke-linecap="round"/>
<line x1="200" y1="256.0" x2="218.0" y2="247.0" stroke="#2a2118" stroke-width="2.25" opacity="0.6" stroke-linecap="round"/>
<circle cx="90" cy="170" r="16" fill="#f5f0e6" stroke="#2a2118" stroke-width="0.8" opacity="0.4"/>
<text x="90" y="175" text-anchor="middle" font-family="Georgia, serif" font-size="12" fill="#2a2118" opacity="0.3">A</text>
<line x1="106" y1="170" x2="134" y2="170" stroke="#2a2118" stroke-width="0.8" opacity="0.2"/>
<circle cx="150" cy="170" r="16" fill="#f5f0e6" stroke="#2a2118" stroke-width="0.8" opacity="0.4"/>
<text x="150" y="175" text-anchor="middle" font-family="Georgia, serif" font-size="12" fill="#2a2118" opacity="0.3">B</text>
<line x1="166" y1="170" x2="194" y2="170" stroke="#2a2118" stroke-width="0.8" opacity="0.2"/>
<circle cx="210" cy="170" r="16" fill="#f5f0e6" stroke="#2a2118" stroke-width="0.8" opacity="0.4"/>
<text x="210" y="175" text-anchor="middle" font-family="Georgia, serif" font-size="12" fill="#2a2118" opacity="0.3">C</text>
<line x1="226" y1="170" x2="254" y2="170" stroke="#2a2118" stroke-width="0.8" opacity="0.2"/>
<circle cx="270" cy="170" r="16" fill="#f5f0e6" stroke="#2a2118" stroke-width="0.8" opacity="0.4"/>
<text x="270" y="175" text-anchor="middle" font-family="Georgia, serif" font-size="12" fill="#2a2118" opacity="0.3">D</text>
<line x1="286" y1="170" x2="314" y2="170" stroke="#2a2118" stroke-width="0.8" opacity="0.2"/>
<circle cx="330" cy="170" r="16" fill="#f5f0e6" stroke="#2a2118" stroke-width="0.8" opacity="0.4"/>
<text x="330" y="175" text-anchor="middle" font-family="Georgia, serif" font-size="12" fill="#2a2118" opacity="0.3">E</text>
</svg>