<svg xmlns="http://www.w3.org/2000/svg" viewBox="0 0 400 400" width="400" height="400">
<rect width="400" height="400" fill="#faf6f0"/>
<rect x="20" y="20" width="360" height="360" rx="4" fill="none" stroke="#2a2118" stroke-width="0.5" opacity="0.12"/>
<circle cx="80" cy="213.6" r="7.800000000000001" fill="#2a2118" opacity="0.6"/>
<line x1="80" y1="221.4" x2="80" y2="250" stroke="#2a2118" stroke-width="2.6" opacity="0.6" stroke-linecap="round"/>
<line x1="80" y1="250" x2="72.2" y2="270.8" stroke="#2a2118" stroke-width="2.6" opacity="0.6" stroke-linecap="round"/>
<line x1="80" y1="250" x2="87.8" y2="270.8" stroke="#2a2118" stroke-width="2.6" opacity="0.6" stroke-linecap="round"/>
<line x1="80" y1="229.2" x2="69.6" y2="244.8" stroke="#2a2118" stroke-width="1.9500000000000002" opacity="0.6" stroke-linecap="round"/>
<line x1="80" y1="229.2" x2="90.4" y2="244.8" stroke="#2a2118" stroke-width="1.9500000000000002" opacity="0.6" stroke-linecap="round"/>
<circle cx="140" cy="213.6" r="7.800000000000001" fill="#2a2118" opacity="0.6"/>
<line x1="140" y1="221.4" x2="140" y2="250" stroke="#2a2118" stroke-width="2.6" opacity="0.6" stroke-linecap="round"/>
<line x1="140" y1="250" x2="132.2" y2="270.8" stroke="#2a2118" stroke-width="2.6" opacity="0.6" stroke-linecap="round"/>
<line x1="140" y1="250" x2="147.8" y2="270.8" stroke="#2a2118" stroke-width="2.6" opacity="0.6" stroke-linecap="round"/>
<line x1="140" y1="229.2" x2="129.6" y2="244.8" stroke="#2a2118" stroke-width="1.9500000000000002" opacity="0.6" stroke-linecap="round"/>
<line x1="140" y1="229.2" x2="150.4" y2="244.8" stroke="#2a2118" stroke-width="1.9500000000000002" opacity="0.6" stroke-linecap="round"/>
<circle cx="200" cy="213.6" r="7.800000000000001" fill="#2a2118" opacity="0.6"/>
<line x1="200" y1="221.4" x2="200" y2="250" stroke="#2a2118" stroke-width="2.6" opacity="0.6" stroke-linecap="round"/>
<line x1="200" y1="250" x2="192.2" y2="270.8" stroke="#2a2118" stroke-width="2.6" opacity="0.6" stroke-linecap="round"/>
<line x1="200" y1="250" x2="207.8" y2="270.8" stroke="#2a2118" stroke-width="2.6" opacity="0.6" stroke-linecap="round"/>
<line x1="200" y1="229.2" x2="189.6" y2="244.8" stroke="#2a2118" stroke-width="1.9500000000000002" opacity="0.6" stroke-linecap="round"/>
<line x1="200" y1="229.2" x2="210.4" y2="244.8" stroke="#2a2118" stroke-width="1.9500000000000002" opacity="0.6" stroke-linecap="round"/>
<circle cx="260" cy="213.6" r="7.800000000000001" fill="#2a2118" opacity="0.6"/>
<line x1="260" y1="221.4" x2="260" y2="250" stroke="#2a2118" stroke-width="2.6" opacity="0.6" stroke-linecap="round"/>
<line x1="260" y1="250" x2="252.2" y2="270.8" stroke="#2a2118" stroke-width="2.6" opacity="0.6" stroke-linecap="round"/>
<line x1="260" y1="250" x2="267.8" y2="270.8" stroke="#2a2118" stroke-width="2.6" opacity="0.6" stroke-linecap="round"/>
<line x1="260" y1="229.2" x2="249.6" y2="244.8" stroke="#2a2118" stroke-width="1.9500000000000002" opacity="0.6" stroke-linecap="round"/>
<line x1="260" y1="229.2" x2="270.4" y2="244.8" stroke="#2a2118" stroke-width="1.9500000000000002" opacity="0.6" stroke-linecap="round"/>
<circle cx="320" cy="213.6" r="7.800000000000001" fill="#2a2118" opacity="0.6"/>
<line x1="320" y1="221.4" x2="320" y2="250" stroke="#2a2118" stroke-width="2.6" opacity="0.6" stroke-linecap="round"/>
<line x1="320" y1="250" x2="312.2" y2="270.8" stroke="#2a2118" stroke-width="2.6" opacity="0.6" stroke-linecap="round"/>
<line x1="320" y1="250" x2="327.8" y2="270.8" stroke="#2a2118" stroke-width="2.6" opacity="0.6" stroke-linecap="round"/>
<line x1="320" y1="229.2" x2="309.6" y2="244.8" stroke="#2a2118" stroke-width="1.9500000000000002" opacity="0.6" stroke-linecap="round"/>
<line x1="320" y1="229.2" x2="330.4" y2="244.8" stroke="#2a2118" stroke-width="1.9500000000000002" opacity="0.6" stroke-linecap="round"/>
<line x1="100" y1="230" x2="140" y2="230" stroke="#2a2118" stroke-width="0.8" stroke-dasharray="3,3" opacity="0.2"/>
<line x1="160" y1="230" x2="200" y2="230" stroke="#2a2118" stroke-width="0.8" stroke-dasharray="3,3" opacity="0.2"/>
<line x1="220" y1="230" x2="260" y2="230" stroke="#2a2118" stroke-width="0.8" stroke-dasharray="3,3" opacity="0.2"/>
<line x1="280" y1="230" x2="320" y2="230" stroke="#2a2118" stroke-width="0.8" stroke-dasharray="3,3" opacity="0.2"/>
</svg>