<svg xmlns="http://www.w3.org/2000/svg" viewBox="0 0 400 400" width="400" height="400">
<rect width="400" height="400" fill="#faf6f0"/>
<rect x="20" y="20" width="360" height="360" rx="4" fill="none" stroke="#2a2118" stroke-width="0.5" opacity="0.12"/>
<circle cx="200" cy="203.0" r="8.0" fill="#2a2118" opacity="0.55"/>
<line x1="200" y1="211.0" x2="200" y2="235" stroke="#2a2118" stroke-width="3.2" opacity="0.55" stroke-linecap="round"/>
<line x1="200" y1="219.0" x2="216.0" y2="225.4" stroke="#2a2118" stroke-width="2.4000000000000004" opacity="0.55" stroke-linecap="round"/>
<line x1="200" y1="219.0" x2="184.0" y2="225.4" stroke="#2a2118" stroke-width="2.4000000000000004" opacity="0.55" stroke-linecap="round"/>
<line x1="200" y1="235" x2="209.6" y2="251.0" stroke="#2a2118" stroke-width="3.2" opacity="0.55" stroke-linecap="round"/>
<line x1="209.6" y1="251.0" x2="209.6" y2="263.8" stroke="#2a2118" stroke-width="3.2" opacity="0.55" stroke-linecap="round"/>
<circle cx="200" cy="210" r="15" fill="none" stroke="#2a2118" stroke-width="1" opacity="0.3"/>
<circle cx="200" cy="210" r="10" fill="#f5f0e6" opacity="0.2"/>
<path d="M221.2503681783595,212.69401899225545 L222.1503681783595,214.79401899225545 L224.2503681783595,215.69401899225545 L222.1503681783595,216.59401899225546 L221.2503681783595,218.69401899225545 L220.3503681783595,216.59401899225546 L218.2503681783595,215.69401899225545 L220.3503681783595,214.79401899225545Z" fill="#8b4513" opacity="0.3"/>
<path d="M201.15139103734478,228.9698497646006 L202.05139103734479,231.0698497646006 L204.15139103734478,231.9698497646006 L202.05139103734479,232.86984976460062 L201.15139103734478,234.9698497646006 L200.25139103734477,232.86984976460062 L198.15139103734478,231.9698497646006 L200.25139103734477,231.0698497646006Z" fill="#8b4513" opacity="0.3"/>
<path d="M179.46123061706157,214.88409488999662 L180.36123061706158,216.9840948899966 L182.46123061706157,217.88409488999662 L180.36123061706158,218.78409488999662 L179.46123061706157,220.88409488999662 L178.56123061706157,218.78409488999662 L176.46123061706157,217.88409488999662 L178.56123061706157,216.9840948899966Z" fill="#8b4513" opacity="0.3"/>
<path d="M186.15495139690356,189.90278884794665 L187.05495139690356,192.00278884794665 L189.15495139690356,192.90278884794665 L187.05495139690356,193.80278884794666 L186.15495139690356,195.90278884794665 L185.25495139690355,193.80278884794666 L183.15495139690356,192.90278884794665 L185.25495139690355,192.00278884794665Z" fill="#8b4513" opacity="0.3"/>
<path d="M211.98205877033058,188.54924750520067 L212.8820587703306,190.64924750520066 L214.98205877033058,191.54924750520067 L212.8820587703306,192.44924750520067 L211.98205877033058,194.54924750520067 L211.08205877033058,192.44924750520067 L208.98205877033058,191.54924750520067 L211.08205877033058,190.64924750520066Z" fill="#8b4513" opacity="0.3"/>
<rect x="150" y="240" width="100" height="6" rx="3" fill="#e8ddd0" stroke="#2a2118" stroke-width="1" opacity="0.3"/>
<line x1="158" y1="246" x2="158" y2="266" stroke="#2a2118" stroke-width="2" opacity="0.2"/>
<line x1="242" y1="246" x2="242" y2="266" stroke="#2a2118" stroke-width="2" opacity="0.2"/>
</svg>