<svg xmlns="http://www.w3.org/2000/svg" viewBox="0 0 816 1056" width="816" height="1056">
  <defs>
    <style>@import url("https://fonts.googleapis.com/css2?family=Playfair+Display:wght@400;700&amp;family=Source+Sans+3:wght@300;400;600&amp;display=swap");</style>
    <pattern id="ph" width="6" height="6" patternUnits="userSpaceOnUse" patternTransform="rotate(45)">
      <line x1="0" y1="0" x2="0" y2="6" stroke="#1a1a1a" stroke-width="0.3" opacity="0.05"/>
    </pattern>
  </defs>
  <rect width="816" height="1056" fill="#faf6f0"/>
  <rect width="816" height="1056" fill="url(#ph)"/>
  <rect x="24" y="24" width="768" height="1008" rx="2" fill="none" stroke="#1a1a1a" stroke-width="0.75" opacity="0.2"/>
  <text x="408" y="82" text-anchor="middle" font-family="&apos;Playfair Display&apos;, Georgia, serif" font-size="34" font-weight="bold" fill="#1a1a1a" letter-spacing="2">BUYING PRESENTS</text>
  <text x="408" y="110" text-anchor="middle" font-family="&apos;Source Sans 3&apos;, Georgia, sans-serif" font-size="14" fill="#555">Puzzle  ·  1 players  ·  Advanced</text>
  <line x1="220" y1="126" x2="596" y2="126" stroke="#ccc" stroke-width="0.75"/>
  <line x1="408.0" y1="190.0" x2="543.2" y2="606.1" stroke="#1a1a1a" stroke-width="2"/>
  <line x1="626.7" y1="348.9" x2="272.8" y2="606.1" stroke="#1a1a1a" stroke-width="2"/>
  <line x1="543.2" y1="606.1" x2="189.3" y2="348.9" stroke="#1a1a1a" stroke-width="2"/>
  <line x1="272.8" y1="606.1" x2="408.0" y2="190.0" stroke="#1a1a1a" stroke-width="2"/>
  <line x1="189.3" y1="348.9" x2="626.7" y2="348.9" stroke="#1a1a1a" stroke-width="2"/>
  <circle cx="408.0" cy="190.0" r="7" fill="none" stroke="#ccc" stroke-width="1" stroke-dasharray="4,3"/>
  <circle cx="626.7" cy="348.9" r="7" fill="none" stroke="#ccc" stroke-width="1" stroke-dasharray="4,3"/>
  <circle cx="543.2" cy="606.1" r="7" fill="none" stroke="#ccc" stroke-width="1" stroke-dasharray="4,3"/>
  <circle cx="272.8" cy="606.1" r="7" fill="none" stroke="#ccc" stroke-width="1" stroke-dasharray="4,3"/>
  <circle cx="189.3" cy="348.9" r="7" fill="none" stroke="#ccc" stroke-width="1" stroke-dasharray="4,3"/>
  <circle cx="459.4" cy="349.3" r="7" fill="none" stroke="#ccc" stroke-width="1" stroke-dasharray="4,3"/>
  <circle cx="491.1" cy="447.0" r="7" fill="none" stroke="#ccc" stroke-width="1" stroke-dasharray="4,3"/>
  <circle cx="408.0" cy="507.4" r="7" fill="none" stroke="#ccc" stroke-width="1" stroke-dasharray="4,3"/>
  <circle cx="324.9" cy="447.0" r="7" fill="none" stroke="#ccc" stroke-width="1" stroke-dasharray="4,3"/>
  <circle cx="356.6" cy="349.3" r="7" fill="none" stroke="#ccc" stroke-width="1" stroke-dasharray="4,3"/>
  <text x="408" y="780" text-anchor="middle" font-family="&apos;Source Sans 3&apos;, Georgia, sans-serif" font-size="15" fill="#555">Place numbers or counters at each position. See page 2 for rules.</text>
  <text x="408" y="1014" text-anchor="middle" font-family="&apos;Source Sans 3&apos;, Georgia, sans-serif" font-size="11" fill="#ccc">Heritage Parlor  ·  Page 1 of 2  ·  Turn over for full instructions</text>
</svg>