<svg xmlns="http://www.w3.org/2000/svg" viewBox="0 0 816 1056" width="816" height="1056">
  <defs>
    <pattern id="ph" width="6" height="6" patternUnits="userSpaceOnUse" patternTransform="rotate(45)">
      <line x1="0" y1="0" x2="0" y2="6" stroke="#1a1a1a" stroke-width="0.3" opacity="0.05"/>
    </pattern>
  </defs>
  <rect width="816" height="1056" fill="#faf6f0"/>
  <rect width="816" height="1056" fill="url(#ph)"/>
  <rect x="24" y="24" width="768" height="1008" rx="2" fill="none" stroke="#1a1a1a" stroke-width="0.75" opacity="0.2"/>
  <text x="408" y="82" text-anchor="middle" font-family="Georgia, serif" font-size="34" font-weight="bold" fill="#1a1a1a" letter-spacing="2">DRAUGHTS (CHECKERS) VARIANTS</text>
  <text x="408" y="110" text-anchor="middle" font-family="Georgia, serif" font-size="14" fill="#555">Board Game  ·  2 players  ·  Intermediate</text>
  <line x1="220" y1="126" x2="596" y2="126" stroke="#ccc" stroke-width="0.75"/>
  <rect x="148" y="160" width="520" height="520" fill="#f5f0e6" stroke="#1a1a1a" stroke-width="2"/>
  <rect x="213" y="160" width="65" height="65" fill="#d4c5a9"/>
  <rect x="343" y="160" width="65" height="65" fill="#d4c5a9"/>
  <rect x="473" y="160" width="65" height="65" fill="#d4c5a9"/>
  <rect x="603" y="160" width="65" height="65" fill="#d4c5a9"/>
  <rect x="148" y="225" width="65" height="65" fill="#d4c5a9"/>
  <rect x="278" y="225" width="65" height="65" fill="#d4c5a9"/>
  <rect x="408" y="225" width="65" height="65" fill="#d4c5a9"/>
  <rect x="538" y="225" width="65" height="65" fill="#d4c5a9"/>
  <rect x="213" y="290" width="65" height="65" fill="#d4c5a9"/>
  <rect x="343" y="290" width="65" height="65" fill="#d4c5a9"/>
  <rect x="473" y="290" width="65" height="65" fill="#d4c5a9"/>
  <rect x="603" y="290" width="65" height="65" fill="#d4c5a9"/>
  <rect x="148" y="355" width="65" height="65" fill="#d4c5a9"/>
  <rect x="278" y="355" width="65" height="65" fill="#d4c5a9"/>
  <rect x="408" y="355" width="65" height="65" fill="#d4c5a9"/>
  <rect x="538" y="355" width="65" height="65" fill="#d4c5a9"/>
  <rect x="213" y="420" width="65" height="65" fill="#d4c5a9"/>
  <rect x="343" y="420" width="65" height="65" fill="#d4c5a9"/>
  <rect x="473" y="420" width="65" height="65" fill="#d4c5a9"/>
  <rect x="603" y="420" width="65" height="65" fill="#d4c5a9"/>
  <rect x="148" y="485" width="65" height="65" fill="#d4c5a9"/>
  <rect x="278" y="485" width="65" height="65" fill="#d4c5a9"/>
  <rect x="408" y="485" width="65" height="65" fill="#d4c5a9"/>
  <rect x="538" y="485" width="65" height="65" fill="#d4c5a9"/>
  <rect x="213" y="550" width="65" height="65" fill="#d4c5a9"/>
  <rect x="343" y="550" width="65" height="65" fill="#d4c5a9"/>
  <rect x="473" y="550" width="65" height="65" fill="#d4c5a9"/>
  <rect x="603" y="550" width="65" height="65" fill="#d4c5a9"/>
  <rect x="148" y="615" width="65" height="65" fill="#d4c5a9"/>
  <rect x="278" y="615" width="65" height="65" fill="#d4c5a9"/>
  <rect x="408" y="615" width="65" height="65" fill="#d4c5a9"/>
  <rect x="538" y="615" width="65" height="65" fill="#d4c5a9"/>
  <line x1="148" y1="225" x2="668" y2="225" stroke="#1a1a1a" stroke-width="0.5" opacity="0.3"/>
  <line x1="213" y1="160" x2="213" y2="680" stroke="#1a1a1a" stroke-width="0.5" opacity="0.3"/>
  <line x1="148" y1="290" x2="668" y2="290" stroke="#1a1a1a" stroke-width="0.5" opacity="0.3"/>
  <line x1="278" y1="160" x2="278" y2="680" stroke="#1a1a1a" stroke-width="0.5" opacity="0.3"/>
  <line x1="148" y1="355" x2="668" y2="355" stroke="#1a1a1a" stroke-width="0.5" opacity="0.3"/>
  <line x1="343" y1="160" x2="343" y2="680" stroke="#1a1a1a" stroke-width="0.5" opacity="0.3"/>
  <line x1="148" y1="420" x2="668" y2="420" stroke="#1a1a1a" stroke-width="0.5" opacity="0.3"/>
  <line x1="408" y1="160" x2="408" y2="680" stroke="#1a1a1a" stroke-width="0.5" opacity="0.3"/>
  <line x1="148" y1="485" x2="668" y2="485" stroke="#1a1a1a" stroke-width="0.5" opacity="0.3"/>
  <line x1="473" y1="160" x2="473" y2="680" stroke="#1a1a1a" stroke-width="0.5" opacity="0.3"/>
  <line x1="148" y1="550" x2="668" y2="550" stroke="#1a1a1a" stroke-width="0.5" opacity="0.3"/>
  <line x1="538" y1="160" x2="538" y2="680" stroke="#1a1a1a" stroke-width="0.5" opacity="0.3"/>
  <line x1="148" y1="615" x2="668" y2="615" stroke="#1a1a1a" stroke-width="0.5" opacity="0.3"/>
  <line x1="603" y1="160" x2="603" y2="680" stroke="#1a1a1a" stroke-width="0.5" opacity="0.3"/>
  <rect x="148" y="160" width="520" height="520" fill="none" stroke="#1a1a1a" stroke-width="2"/>
  <text x="180" y="154" text-anchor="middle" font-family="Georgia, serif" font-size="12" fill="#555">a</text>
  <text x="180" y="696" text-anchor="middle" font-family="Georgia, serif" font-size="12" fill="#555">a</text>
  <text x="245" y="154" text-anchor="middle" font-family="Georgia, serif" font-size="12" fill="#555">b</text>
  <text x="245" y="696" text-anchor="middle" font-family="Georgia, serif" font-size="12" fill="#555">b</text>
  <text x="310" y="154" text-anchor="middle" font-family="Georgia, serif" font-size="12" fill="#555">c</text>
  <text x="310" y="696" text-anchor="middle" font-family="Georgia, serif" font-size="12" fill="#555">c</text>
  <text x="375" y="154" text-anchor="middle" font-family="Georgia, serif" font-size="12" fill="#555">d</text>
  <text x="375" y="696" text-anchor="middle" font-family="Georgia, serif" font-size="12" fill="#555">d</text>
  <text x="440" y="154" text-anchor="middle" font-family="Georgia, serif" font-size="12" fill="#555">e</text>
  <text x="440" y="696" text-anchor="middle" font-family="Georgia, serif" font-size="12" fill="#555">e</text>
  <text x="505" y="154" text-anchor="middle" font-family="Georgia, serif" font-size="12" fill="#555">f</text>
  <text x="505" y="696" text-anchor="middle" font-family="Georgia, serif" font-size="12" fill="#555">f</text>
  <text x="570" y="154" text-anchor="middle" font-family="Georgia, serif" font-size="12" fill="#555">g</text>
  <text x="570" y="696" text-anchor="middle" font-family="Georgia, serif" font-size="12" fill="#555">g</text>
  <text x="635" y="154" text-anchor="middle" font-family="Georgia, serif" font-size="12" fill="#555">h</text>
  <text x="635" y="696" text-anchor="middle" font-family="Georgia, serif" font-size="12" fill="#555">h</text>
  <text x="138" y="197" text-anchor="end" font-family="Georgia, serif" font-size="12" fill="#555">8</text>
  <text x="678" y="197" font-family="Georgia, serif" font-size="12" fill="#555">8</text>
  <text x="138" y="262" text-anchor="end" font-family="Georgia, serif" font-size="12" fill="#555">7</text>
  <text x="678" y="262" font-family="Georgia, serif" font-size="12" fill="#555">7</text>
  <text x="138" y="327" text-anchor="end" font-family="Georgia, serif" font-size="12" fill="#555">6</text>
  <text x="678" y="327" font-family="Georgia, serif" font-size="12" fill="#555">6</text>
  <text x="138" y="392" text-anchor="end" font-family="Georgia, serif" font-size="12" fill="#555">5</text>
  <text x="678" y="392" font-family="Georgia, serif" font-size="12" fill="#555">5</text>
  <text x="138" y="457" text-anchor="end" font-family="Georgia, serif" font-size="12" fill="#555">4</text>
  <text x="678" y="457" font-family="Georgia, serif" font-size="12" fill="#555">4</text>
  <text x="138" y="522" text-anchor="end" font-family="Georgia, serif" font-size="12" fill="#555">3</text>
  <text x="678" y="522" font-family="Georgia, serif" font-size="12" fill="#555">3</text>
  <text x="138" y="587" text-anchor="end" font-family="Georgia, serif" font-size="12" fill="#555">2</text>
  <text x="678" y="587" font-family="Georgia, serif" font-size="12" fill="#555">2</text>
  <text x="138" y="652" text-anchor="end" font-family="Georgia, serif" font-size="12" fill="#555">1</text>
  <text x="678" y="652" font-family="Georgia, serif" font-size="12" fill="#555">1</text>
  <text x="408" y="800" text-anchor="middle" font-family="Georgia, serif" font-size="15" fill="#555">Use the board above with your own pieces. See page 2 for rules.</text>
  <text x="408" y="1014" text-anchor="middle" font-family="Georgia, serif" font-size="11" fill="#ccc">Heritage Parlor  ·  Page 1 of 2  ·  Turn over for full instructions</text>
</svg>