<svg xmlns="http://www.w3.org/2000/svg" viewBox="0 0 816 1056" width="816" height="1056">
  <defs>
    <pattern id="ph" width="6" height="6" patternUnits="userSpaceOnUse" patternTransform="rotate(45)">
      <line x1="0" y1="0" x2="0" y2="6" stroke="#1a1a1a" stroke-width="0.3" opacity="0.05"/>
    </pattern>
  </defs>
  <rect width="816" height="1056" fill="#faf6f0"/>
  <rect width="816" height="1056" fill="url(#ph)"/>
  <rect x="24" y="24" width="768" height="1008" rx="2" fill="none" stroke="#1a1a1a" stroke-width="0.75" opacity="0.2"/>
  <text x="408" y="82" text-anchor="middle" font-family="Georgia, serif" font-size="34" font-weight="bold" fill="#1a1a1a" letter-spacing="2">SYMPATHETIC OR INVISIBLE INKS</text>
  <text x="408" y="110" text-anchor="middle" font-family="Georgia, serif" font-size="14" fill="#555">Scientific Recreation  ·  1+ players  ·  Intermediate</text>
  <line x1="220" y1="126" x2="596" y2="126" stroke="#ccc" stroke-width="0.75"/>
  <rect x="159" y="181" width="498" height="498" fill="#ffffff" stroke="#1a1a1a" stroke-width="2" rx="2"/>
  <line x1="159" y1="347" x2="657" y2="347" stroke="#1a1a1a" stroke-width="1.5"/>
  <line x1="325" y1="181" x2="325" y2="679" stroke="#1a1a1a" stroke-width="1.5"/>
  <line x1="159" y1="513" x2="657" y2="513" stroke="#1a1a1a" stroke-width="1.5"/>
  <line x1="491" y1="181" x2="491" y2="679" stroke="#1a1a1a" stroke-width="1.5"/>
  <circle cx="242" cy="264" r="37" fill="none" stroke="#ccc" stroke-width="1" stroke-dasharray="6,4"/>
  <circle cx="408" cy="264" r="37" fill="none" stroke="#ccc" stroke-width="1" stroke-dasharray="6,4"/>
  <circle cx="574" cy="264" r="37" fill="none" stroke="#ccc" stroke-width="1" stroke-dasharray="6,4"/>
  <circle cx="242" cy="430" r="37" fill="none" stroke="#ccc" stroke-width="1" stroke-dasharray="6,4"/>
  <circle cx="408" cy="430" r="37" fill="none" stroke="#ccc" stroke-width="1" stroke-dasharray="6,4"/>
  <circle cx="574" cy="430" r="37" fill="none" stroke="#ccc" stroke-width="1" stroke-dasharray="6,4"/>
  <circle cx="242" cy="596" r="37" fill="none" stroke="#ccc" stroke-width="1" stroke-dasharray="6,4"/>
  <circle cx="408" cy="596" r="37" fill="none" stroke="#ccc" stroke-width="1" stroke-dasharray="6,4"/>
  <circle cx="574" cy="596" r="37" fill="none" stroke="#ccc" stroke-width="1" stroke-dasharray="6,4"/>
  <text x="408" y="780" text-anchor="middle" font-family="Georgia, serif" font-size="15" fill="#555">Write a secret message using lemon juice (or milk) on plain white paper — dip a toothpick or smal...</text>
  <text x="408" y="804" text-anchor="middle" font-family="Georgia, serif" font-size="13" fill="#555">See page 2 for full instructions.</text>
  <text x="408" y="1014" text-anchor="middle" font-family="Georgia, serif" font-size="11" fill="#ccc">Heritage Parlor  ·  Page 1 of 2  ·  Turn over for full instructions</text>
</svg>