<svg xmlns="http://www.w3.org/2000/svg" viewBox="0 0 816 1056" width="816" height="1056">
  <defs>
    <style>@import url("https://fonts.googleapis.com/css2?family=Playfair+Display:wght@400;700&amp;family=Source+Sans+3:wght@300;400;600&amp;display=swap");</style>
    <pattern id="ph" width="6" height="6" patternUnits="userSpaceOnUse" patternTransform="rotate(45)">
      <line x1="0" y1="0" x2="0" y2="6" stroke="#1a1a1a" stroke-width="0.3" opacity="0.05"/>
    </pattern>
  </defs>
  <rect width="816" height="1056" fill="#faf6f0"/>
  <rect width="816" height="1056" fill="url(#ph)"/>
  <rect x="24" y="24" width="768" height="1008" rx="2" fill="none" stroke="#1a1a1a" stroke-width="0.75" opacity="0.2"/>
  <text x="408" y="82" text-anchor="middle" font-family="&apos;Playfair Display&apos;, Georgia, serif" font-size="34" font-weight="bold" fill="#1a1a1a" letter-spacing="2">THE HABERDASHER&apos;S PUZZLE</text>
  <text x="408" y="110" text-anchor="middle" font-family="&apos;Source Sans 3&apos;, Georgia, sans-serif" font-size="14" fill="#555">Puzzle  ·  1 players  ·  Advanced</text>
  <line x1="220" y1="126" x2="596" y2="126" stroke="#ccc" stroke-width="0.75"/>
  <line x1="408.0" y1="190.0" x2="607.2" y2="535.0" stroke="#1a1a1a" stroke-width="2"/>
  <line x1="607.2" y1="535.0" x2="208.8" y2="535.0" stroke="#1a1a1a" stroke-width="2"/>
  <line x1="208.8" y1="535.0" x2="408.0" y2="190.0" stroke="#1a1a1a" stroke-width="2"/>
  <line x1="408.0" y1="190.0" x2="408.0" y2="535.0" stroke="#1a1a1a" stroke-width="1" opacity="0.4"/>
  <line x1="607.2" y1="535.0" x2="308.4" y2="362.5" stroke="#1a1a1a" stroke-width="1" opacity="0.4"/>
  <line x1="208.8" y1="535.0" x2="507.6" y2="362.5" stroke="#1a1a1a" stroke-width="1" opacity="0.4"/>
  <circle cx="408.0" cy="190.0" r="7" fill="none" stroke="#ccc" stroke-width="1" stroke-dasharray="4,3"/>
  <circle cx="607.2" cy="535.0" r="7" fill="none" stroke="#ccc" stroke-width="1" stroke-dasharray="4,3"/>
  <circle cx="208.8" cy="535.0" r="7" fill="none" stroke="#ccc" stroke-width="1" stroke-dasharray="4,3"/>
  <text x="408" y="780" text-anchor="middle" font-family="&apos;Source Sans 3&apos;, Georgia, sans-serif" font-size="15" fill="#555">Place numbers or counters at each position. See page 2 for rules.</text>
  <text x="408" y="1014" text-anchor="middle" font-family="&apos;Source Sans 3&apos;, Georgia, sans-serif" font-size="11" fill="#ccc">Heritage Parlor  ·  Page 1 of 2  ·  Turn over for full instructions</text>
</svg>