<svg xmlns="http://www.w3.org/2000/svg" viewBox="0 0 816 1056" width="816" height="1056">
  <defs>
    <style>@import url("https://fonts.googleapis.com/css2?family=Playfair+Display:wght@400;700&amp;family=Source+Sans+3:wght@300;400;600&amp;display=swap");</style>
    <pattern id="ph" width="6" height="6" patternUnits="userSpaceOnUse" patternTransform="rotate(45)">
      <line x1="0" y1="0" x2="0" y2="6" stroke="#1a1a1a" stroke-width="0.3" opacity="0.05"/>
    </pattern>
  </defs>
  <rect width="816" height="1056" fill="#faf6f0"/>
  <rect width="816" height="1056" fill="url(#ph)"/>
  <rect x="24" y="24" width="768" height="1008" rx="2" fill="none" stroke="#1a1a1a" stroke-width="0.75" opacity="0.2"/>
  <text x="408" y="82" text-anchor="middle" font-family="&apos;Playfair Display&apos;, Georgia, serif" font-size="34" font-weight="bold" fill="#1a1a1a" letter-spacing="2">THE RIVER CROSSING PROBLEM</text>
  <text x="408" y="110" text-anchor="middle" font-family="&apos;Source Sans 3&apos;, Georgia, sans-serif" font-size="14" fill="#555">Puzzle  ·  1 players  ·  Beginner</text>
  <line x1="220" y1="126" x2="596" y2="126" stroke="#ccc" stroke-width="0.75"/>
  <line x1="208" y1="320" x2="408" y2="420" stroke="#1a1a1a" stroke-width="2"/>
  <line x1="208" y1="520" x2="408" y2="420" stroke="#1a1a1a" stroke-width="2"/>
  <line x1="408" y1="420" x2="608" y2="320" stroke="#1a1a1a" stroke-width="2"/>
  <line x1="408" y1="420" x2="608" y2="520" stroke="#1a1a1a" stroke-width="2"/>
  <line x1="208" y1="320" x2="608" y2="320" stroke="#1a1a1a" stroke-width="2"/>
  <line x1="208" y1="520" x2="608" y2="520" stroke="#1a1a1a" stroke-width="2"/>
  <line x1="208" y1="320" x2="208" y2="520" stroke="#1a1a1a" stroke-width="2"/>
  <line x1="608" y1="320" x2="608" y2="520" stroke="#1a1a1a" stroke-width="2"/>
  <circle cx="208" cy="320" r="10" fill="#ffffff" stroke="#1a1a1a" stroke-width="2"/>
  <text x="208" y="324" text-anchor="middle" font-family="Georgia, serif" font-size="12" font-weight="bold" fill="#1a1a1a">A</text>
  <circle cx="208" cy="520" r="10" fill="#ffffff" stroke="#1a1a1a" stroke-width="2"/>
  <text x="208" y="524" text-anchor="middle" font-family="Georgia, serif" font-size="12" font-weight="bold" fill="#1a1a1a">B</text>
  <circle cx="408" cy="420" r="10" fill="#ffffff" stroke="#1a1a1a" stroke-width="2"/>
  <text x="408" y="424" text-anchor="middle" font-family="Georgia, serif" font-size="12" font-weight="bold" fill="#1a1a1a">C</text>
  <circle cx="608" cy="320" r="10" fill="#ffffff" stroke="#1a1a1a" stroke-width="2"/>
  <text x="608" y="324" text-anchor="middle" font-family="Georgia, serif" font-size="12" font-weight="bold" fill="#1a1a1a">D</text>
  <circle cx="608" cy="520" r="10" fill="#ffffff" stroke="#1a1a1a" stroke-width="2"/>
  <text x="608" y="524" text-anchor="middle" font-family="Georgia, serif" font-size="12" font-weight="bold" fill="#1a1a1a">E</text>
  <text x="408" y="780" text-anchor="middle" font-family="&apos;Source Sans 3&apos;, Georgia, sans-serif" font-size="15" fill="#555">Trace paths between nodes. See page 2 for the challenge.</text>
  <text x="408" y="1014" text-anchor="middle" font-family="&apos;Source Sans 3&apos;, Georgia, sans-serif" font-size="11" fill="#ccc">Heritage Parlor  ·  Page 1 of 2  ·  Turn over for full instructions</text>
</svg>