<svg xmlns="http://www.w3.org/2000/svg" viewBox="0 0 816 1056" width="816" height="1056">
  <defs>
    <style>@import url("https://fonts.googleapis.com/css2?family=Playfair+Display:wght@400;700&amp;family=Source+Sans+3:wght@300;400;600&amp;display=swap");</style>
    <pattern id="ph" width="6" height="6" patternUnits="userSpaceOnUse" patternTransform="rotate(45)">
      <line x1="0" y1="0" x2="0" y2="6" stroke="#1a1a1a" stroke-width="0.3" opacity="0.05"/>
    </pattern>
  </defs>
  <rect width="816" height="1056" fill="#faf6f0"/>
  <rect width="816" height="1056" fill="url(#ph)"/>
  <rect x="24" y="24" width="768" height="1008" rx="2" fill="none" stroke="#1a1a1a" stroke-width="0.75" opacity="0.2"/>
  <text x="408" y="82" text-anchor="middle" font-family="&apos;Playfair Display&apos;, Georgia, serif" font-size="34" font-weight="bold" fill="#1a1a1a" letter-spacing="2">THE MILLIONAIRE&apos;S PERPLEXITY</text>
  <text x="408" y="110" text-anchor="middle" font-family="&apos;Source Sans 3&apos;, Georgia, sans-serif" font-size="14" fill="#555">Puzzle  ·  1 players  ·  Advanced</text>
  <line x1="220" y1="126" x2="596" y2="126" stroke="#ccc" stroke-width="0.75"/>
  <rect x="188" y="200" width="440" height="440" fill="none" stroke="#1a1a1a" stroke-width="2" rx="1"/>
  <rect x="261" y="273" width="293" height="293" fill="none" stroke="#1a1a1a" stroke-width="2" rx="1"/>
  <rect x="335" y="347" width="147" height="147" fill="none" stroke="#1a1a1a" stroke-width="2" rx="1"/>
  <line x1="408" y1="200" x2="408" y2="273" stroke="#1a1a1a" stroke-width="2"/>
  <line x1="408" y1="640" x2="408" y2="567" stroke="#1a1a1a" stroke-width="2"/>
  <line x1="188" y1="420" x2="261" y2="420" stroke="#1a1a1a" stroke-width="2"/>
  <line x1="628" y1="420" x2="555" y2="420" stroke="#1a1a1a" stroke-width="2"/>
  <line x1="408" y1="273" x2="408" y2="347" stroke="#1a1a1a" stroke-width="2"/>
  <line x1="408" y1="567" x2="408" y2="493" stroke="#1a1a1a" stroke-width="2"/>
  <line x1="261" y1="420" x2="335" y2="420" stroke="#1a1a1a" stroke-width="2"/>
  <line x1="555" y1="420" x2="481" y2="420" stroke="#1a1a1a" stroke-width="2"/>
  <circle cx="188" cy="200" r="6" fill="none" stroke="#ccc" stroke-width="1" stroke-dasharray="4,3"/>
  <circle cx="408" cy="200" r="6" fill="none" stroke="#ccc" stroke-width="1" stroke-dasharray="4,3"/>
  <circle cx="628" cy="200" r="6" fill="none" stroke="#ccc" stroke-width="1" stroke-dasharray="4,3"/>
  <circle cx="188" cy="420" r="6" fill="none" stroke="#ccc" stroke-width="1" stroke-dasharray="4,3"/>
  <circle cx="628" cy="420" r="6" fill="none" stroke="#ccc" stroke-width="1" stroke-dasharray="4,3"/>
  <circle cx="188" cy="640" r="6" fill="none" stroke="#ccc" stroke-width="1" stroke-dasharray="4,3"/>
  <circle cx="408" cy="640" r="6" fill="none" stroke="#ccc" stroke-width="1" stroke-dasharray="4,3"/>
  <circle cx="628" cy="640" r="6" fill="none" stroke="#ccc" stroke-width="1" stroke-dasharray="4,3"/>
  <circle cx="261" cy="273" r="6" fill="none" stroke="#ccc" stroke-width="1" stroke-dasharray="4,3"/>
  <circle cx="408" cy="273" r="6" fill="none" stroke="#ccc" stroke-width="1" stroke-dasharray="4,3"/>
  <circle cx="555" cy="273" r="6" fill="none" stroke="#ccc" stroke-width="1" stroke-dasharray="4,3"/>
  <circle cx="261" cy="420" r="6" fill="none" stroke="#ccc" stroke-width="1" stroke-dasharray="4,3"/>
  <circle cx="555" cy="420" r="6" fill="none" stroke="#ccc" stroke-width="1" stroke-dasharray="4,3"/>
  <circle cx="261" cy="567" r="6" fill="none" stroke="#ccc" stroke-width="1" stroke-dasharray="4,3"/>
  <circle cx="408" cy="567" r="6" fill="none" stroke="#ccc" stroke-width="1" stroke-dasharray="4,3"/>
  <circle cx="555" cy="567" r="6" fill="none" stroke="#ccc" stroke-width="1" stroke-dasharray="4,3"/>
  <circle cx="335" cy="347" r="6" fill="none" stroke="#ccc" stroke-width="1" stroke-dasharray="4,3"/>
  <circle cx="408" cy="347" r="6" fill="none" stroke="#ccc" stroke-width="1" stroke-dasharray="4,3"/>
  <circle cx="481" cy="347" r="6" fill="none" stroke="#ccc" stroke-width="1" stroke-dasharray="4,3"/>
  <circle cx="335" cy="420" r="6" fill="none" stroke="#ccc" stroke-width="1" stroke-dasharray="4,3"/>
  <circle cx="481" cy="420" r="6" fill="none" stroke="#ccc" stroke-width="1" stroke-dasharray="4,3"/>
  <circle cx="335" cy="493" r="6" fill="none" stroke="#ccc" stroke-width="1" stroke-dasharray="4,3"/>
  <circle cx="408" cy="493" r="6" fill="none" stroke="#ccc" stroke-width="1" stroke-dasharray="4,3"/>
  <circle cx="481" cy="493" r="6" fill="none" stroke="#ccc" stroke-width="1" stroke-dasharray="4,3"/>
  <text x="408" y="780" text-anchor="middle" font-family="&apos;Source Sans 3&apos;, Georgia, sans-serif" font-size="15" fill="#555">Place pieces on any intersection point. See page 2 for rules.</text>
  <text x="408" y="1014" text-anchor="middle" font-family="&apos;Source Sans 3&apos;, Georgia, sans-serif" font-size="11" fill="#ccc">Heritage Parlor  ·  Page 1 of 2  ·  Turn over for full instructions</text>
</svg>