<svg xmlns="http://www.w3.org/2000/svg" viewBox="0 0 816 1056" width="816" height="1056">
  <defs>
    <pattern id="ph" width="6" height="6" patternUnits="userSpaceOnUse" patternTransform="rotate(45)">
      <line x1="0" y1="0" x2="0" y2="6" stroke="#1a1a1a" stroke-width="0.3" opacity="0.05"/>
    </pattern>
  </defs>
  <rect width="816" height="1056" fill="#faf6f0"/>
  <rect width="816" height="1056" fill="url(#ph)"/>
  <rect x="24" y="24" width="768" height="1008" rx="2" fill="none" stroke="#1a1a1a" stroke-width="0.75" opacity="0.2"/>
  <text x="408" y="82" text-anchor="middle" font-family="Georgia, serif" font-size="34" font-weight="bold" fill="#1a1a1a" letter-spacing="2">THE FARMER&apos;S PUZZLE</text>
  <text x="408" y="110" text-anchor="middle" font-family="Georgia, serif" font-size="14" fill="#555">Puzzle  ·  1 players  ·  Intermediate</text>
  <line x1="220" y1="126" x2="596" y2="126" stroke="#ccc" stroke-width="0.75"/>
  <rect x="158" y="180" width="500" height="500" fill="#ffffff" stroke="#1a1a1a" stroke-width="2" rx="2"/>
  <line x1="158" y1="305" x2="658" y2="305" stroke="#1a1a1a" stroke-width="1.5"/>
  <line x1="283" y1="180" x2="283" y2="680" stroke="#1a1a1a" stroke-width="1.5"/>
  <line x1="158" y1="430" x2="658" y2="430" stroke="#1a1a1a" stroke-width="1.5"/>
  <line x1="408" y1="180" x2="408" y2="680" stroke="#1a1a1a" stroke-width="1.5"/>
  <line x1="158" y1="555" x2="658" y2="555" stroke="#1a1a1a" stroke-width="1.5"/>
  <line x1="533" y1="180" x2="533" y2="680" stroke="#1a1a1a" stroke-width="1.5"/>
  <circle cx="220" cy="242" r="28" fill="none" stroke="#ccc" stroke-width="1" stroke-dasharray="6,4"/>
  <circle cx="345" cy="242" r="28" fill="none" stroke="#ccc" stroke-width="1" stroke-dasharray="6,4"/>
  <circle cx="470" cy="242" r="28" fill="none" stroke="#ccc" stroke-width="1" stroke-dasharray="6,4"/>
  <circle cx="595" cy="242" r="28" fill="none" stroke="#ccc" stroke-width="1" stroke-dasharray="6,4"/>
  <circle cx="220" cy="367" r="28" fill="none" stroke="#ccc" stroke-width="1" stroke-dasharray="6,4"/>
  <circle cx="345" cy="367" r="28" fill="none" stroke="#ccc" stroke-width="1" stroke-dasharray="6,4"/>
  <circle cx="470" cy="367" r="28" fill="none" stroke="#ccc" stroke-width="1" stroke-dasharray="6,4"/>
  <circle cx="595" cy="367" r="28" fill="none" stroke="#ccc" stroke-width="1" stroke-dasharray="6,4"/>
  <circle cx="220" cy="492" r="28" fill="none" stroke="#ccc" stroke-width="1" stroke-dasharray="6,4"/>
  <circle cx="345" cy="492" r="28" fill="none" stroke="#ccc" stroke-width="1" stroke-dasharray="6,4"/>
  <circle cx="470" cy="492" r="28" fill="none" stroke="#ccc" stroke-width="1" stroke-dasharray="6,4"/>
  <circle cx="595" cy="492" r="28" fill="none" stroke="#ccc" stroke-width="1" stroke-dasharray="6,4"/>
  <circle cx="220" cy="617" r="28" fill="none" stroke="#ccc" stroke-width="1" stroke-dasharray="6,4"/>
  <circle cx="345" cy="617" r="28" fill="none" stroke="#ccc" stroke-width="1" stroke-dasharray="6,4"/>
  <circle cx="470" cy="617" r="28" fill="none" stroke="#ccc" stroke-width="1" stroke-dasharray="6,4"/>
  <circle cx="595" cy="617" r="28" fill="none" stroke="#ccc" stroke-width="1" stroke-dasharray="6,4"/>
  <text x="408" y="780" text-anchor="middle" font-family="Georgia, serif" font-size="15" fill="#555">The puzzle: a square field is divided into 25 equal smaller squares (like a 5×5 grid).</text>
  <text x="408" y="804" text-anchor="middle" font-family="Georgia, serif" font-size="13" fill="#555">See page 2 for full instructions.</text>
  <text x="408" y="1014" text-anchor="middle" font-family="Georgia, serif" font-size="11" fill="#ccc">Heritage Parlor  ·  Page 1 of 2  ·  Turn over for full instructions</text>
</svg>